<?xml version="1.0" encoding="UTF-8" standalone="no"?>
<!-- Created with Inkscape (http://www.inkscape.org/) -->

<svg
   xmlns:dc="http://purl.org/dc/elements/1.1/"
   xmlns:cc="http://creativecommons.org/ns#"
   xmlns:rdf="http://www.w3.org/1999/02/22-rdf-syntax-ns#"
   xmlns:svg="http://www.w3.org/2000/svg"
   xmlns="http://www.w3.org/2000/svg"
   xmlns:sodipodi="http://sodipodi.sourceforge.net/DTD/sodipodi-0.dtd"
   xmlns:inkscape="http://www.inkscape.org/namespaces/inkscape"
   width="220"
   height="170"
   id="svg2"
   version="1.1"
   inkscape:version="0.48.2 r9819"
   sodipodi:docname="New document 1">
  <defs
     id="defs4">
    <inkscape:path-effect
       effect="skeletal"
       id="path-effect2989"
       is_visible="true"
       pattern="M 0,0 0,10 10,5 z"
       copytype="single_stretched"
       prop_scale="1"
       scale_y_rel="false"
       spacing="0"
       normal_offset="0"
       tang_offset="0"
       prop_units="false"
       vertical_pattern="false"
       fuse_tolerance="0" />
    <filter
       inkscape:collect="always"
       id="filter3765">
      <feGaussianBlur
         inkscape:collect="always"
         stdDeviation="0.71201105"
         id="feGaussianBlur3767" />
    </filter>
    <filter
       inkscape:collect="always"
       id="filter3783"
       x="-0.13117409"
       width="1.2623482"
       y="-0.13117409"
       height="1.2623482">
      <feGaussianBlur
         inkscape:collect="always"
         stdDeviation="3.0607287"
         id="feGaussianBlur3785" />
    </filter>
    <filter
       inkscape:collect="always"
       id="filter3817">
      <feGaussianBlur
         inkscape:collect="always"
         stdDeviation="0.70251412"
         id="feGaussianBlur3819" />
    </filter>
    <filter
       inkscape:collect="always"
       id="filter3825">
      <feGaussianBlur
         inkscape:collect="always"
         stdDeviation="0.48"
         id="feGaussianBlur3827" />
    </filter>
  </defs>
  <sodipodi:namedview
     id="base"
     pagecolor="#ffffff"
     bordercolor="#666666"
     borderopacity="1.0"
     inkscape:pageopacity="0.0"
     inkscape:pageshadow="2"
     inkscape:zoom="1"
     inkscape:cx="475.41859"
     inkscape:cy="166.30298"
     inkscape:document-units="px"
     inkscape:current-layer="layer1"
     showgrid="false"
     inkscape:window-width="1920"
     inkscape:window-height="1176"
     inkscape:window-x="0"
     inkscape:window-y="24"
     inkscape:window-maximized="1" />
  <metadata
     id="metadata7">
    <rdf:RDF>
      <cc:Work
         rdf:about="">
        <dc:format>image/svg+xml</dc:format>
        <dc:type
           rdf:resource="http://purl.org/dc/dcmitype/StillImage" />
        <dc:title></dc:title>
      </cc:Work>
    </rdf:RDF>
  </metadata>
  <g
     inkscape:label="Layer 1"
     inkscape:groupmode="layer"
     id="layer1"
     transform="translate(0,-882.36218)">
    <rect
       style="fill:#e3dedb;fill-opacity:1;stroke:#999999;stroke-width:3;stroke-miterlimit:4;stroke-dasharray:none"
       id="rect2985"
       width="200"
       height="150"
       x="10"
       y="892.36218" />
    <path
       inkscape:connector-curvature="0"
       id="path3763"
       d="m 10.454112,894.33284 103.134408,84.17754 97.2668,-84.40321"
       style="fill:none;stroke:#483737;stroke-width:3;stroke-linecap:butt;stroke-linejoin:miter;stroke-miterlimit:4;stroke-opacity:1;stroke-dasharray:none;filter:url(#filter3765)" />
    <path
       style="fill:none;stroke:#999999;stroke-width:3;stroke-linecap:butt;stroke-linejoin:miter;stroke-opacity:1;stroke-miterlimit:4;stroke-dasharray:none"
       d="M 9.7041123,10.220662 112.83852,94.398195 210.10532,9.994985"
       id="path2991"
       inkscape:connector-curvature="0"
       transform="translate(0,882.36218)" />
    <path
       transform="matrix(1.2372881,0,0,1.2372881,-46.050847,811.76896)"
       d="m 201,150 a 28,28 0 1 1 -56,0 28,28 0 1 1 56,0 z"
       sodipodi:ry="28"
       sodipodi:rx="28"
       sodipodi:cy="150"
       sodipodi:cx="173"
       id="path3773"
       style="fill:#000000;fill-opacity:1;stroke:none;stroke-width:3;stroke-miterlimit:4;stroke-opacity:1;stroke-dasharray:none;filter:url(#filter3783)"
       sodipodi:type="arc" />
    <path
       sodipodi:type="arc"
       style="fill:#c83737;fill-opacity:1;stroke:none;stroke-width:3;stroke-miterlimit:4;stroke-opacity:1;stroke-dasharray:none"
       id="path3761"
       sodipodi:cx="173"
       sodipodi:cy="150"
       sodipodi:rx="28"
       sodipodi:ry="28"
       d="m 201,150 a 28,28 0 1 1 -56,0 28,28 0 1 1 56,0 z"
       transform="matrix(1.2372881,0,0,1.2372881,-46.050847,811.76896)" />
    <path
       sodipodi:nodetypes="ccccc"
       inkscape:connector-curvature="0"
       id="path3787"
       d="m 159.37499,971.36218 c 4.87487,-5.06738 10.70935,-4.76098 17.25,-0.5 -3.50202,7.87634 -6.28563,16.41583 -5.5,28.25 -1.52486,0.41322 -2.1855,1.56722 -5.875,0.125 -0.23508,-9.86608 -2.65518,-19.00383 -5.875,-27.875 z"
       style="fill:#000000;stroke:none;filter:url(#filter3817)"
       transform="translate(4.3e-6,0)" />
    <path
       style="fill:#f2f2f2;stroke:none"
       d="m 159.37499,971.36218 c 4.87487,-5.06738 10.70935,-4.76098 17.25,-0.5 -3.50202,7.87634 -6.28563,16.41583 -5.5,28.25 -1.52486,0.41322 -2.1855,1.56722 -5.875,0.125 -0.23508,-9.86608 -2.65518,-19.00383 -5.875,-27.875 z"
       id="path3771"
       inkscape:connector-curvature="0"
       sodipodi:nodetypes="ccccc" />
    <path
       transform="translate(-7.2500057,886.36218)"
       d="m 183.25,127 a 8,8 0 1 1 -16,0 8,8 0 1 1 16,0 z"
       sodipodi:ry="8"
       sodipodi:rx="8"
       sodipodi:cy="127"
       sodipodi:cx="175.25"
       id="path3823"
       style="fill:#000000;fill-opacity:1;stroke:none;filter:url(#filter3825)"
       sodipodi:type="arc" />
    <path
       sodipodi:type="arc"
       style="fill:#ffffff;fill-opacity:1;stroke:none"
       id="path3821"
       sodipodi:cx="175.25"
       sodipodi:cy="127"
       sodipodi:rx="8"
       sodipodi:ry="8"
       d="m 183.25,127 a 8,8 0 1 1 -16,0 8,8 0 1 1 16,0 z"
       transform="translate(-7.2500057,886.36218)" />
  </g>
</svg>
