<?xml version="1.0" encoding="UTF-8" standalone="no"?>
<!-- Creator: CorelDRAW -->

<svg
   xmlns:dc="http://purl.org/dc/elements/1.1/"
   xmlns:cc="http://creativecommons.org/ns#"
   xmlns:rdf="http://www.w3.org/1999/02/22-rdf-syntax-ns#"
   xmlns:svg="http://www.w3.org/2000/svg"
   xmlns="http://www.w3.org/2000/svg"
   xmlns:xlink="http://www.w3.org/1999/xlink"
   xmlns:sodipodi="http://sodipodi.sourceforge.net/DTD/sodipodi-0.dtd"
   xmlns:inkscape="http://www.inkscape.org/namespaces/inkscape"
   xml:space="preserve"
   width="8.26772in"
   height="11.6929in"
   style="shape-rendering:geometricPrecision; text-rendering:geometricPrecision; image-rendering:optimizeQuality; fill-rule:evenodd; clip-rule:evenodd"
   viewBox="0 0 8.26772 11.6929"
   id="svg5250"
   version="1.1"
   inkscape:version="0.48.3.1 r9886"
   sodipodi:docname="ShieldKnight.svg"><metadata
   id="metadata5434"><rdf:RDF><cc:Work
       rdf:about=""><dc:format>image/svg+xml</dc:format><dc:type
         rdf:resource="http://purl.org/dc/dcmitype/StillImage" /><dc:title></dc:title></cc:Work></rdf:RDF></metadata><sodipodi:namedview
   pagecolor="#ffffff"
   bordercolor="#666666"
   borderopacity="1"
   objecttolerance="10"
   gridtolerance="10"
   guidetolerance="10"
   inkscape:pageopacity="0"
   inkscape:pageshadow="2"
   inkscape:window-width="1855"
   inkscape:window-height="1176"
   id="namedview5432"
   showgrid="false"
   inkscape:zoom="0.22425765"
   inkscape:cx="372.04742"
   inkscape:cy="526.18048"
   inkscape:window-x="65"
   inkscape:window-y="24"
   inkscape:window-maximized="1"
   inkscape:current-layer="svg5250" />
 <defs
   id="defs5252">
  <style
   type="text/css"
   id="style5254">
   
    .fil17 {fill:none}
    .fil27 {fill:#4C4C4C}
    .fil23 {fill:#850000}
    .fil26 {fill:#A60000}
    .fil24 {fill:#E57A7A}
    .fil0 {fill:#E5E5E5}
    .fil10 {fill:white}
    .fil7 {fill:#213B6A}
    .fil8 {fill:#3058A0}
    .fil9 {fill:#3A6BC4}
    .fil1 {fill:#555555}
    .fil5 {fill:#6D6D6D}
    .fil6 {fill:#868686}
    .fil30 {fill:#8A8A8A}
    .fil3 {fill:#999999}
    .fil21 {fill:#9E9E9E}
    .fil11 {fill:#A77968}
    .fil4 {fill:#AAAAAA}
    .fil2 {fill:#C9C9C9}
    .fil25 {fill:#D93030}
    .fil12 {fill:#FCB69C}
    .fil13 {fill:#FCCCBB}
    .fil15 {fill:#FFDBCF}
    .fil16 {fill:#999999;fill-rule:nonzero}
    .fil20 {fill:#6D6D6D;fill-rule:nonzero}
    .fil19 {fill:url(#id0)}
    .fil28 {fill:url(#id1)}
    .fil29 {fill:url(#id2)}
    .fil18 {fill:url(#id3)}
    .fil22 {fill:url(#id4)}
    .fil14 {fill:url(#id5)}
   
  </style>
  <linearGradient
   id="id0"
   gradientUnits="userSpaceOnUse"
   x1="5.30807"
   y1="3.65667"
   x2="3.96354"
   y2="3.65667">
   <stop
   offset="0"
   style="stop-color:#AAAAAA"
   id="stop5257" />
   <stop
   offset="0.741176"
   style="stop-color:#555555"
   id="stop5259" />
   <stop
   offset="1"
   style="stop-color:black"
   id="stop5261" />
  </linearGradient>
  <linearGradient
   id="id1"
   gradientUnits="userSpaceOnUse"
   x1="2.55292"
   y1="4.48178"
   x2="4.58218"
   y2="4.98582">
   <stop
   offset="0"
   style="stop-color:#868686"
   id="stop5264" />
   <stop
   offset="1"
   style="stop-color:white"
   id="stop5266" />
  </linearGradient>
  <linearGradient
   id="id2"
   gradientUnits="userSpaceOnUse"
   x1="2.90306"
   y1="4.30136"
   x2="4.57933"
   y2="4.54176">
   <stop
   offset="0"
   style="stop-color:#E5E5E5"
   id="stop5269" />
   <stop
   offset="1"
   style="stop-color:black"
   id="stop5271" />
  </linearGradient>
  <linearGradient
   id="id3"
   gradientUnits="userSpaceOnUse"
   xlink:href="#id2"
   x1="6.01221"
   y1="2.28424"
   x2="6.99332"
   y2="2.03753">
  </linearGradient>
  <linearGradient
   id="id4"
   gradientUnits="userSpaceOnUse"
   x1="5.04995"
   y1="4.75478"
   x2="3.87725"
   y2="4.66626">
   <stop
   offset="0"
   style="stop-color:#AAAAAA"
   id="stop5275" />
   <stop
   offset="1"
   style="stop-color:black"
   id="stop5277" />
  </linearGradient>
  <linearGradient
   id="id5"
   gradientUnits="userSpaceOnUse"
   x1="6.44854"
   y1="3.38883"
   x2="6.75262"
   y2="3.24648">
   <stop
   offset="0"
   style="stop-color:#FFDBCF"
   id="stop5280" />
   <stop
   offset="1"
   style="stop-color:white"
   id="stop5282" />
  </linearGradient>
 </defs>
 <g
   id="Layer_x0020_1"
   inkscape:export-filename="/var/www/grades/assets/images/GradeKeepShieldKnight.png"
   inkscape:export-xdpi="90"
   inkscape:export-ydpi="90">
  <metadata
   id="CorelCorpID_0Corel-Layer" />
  <g
   id="_47113304">
   <ellipse
   id="_49481208"
   class="fil0"
   cx="3.5442"
   cy="6.5755"
   rx="2.5406"
   ry="0.499563" />
   <path
   id="_47471048"
   class="fil1"
   d="M5.53898 5.27157c-0.282232,-0.000507874 -0.544315,-0.142091 -0.802165,-0.240071l-0.0230709 -0.00876772 0.0105787 -0.0222992c0.112886,-0.237913 0.225772,-0.475827 0.338638,-0.713748l0.0137992 -0.0290748 0.0228346 0.0226772c0.0408228,0.0405315 0.0844252,0.0782992 0.128583,0.115126 0.169437,0.141283 0.416181,0.308102 0.415102,0.554331l-1.9685e-005 0.00461811 -0.00181496 0.00424803c-0.0404409,0.0944409 -0.040378,0.203138 -0.0814803,0.299146l-0.00593307 0.0138465 -0.0150512 -3.14961e-005z" />
   <path
   id="_47470000"
   class="fil2"
   d="M4.74491 5.01021c0.261646,0.0994213 0.518307,0.238087 0.794118,0.238583 0.0398071,-0.0929803 0.0416654,-0.206165 0.0814724,-0.299146 0.00121654,-0.277598 -0.317882,-0.435677 -0.536953,-0.653189 -0.119717,0.252335 -0.218917,0.461421 -0.338638,0.713752z" />
   <path
   id="_47468952"
   class="fil3"
   d="M4.74491 5.01021c0.261646,0.0994213 0.518307,0.238087 0.794118,0.238583 0.0398071,-0.0929803 0.0168346,-0.129681 0.0566378,-0.222665 0.00121654,-0.277594 -0.346323,-0.39985 -0.565394,-0.617362 -0.119717,0.252335 -0.165642,0.349114 -0.285362,0.601445z" />
   <path
   id="_47467760"
   class="fil4"
   d="M4.84404 4.74815c0.245772,0.166327 0.447508,0.388835 0.723319,0.389331 0.0398071,-0.0929803 -0.0114921,-0.0183661 0.028311,-0.11135 0.00121654,-0.277594 -0.346323,-0.39985 -0.565394,-0.617362 -0.119717,0.252335 -0.0665157,0.0870472 -0.186236,0.339382z" />
   <path
   id="_47475544"
   class="fil1"
   d="M5.09469 5.9837c0.0499528,-0.145583 -0.012378,-0.246803 -0.0328819,-0.387555 -0.0262323,-0.180047 0.0399528,-0.339886 0.135689,-0.488969l0.00969291 -0.0150945 0.0167992 0.00628346c0.120941,0.0451969 0.241882,0.0903976 0.362811,0.135606l0.0100354 0.00375197 0.00332677 0.010185c0.0373071,0.114354 -0.0158701,0.266094 -0.0497756,0.376748 -0.0310709,0.101382 -0.0767126,0.243854 -0.0369449,0.347559l0.0105472 0.0275039 -0.0293465 0.00261417c-0.124945,0.0110906 -0.25215,-0.000362205 -0.376945,0.0107362l-0.034126 0.0030315 0.0111181 -0.0324016z" />
   <path
   id="_47474440"
   class="fil2"
   d="M5.21621 5.11919c-0.11972,0.186417 -0.152866,0.333272 -0.132394,0.47374 0.0214055,0.146921 0.0846693,0.244224 0.0319055,0.39798 0.111717,-0.00992913 0.26524,-0.000811024 0.376961,-0.0107362 -0.0805039,-0.209917 0.152055,-0.52398 0.0863425,-0.725382 -0.120941,-0.0452008 -0.241878,-0.0904016 -0.362815,-0.135602z" />
   <path
   id="_47473336"
   class="fil3"
   d="M5.21621 5.11919c-0.11972,0.186417 -0.152866,0.333272 -0.132394,0.47374 0.0214055,0.146921 0.0846693,0.244224 0.0319055,0.39798 0.111717,-0.00992913 0.21937,0.00219291 0.331091,-0.00773228 -0.0805039,-0.209913 0.146606,-0.546161 0.0808937,-0.747563 -0.120941,-0.0452008 -0.190559,-0.0712244 -0.311496,-0.116425z" />
   <path
   id="_47472200"
   class="fil4"
   d="M5.35552 5.14752c-0.344969,0.229583 -0.0659291,0.561913 -0.239795,0.843394 0.111717,-0.00992913 0.21937,0.00219291 0.331091,-0.00773228 -0.0805039,-0.209913 0.146606,-0.546161 0.0808937,-0.747563 -0.120941,-0.0452008 -0.051252,-0.0428937 -0.172189,-0.0880984z" />
   <path
   id="_47424776"
   class="fil1"
   d="M5.15963 6.04354c0.111795,-0.00558661 0.222728,-0.0250276 0.334571,-0.0306142l0.0106929 -0.000535433 0.00707874 0.00802362c0.129287,0.146283 0.274618,0.260646 0.447004,0.353185l0.00251969 0.0013622 0.00210236 0.00194488c0.0408465,0.0379449 0.0300709,0.0886772 -0.0273701,0.0879528 -0.25402,0.0028622 -0.507984,-0.00676378 -0.762031,-0.00668898 -0.0132795,0 -0.0265472,2.75591e-005 -0.0398268,9.05512e-005 -0.0665551,0.000334646 -0.0732559,-0.00224016 -0.0811339,-0.0704409 -0.0136299,-0.117854 0.00607874,-0.249201 0.0915236,-0.337531l0.0061063 -0.00631102 0.00876378 -0.000437008z" />
   <path
   id="_47423584"
   class="fil2"
   d="M5.49531 6.03514c0.125709,0.142248 0.268736,0.259059 0.453154,0.358059 0.0319803,0.0297126 0.0170315,0.0497992 -0.0123583,0.0494252 -0.24302,0.00274409 -0.513012,-0.00675984 -0.761913,-0.00668504 -0.013374,0 -0.0266969,2.3622e-005 -0.0399331,8.66142e-005 -0.0540787,0.000271654 -0.0524764,0.00506299 -0.0589291,-0.050752 -0.0131142,-0.113406 0.00595669,-0.237378 0.0854134,-0.319516 0.105972,-0.00529921 0.228606,-0.0253228 0.334567,-0.0306181z" />
   <path
   id="_47422792"
   class="fil3"
   d="M5.45554 6.06414c0.125713,0.142248 0.283205,0.282622 0.492917,0.329055 0.0319803,0.0297126 0.0170315,0.0497992 -0.0123583,0.0494252 -0.24302,0.00274409 -0.513012,-0.00675984 -0.761913,-0.00668504 -0.013374,0 -0.0266969,2.3622e-005 -0.0399331,8.66142e-005 -0.0540787,0.000271654 -0.0524764,0.00506299 -0.0589291,-0.050752 -0.0131142,-0.113406 0.00595669,-0.237378 0.0854134,-0.319516 0.105972,-0.00529921 0.188846,0.00368504 0.294803,-0.00161417z" />
   <path
   id="_47421480"
   class="fil4"
   d="M5.45554 6.06414c0.125713,0.142248 0.283205,0.282622 0.492917,0.329055 0.0319803,0.0297126 0.0170315,0.0497992 -0.0123583,0.0494252 -0.24302,0.00274409 -0.39198,-0.0413228 -0.640878,-0.0412598 -0.0133622,0 -0.0267126,2.3622e-005 -0.039937,8.66142e-005 -0.0540787,0.000259843 -0.0524764,0.00504724 -0.0589291,-0.050752 -0.0130984,-0.113406 -0.115075,-0.202803 -0.0356181,-0.284941 0.105972,-0.00529921 0.188846,0.00368504 0.294803,-0.00161417z" />
   <path
   id="_47419928"
   class="fil1"
   d="M5.49632 5.88585c0.0363228,0.0344409 0.0608031,0.118354 0.0719134,0.167067l0.00242913 0.0106575 -0.00695276 0.00842913c-0.0704213,0.0855 -0.186839,0.154642 -0.223421,0.261685 -0.0104331,0.0305866 -0.0156969,0.117012 -0.0338031,0.13939 -0.0173661,0.0205787 -0.0804843,0.0137205 -0.104031,0.00616142l-0.00765354 -0.00245669 -0.00431496 -0.00678346c-0.0492244,-0.0773898 -0.0862953,-0.168862 -0.128669,-0.250811l-0.000779528 -0.00151181 -0.000547244 -0.00162205c-0.0376929,-0.112173 -0.00312992,-0.226146 0.0449055,-0.329323l0.0108976 -0.0233976 0.0215236 0.0142323c0.0731654,0.0483504 0.255862,0.0455157 0.332799,0.00477165l0.0141102 -0.00747638 0.0115945 0.0109882z" />
   <path
   id="_47418712"
   class="fil2"
   d="M5.12556 5.89613c0.0723268,0.0477992 0.262142,0.0552913 0.355469,0.00586614 0.0314843,0.0298622 0.055122,0.110252 0.0655276,0.155882 -0.0755394,0.0917047 -0.18824,0.154319 -0.227311,0.268638 -0.0152677,0.0447638 -0.0175433,0.121965 -0.0296535,0.132224 -0.0067874,0.008 -0.0572677,0.00673622 -0.0803386,-0.000669291 -0.0405197,-0.0637047 -0.0898307,-0.175882 -0.127681,-0.249087 -0.0314843,-0.0937047 -0.0113386,-0.194031 0.0439882,-0.312854z" />
   <path
   id="_47417496"
   class="fil5"
   d="M5.12556 5.89613c0.0723268,0.0477992 0.19874,0.0510236 0.306209,0.0247362 0.0314843,0.0298622 0.0760157,0.123043 0.0864173,0.168673 -0.0755394,0.0917047 -0.15987,0.122657 -0.198941,0.236976 -0.0152677,0.0447638 -0.0175433,0.121965 -0.0296535,0.132224 -0.0067874,0.008 -0.0572677,0.00673622 -0.0803386,-0.000669291 -0.0405197,-0.0637047 -0.0898307,-0.175882 -0.127681,-0.249087 -0.0314843,-0.0937047 -0.0113386,-0.194031 0.0439882,-0.312854z" />
   <path
   id="_47415464"
   class="fil6"
   d="M5.18753 5.92151c0.0881535,0.0153346 0.136764,0.0256417 0.244232,-0.000645669 0.0314843,0.0298622 0.0760157,0.123043 0.0864173,0.168673 -0.0755394,0.0917047 -0.15987,0.122657 -0.198941,0.236976 -0.0152677,0.0447638 -0.0175433,0.121965 -0.0296535,0.132224 -0.0067874,0.008 -0.0364173,0.00697244 -0.0594882,-0.000433071 -0.0405197,-0.0637047 -0.0666654,-0.201587 -0.104516,-0.274795 -0.0314843,-0.0937008 0.00662205,-0.143177 0.0619488,-0.262z" />
   <path
   id="_47466968"
   class="fil1"
   d="M5.19654 5.07058c0.0346575,-0.0431654 0.0730433,-0.0837717 0.119575,-0.114315 0.0555197,-0.0364449 0.151524,-0.0760591 0.218508,-0.0720079 0.0797913,0.00482677 0.14385,0.0561024 0.178902,0.126004 0.0351535,0.070122 0.0342756,0.136291 0.00341732,0.207815 -0.0226654,0.0525236 -0.0587677,0.096685 -0.109075,0.124728 -0.133012,0.0741575 -0.294039,0.0067874 -0.402764,-0.0798504 -0.105551,-0.0840945 -0.0847874,-0.0974961 -0.00856299,-0.192374z" />
   <path
   id="_47465840"
   class="fil4"
   d="M5.21388 5.0845c0.0307717,-0.0383189 0.0680906,-0.0792244 0.114441,-0.109646 0.050815,-0.0333504 0.142953,-0.0721496 0.204957,-0.0683976 0.0723976,0.00438189 0.129224,0.0516535 0.16037,0.113776 0.032063,0.0639646 0.0315748,0.12252 0.00287008,0.189039 -0.0745157,0.172701 -0.280354,0.193413 -0.477555,0.0362835 -0.0918189,-0.0731575 -0.076248,-0.0724646 -0.00508268,-0.161055z" />
   <path
   id="_47465048"
   class="fil6"
   d="M5.21388 5.0845c0.0307717,-0.0383189 0.0680906,-0.0792244 0.114441,-0.109646 0.050815,-0.0333504 0.142953,-0.0721457 0.204957,-0.0683976 0.098874,0.00598031 0.108252,0.253035 0.0815433,0.314945 -0.0745157,0.172693 -0.198657,0.18128 -0.395858,0.0241535 -0.091815,-0.0731575 -0.076248,-0.0724646 -0.00508268,-0.161055z" />
   <path
   id="_47110320"
   class="fil5"
   d="M5.253 5.13843c0.00034252,-0.0322402 0.00702756,-0.0645669 0.021622,-0.0971024 0.00694882,-0.0155 0.0157008,-0.0310433 0.0264252,-0.0466457 -0.0123819,0.00988583 -0.0240551,0.0204409 -0.0350709,0.0313228 -0.0192677,0.0190236 -0.0365236,0.0390866 -0.0520984,0.0584921 -0.00894488,0.0111339 -0.0170118,0.0208583 -0.0240945,0.0294961 -0.0055315,0.00674409 -0.0104606,0.0128228 -0.0147441,0.0183858 -0.0234567,0.0305039 -0.0275512,0.0457795 -0.00425984,0.0710945 0.00468898,0.00510236 0.0104882,0.0106102 0.0174764,0.0167323 0.00846457,0.00742913 0.0186535,0.015752 0.0307047,0.0253504 0.0151299,0.0120512 0.0298307,0.0231378 0.0441063,0.0332441 0.0120827,0.00854331 0.0238583,0.0163898 0.0353386,0.0235472 -0.000751969,-0.00146063 -0.00149606,-0.00291732 -0.00224016,-0.00437795 -0.00725197,-0.014315 -0.0137677,-0.0286102 -0.0194055,-0.0429055 -0.0116417,-0.0295236 -0.0195472,-0.0590157 -0.0224882,-0.0885472 -0.000177165,-0.00174409 -0.000338583,-0.00348425 -0.000468504,-0.00522441 -0.000476378,-0.00588189 -0.000740157,-0.0117677 -0.000807087,-0.0176575 -1.5748e-005,-0.00174016 -1.5748e-005,-0.00347638 3.93701e-006,-0.00520472z" />
   <polygon
   id="_47691824"
   class="fil7"
   points="6.43783,3.53384 6.31896,3.53292 6.40665,3.91883 6.51969,3.89452 " />
   <polygon
   id="_47691032"
   class="fil8"
   points="6.42507,3.54969 6.33898,3.54903 6.41867,3.89976 6.50043,3.88124 " />
   <polygon
   id="_47689808"
   class="fil9"
   points="6.39543,3.54174 6.33898,3.54903 6.41867,3.89976 6.46455,3.88937 " />
   <polygon
   id="_47688736"
   class="fil1"
   points="6.27612,3.38611 6.41888,3.34632 6.07642,1.40485 5.83502,1.07393 5.77411,1.48054 " />
   <polygon
   id="_47687944"
   class="fil10"
   points="6.29692,3.34984 5.80404,1.47891 5.85346,1.14901 6.0487,1.41665 6.38535,3.3252 " />
   <path
   id="_47686768"
   class="fil11"
   d="M6.57736 3.49037c0.0115394,0.00267323 0.0217953,0.0086811 0.0285512,0.0186024 0.0240748,0.0353622 -0.012378,0.0938504 -0.0333425,0.12272 -0.017315,0.0238583 -0.0637047,0.0817008 -0.0976457,0.075563 -0.0565197,-0.010185 -0.129244,-0.0790748 -0.167709,-0.119524l-0.0112047 -0.0117795 0.00847638 -0.013874c0.0107953,-0.0176614 0.022752,-0.0322992 0.0362677,-0.0478228 0.0119016,-0.0136693 0.0225157,-0.0264764 0.0320197,-0.0420354l0.00813386 -0.013315 0.0151299 0.00381496c0.0587992,0.0148189 0.121984,0.0127441 0.181323,0.0276496z" />
   <path
   id="_47685664"
   class="fil12"
   d="M6.57239 3.51098c0.0700354,0.0158858 -0.0611614,0.181303 -0.0937205,0.175425 -0.0404173,-0.00729528 -0.100618,-0.0549252 -0.156098,-0.11328 0.0234252,-0.0383307 0.0448543,-0.0515236 0.0682795,-0.0898543 0.0548661,0.0138307 0.126677,0.013874 0.181539,0.0277087z" />
   <path
   id="_47684424"
   class="fil13"
   d="M6.57239 3.51098c0.0700354,0.0158858 -0.0529567,0.142031 -0.0855079,0.136154 -0.0404173,-0.00729921 -0.0809764,-0.0506535 -0.0951102,-0.114846 0.0234252,-0.0383307 -0.0243465,-0.010685 -0.00092126,-0.0490157 0.0548661,0.0138307 0.126677,0.013874 0.181539,0.0277087z" />
   <path
   id="_47683256"
   class="fil11"
   d="M6.51154 3.36237c0.0329646,0.000637795 0.0663228,0.0309409 0.0853307,0.0555945 0.0224843,0.0291535 0.0438543,0.074626 0.023815,0.110323 -0.0230394,0.0410157 -0.0898543,0.0521811 -0.132457,0.0547598 -0.0347835,0.00211024 -0.12335,0.00119685 -0.143846,-0.0334134l-0.00170472 -0.00288189 -0.00073622 -0.00326772c-0.00942126,-0.0419173 -0.0105551,-0.0840039 -0.019937,-0.125728l-0.00488189 -0.0216811 0.0218937 -0.00384252c0.0561457,-0.00985433 0.112303,-0.0197008 0.168457,-0.0295472l0.00201575 -0.000350394 0.00205118 3.54331e-005z" />
   <path
   id="_47682184"
   class="fil12"
   d="M6.51113 3.38356c0.0436614,0.00084252 0.116378,0.0892795 0.0910669,0.134346 -0.0331024,0.0589764 -0.220823,0.0525984 -0.239575,0.0209252 -0.0110787,-0.0492717 -0.00885827,-0.0764567 -0.0199409,-0.125728 0.0561496,-0.00985039 0.112303,-0.0196969 0.168449,-0.0295433z" />
   <path
   id="_47501160"
   class="fil13"
   d="M6.51113 3.38356c0.0436614,0.00084252 0.116378,0.0892795 0.0910669,0.134346 -0.0165512,0.0294882 -0.0557323,0.0370472 -0.0931181,0.0332795 -0.0771339,-0.00776772 -0.0842165,-0.0334685 -0.093689,-0.10013 -0.00289764,-0.0203976 -0.00579528,-0.0407992 -0.0113386,-0.0654331 0.0561496,-0.00984646 0.0509331,0.00778346 0.107079,-0.00206299z" />
   <path
   id="_47499088"
   class="fil11"
   d="M6.35697 3.4362c-0.00642913,0.0234961 -0.00877165,0.0482559 -0.00762598,0.0717126 0.0025,0.0511772 0.0213898,0.102165 0.0575984,0.139098l0.0103189 0.0105236 -0.00627165 0.0133346c-0.0311614,0.066252 -0.113516,0.0784134 -0.178067,0.0638937 -0.0144685,-0.00325984 -0.0365157,-0.00337402 -0.0516142,-0.00408268 -0.0181024,-0.000854331 -0.0414331,-0.00113386 -0.0589252,-0.00507087l-0.0128583 -0.0028937 -0.00309055 -0.012811c-0.00513386,-0.0212598 -0.00504724,-0.0386417 -0.00355906,-0.0601339 0.00117323,-0.0170039 0.00159055,-0.0304449 -0.0024685,-0.0472717l-0.00175984 -0.00730709 0.00323228 -0.00678346c0.0397992,-0.0834646 0.0837008,-0.165 0.123504,-0.248461 0.0386654,-0.0810748 0.0325866,-0.0952362 0.128776,-0.10424 0.0389016,-0.00363386 0.0776811,-0.00819291 0.116795,-0.0088937 0.0198386,-0.000354331 0.0453819,-0.00266929 0.0622874,0.00947638 0.0173031,0.0124291 0.0216496,0.0358307 0.0248898,0.0555118 0.00572047,0.0346457 0.00835039,0.0698543 0.00524016,0.104902 -0.00399213,0.0447126 -0.0183701,0.0613583 -0.0574213,0.081748 -0.044437,0.0231929 -0.102819,0.0249882 -0.136024,-0.0181417 -0.00575197,-0.00748031 -0.0100472,-0.0156024 -0.0129567,-0.0241102z" />
   <path
   id="_47498296"
   class="fil12"
   d="M6.121 3.59754c0.0349764,-0.0733425 0.0885315,-0.175114 0.123508,-0.248453 0.0374567,-0.0785315 0.0271654,-0.0843661 0.111618,-0.0922638 0.038315,-0.00358268 0.0765079,-0.00811024 0.115209,-0.00880709 0.0487205,-0.000874016 0.0576535,-0.00270866 0.0658937,0.047252 0.00543307,0.032937 0.00798425,0.0663543 0.00502756,0.099563 -0.00324409,0.0364449 -0.0125984,0.0473425 -0.0461024,0.0648346 -0.103441,0.0539921 -0.182598,-0.0601575 -0.0618189,-0.148496 -0.0263504,0.00665748 -0.0438504,0.0273819 -0.063063,0.0493189 -0.0614449,0.0765669 -0.060315,0.218902 0.0205354,0.30137 -0.0264449,0.0562244 -0.103898,0.0660709 -0.154622,0.0500472 -0.0216969,-0.00685433 -0.0879449,-0.00197244 -0.11015,-0.00696063 -0.0104606,-0.0433346 0.00442126,-0.0640709 -0.00603543,-0.107406z" />
   <path
   id="_47497504"
   class="fil14"
   d="M6.121 3.59754c0.0349724,-0.0733425 0.0885315,-0.175122 0.123516,-0.248449 0.0374449,-0.0785394 0.0271654,-0.084374 0.11161,-0.0922717 0.038315,-0.00358268 0.0765079,-0.00811024 0.115209,-0.00880315 0.0487205,-0.000877953 0.0576535,-0.00272047 0.0658898,0.047248 0.00543307,0.0329331 0.00799213,0.0663583 0.00503543,0.099563 -0.00324803,0.036437 -0.0126024,0.0473425 -0.0461102,0.0648346 -0.103433,0.0539882 -0.182594,-0.0601535 -0.061815,-0.148496 -0.0263504,0.00666142 -0.0438504,0.0273701 -0.063063,0.0493189 -0.0518465,0.0645945 -0.0868386,0.172606 -0.0479488,0.254311 0.0284528,0.0597756 0.033685,0.0651693 -0.0579528,0.0688307 -0.0997598,0.00397244 -0.249378,-0.0200945 -0.265063,-0.0236142 -0.0104567,-0.0433425 0.131154,-0.0191417 0.120693,-0.0624724z" />
   <path
   id="_47496192"
   class="fil13"
   d="M6.121 3.59754c0.0349764,-0.0733425 0.0885315,-0.175114 0.123508,-0.248453 0.0374567,-0.0785315 0.0271693,-0.0843661 0.111618,-0.0922638 0.0596181,-0.0055748 0.115094,-0.00105906 0.142118,0.0357559 0.0212087,0.0288898 0.0339016,0.148295 -0.00209055,0.167087 -0.103441,0.0539921 -0.182598,-0.0601575 -0.0618189,-0.148496 -0.0263504,0.00665748 -0.0438504,0.0273819 -0.063063,0.0493189 -0.0518425,0.0646024 -0.0868425,0.172602 -0.0479528,0.254315 0.0284567,0.0597638 0.0336929,0.0651654 -0.0579528,0.0688228 -0.0997559,0.00397638 -0.24937,-0.0200906 -0.265059,-0.0236142 -0.0104606,-0.0433346 0.13115,-0.0191378 0.120693,-0.0624724z" />
   <path
   id="_47494544"
   class="fil11"
   d="M6.39337 3.37838c-0.00523228,0.0533425 -0.00433858,0.0981575 0.0114764,0.149949 0.00422047,0.013811 0.00942126,0.0276142 0.0130276,0.0415591 0.00311811,0.0120472 0.0054252,0.0263071 -0.00226378,0.0372047 -0.014937,0.0211654 -0.0553189,0.00993701 -0.0754646,0.00451575 -0.0365315,-0.0098189 -0.0724252,-0.0327953 -0.0862323,-0.0695512 -0.0156299,-0.0416142 0.0226063,-0.0824685 0.050248,-0.113449 -0.00879134,-0.00820866 -0.0369843,-0.0158583 -0.0457756,-0.0240669l-0.0123386 -0.0115276 0.0138543 -0.00965354c0.0195315,-0.0136063 0.0390669,-0.0272087 0.0585984,-0.040815l0.000570866 -0.000397638 0.000606299 -0.000338583c0.00553543,-0.00307087 0.0114882,-0.0055748 0.0175197,-0.00748425 0.0158819,-0.00502756 0.0379843,-0.00750394 0.0509252,0.0054252 0.0105709,0.0105551 0.00964567,0.0255354 0.00524803,0.0386299z" />
   <path
   id="_47493416"
   class="fil12"
   d="M6.24604 3.39301c0.0207913,-0.00794882 0.0607362,-0.0256614 0.0802717,-0.0392677 0.0245354,-0.013622 0.0682008,-0.0184961 0.0536339,0.0216732 -0.00572441,0.0572441 -0.00460236,0.103024 0.0118465,0.156898 0.0168937,0.0552874 0.0382677,0.0893386 -0.0480984,0.0661142 -0.0770433,-0.0207205 -0.115661,-0.0930787 -0.0395276,-0.169823 -0.0633504,0.0343425 -0.0701181,-0.0181378 -0.058126,-0.0355945z" />
   <path
   id="_47492152"
   class="fil13"
   d="M6.24604 3.39301c0.0207913,-0.00794882 0.0607362,-0.0256614 0.0802717,-0.0392677 0.0245354,-0.013622 0.0682008,-0.0184961 0.0536339,0.0216732 -0.00572441,0.0572441 -0.00460236,0.103024 0.0118465,0.156898 0.0168937,0.0552874 0.0340276,0.0637244 -0.0523386,0.0405 -0.0770433,-0.0207205 -0.0675827,-0.0808543 -0.0352874,-0.144209 -0.0633504,0.0343425 -0.0701181,-0.0181378 -0.058126,-0.0355945z" />
   <path
   id="_47491024"
   class="fil15"
   d="M6.60741 3.49723c-0.0148268,-0.022252 -0.0329134,-0.0427165 -0.0534764,-0.0607441 0.00355512,-0.00737008 0.00604724,-0.0158425 0.00772835,-0.0259843 0.0250669,0.0236535 0.0461496,0.0585787 0.045748,0.0867283z" />
   <polygon
   id="_47490232"
   class="fil16"
   points="6.27124,3.24617 6.29404,3.13285 6.36736,3.22417 6.37672,3.21666 6.29536,3.11533 6.28732,3.10533 6.28479,3.11791 6.25945,3.24381 " />
   <polyline
   id="_47489256"
   class="fil17"
   points="6.26535,3.24499 6.29068,3.11909 6.37204,3.22042 " />
   <polygon
   id="_47488432"
   class="fil16"
   points="5.84759,1.1503 6.28481,3.12038 6.29654,3.11781 5.85932,1.14772 " />
   <polygon
   id="_47487424"
   class="fil18"
   points="5.85098,1.16556 6.28454,3.11915 6.26359,3.2233 5.80404,1.47891 " />
   <path
   id="_47486320"
   class="fil7"
   d="M6.30034 3.20566c-0.0144528,0.014063 -0.0303386,0.026748 -0.0469764,0.0381299 -0.0338661,0.0231614 -0.0729528,0.0423937 -0.11222,0.0543937 -0.0241693,0.00738189 -0.0613228,0.0155906 -0.0864094,0.00927165l-0.0218228 0.0213504c0.0046378,0.0203268 0.00867717,0.0407835 0.0133228,0.0611102l0.00404331 0.0177126 0.0176496 -0.00430709c0.189484,-0.0462165 0.378976,-0.0924331 0.568461,-0.138654l0.0187677 -0.0045748 -0.00598819 -0.0183701c-0.00685827,-0.0210276 -0.0137087,-0.0420591 -0.0205669,-0.0630945l-0.00702362 -0.0215512 -0.0193346 0.0118268c-0.089248,0.0545709 -0.185445,0.0605315 -0.28452,0.0323622l-0.00996063 -0.00283071 -0.00742126 0.00722441z" />
   <path
   id="_47485248"
   class="fil9"
   d="M6.61158 3.18418c-0.103197,0.0631024 -0.207591,0.0602283 -0.298756,0.0343071 -0.0785709,0.0764803 -0.222157,0.124862 -0.279913,0.110315 0.0046811,0.0205 0.0260945,0.0366299 0.0307756,0.0571299 0.197016,-0.0480551 0.371445,-0.0906024 0.568457,-0.138657 -0.00685433,-0.0210315 -0.0137087,-0.042063 -0.020563,-0.0630945z" />
   <path
   id="_47483840"
   class="fil7"
   d="M6.66504 3.14648l-0.0650669 0.0148583c-0.0167756,0.00382677 -0.0273268,0.0206142 -0.0234961,0.0373937l0.0125315 0.0548976c0.00382677,0.0167756 0.020622,0.0273228 0.0373976,0.0234921l0.0650669 -0.0148504c0.0167756,-0.00383071 0.0273268,-0.020622 0.0234961,-0.0373976l-0.0125315 -0.0548976c-0.00382677,-0.0167795 -0.020622,-0.0273268 -0.0373976,-0.0234961z" />
   <rect
   id="_47483048"
   class="fil8"
   transform="matrix(-1.82322 0.416215 0.416215 1.82322 6.68202 3.16097)"
   width="0.0499409"
   height="0.0443622"
   rx="0.00712598"
   ry="0.00712598" />
   <path
   id="_47482120"
   class="fil9"
   d="M6.60396 3.1788c-0.00714961,0.00162992 -0.0116614,0.00880709 -0.0100276,0.0159567l0.0125315 0.0548976c0.00162992,0.00714961 0.00881496,0.0116535 0.0159606,0.0100236 0.036122,-0.00824016 0.0673071,-0.00865354 0.058374,-0.038748l-0.00843701 -0.0284488c-0.00864961,-0.0291535 -0.0406969,-0.0200079 -0.0684016,-0.0136811z" />
   <path
   id="_47481016"
   class="fil7"
   d="M6.05385 3.29635l-0.0719567 0.0164252c-0.0148819,0.00339764 -0.0242362,0.0182795 -0.0208386,0.0331654l0.0141063 0.0617874c0.00339764,0.0148819 0.0182795,0.0242323 0.0331654,0.0208346l0.0719567 -0.0164252c0.0148819,-0.0033937 0.0242362,-0.0182835 0.0208386,-0.0331654l-0.0141063 -0.0617795c-0.00338583,-0.0148898 -0.0182795,-0.0242402 -0.0331654,-0.0208425z" />
   <rect
   id="_47480224"
   class="fil8"
   transform="matrix(-1.82322 0.416215 0.416215 1.82322 6.06738 3.31163)"
   width="0.0499409"
   height="0.0443622"
   rx="0.00523622"
   ry="0.00523622" />
   <path
   id="_47478856"
   class="fil8"
   d="M6.55274 3.26664l-0.0206614 0.00504331 -0.0430787 0.0105079 -0.0780748 0.0190433 -0.0285748 0.0069685 -0.0905827 0.0220945 -0.0285197 0.00695669 -0.014878 0.00362992 -0.0265394 0.00647244 -0.0155984 0.00380315c0.00541339,-0.00161417 0.0107874,-0.00324409 0.016122,-0.00490157 0.00933858,-0.0028937 0.0185551,-0.00585039 0.0276417,-0.00887795 0.00409449,-0.00136614 0.00815748,-0.00274016 0.0121969,-0.00412992 0.00938976,-0.00323228 0.0186417,-0.00653937 0.0277402,-0.0099252 0.0313661,-0.0116732 0.0609449,-0.0242835 0.0883898,-0.0379449 0.00934252,-0.00465354 0.0184409,-0.00942913 0.0272795,-0.0143346 0.00818504,-0.00454331 0.0161457,-0.00919685 0.023874,-0.0139606 0.00420079,-0.00259449 0.00833465,-0.00521654 0.0123937,-0.00787402 0.00745669,-0.00488583 0.0146693,-0.00987795 0.0216299,-0.0149961 0.0143819,-0.0013622 0.028878,-0.00364567 0.0434488,-0.00697244 0.0233425,-0.00533071 0.046878,-0.0133307 0.0704331,-0.0245197l0.011622 0.0509094c0.00030315,0.00133465 0.000692913,0.00262992 0.00115354,0.00388189l-0.0374173 0.00912598z" />
   <path
   id="_47477152"
   class="fil9"
   d="M6.02587 3.3211c-0.00914567,0.0305709 -0.00862205,0.0601535 0.00188976,0.0846693l-0.0234173 0.00534252c-0.00525591,0.00120079 -0.0105276,-0.00211024 -0.0117283,-0.00736614l-0.0141063 -0.0617874c-0.00119685,-0.00525591 0.00211417,-0.0105276 0.00737008,-0.0117244l0.0399921 -0.00913386z" />
   <path
   id="_47464224"
   class="fil1"
   d="M6.008 3.8508c-0.118327,0.030315 -0.23715,0.0587362 -0.355488,0.0890394 -0.19535,0.0500236 -0.277465,0.0287677 -0.436016,-0.0894252 -0.135965,-0.101343 -0.281232,-0.199713 -0.409024,-0.310732l-0.0216024 -0.0187677 0.0231929 -0.0167677c0.156949,-0.113461 0.30078,-0.246587 0.457768,-0.360075l0.0142244 -0.0102795 0.0135276 0.0111654c0.0750394,0.0619291 0.136378,0.136087 0.186744,0.219079 0.0184961,0.0304724 0.0347874,0.0617835 0.0527717,0.0923976 0.00794488,0.0135197 0.0190039,0.0319331 0.0327008,0.0403425 0.0014685,0.000897638 0.00298819,0.00170472 0.00455118,0.00242126 0.0297205,0.0136378 0.0999331,0.0070748 0.132031,0.00512992 0.0653976,-0.00398031 0.128362,0.0325236 0.188811,0.0288661l0.0206339 -0.00124409 0.00317717 0.0204213c0.0147598,0.0949843 0.0931457,0.172315 0.108799,0.272957l0.00316535 0.0203583 -0.0199685 0.00511417z" />
   <path
   id="_47463040"
   class="fil2"
   d="M5.28013 3.16248c0.0843386,0.0695906 0.141862,0.147543 0.181783,0.213335 0.0504055,0.0830709 0.0643346,0.127665 0.0999764,0.144024 0.0277244,0.0127205 0.0670315,0.0117559 0.142866,0.00715354 0.0603465,-0.00366535 0.128461,0.0325197 0.188815,0.0288661 0.0150433,0.0967795 0.0937441,0.176165 0.108799,0.272957 -0.104303,0.0267126 -0.25122,0.0623268 -0.355488,0.0890276 -0.196654,0.0503622 -0.271173,0.0229488 -0.416823,-0.085626 -0.124039,-0.0924646 -0.2975,-0.213933 -0.407693,-0.309661 0.129965,-0.0939606 0.327803,-0.266126 0.457764,-0.360075z" />
   <path
   id="_47462248"
   class="fil6"
   d="M5.21314 3.18397c0.192575,0.10935 0.286854,0.363358 0.322492,0.379717 0.0277244,0.0127205 0.0932874,-0.0320906 0.169122,-0.0366929 0.0603465,-0.00366535 0.128461,0.0325197 0.188815,0.0288661 0.0150433,0.0967795 0.0937441,0.176165 0.108799,0.272957 -0.104303,0.0267126 -0.25122,0.0623268 -0.355488,0.0890276 -0.196654,0.0503622 -0.271173,0.0229488 -0.416823,-0.085626 -0.124039,-0.0924646 -0.2975,-0.213933 -0.407693,-0.309661 0.129965,-0.0939606 0.260811,-0.244638 0.390776,-0.338587z" />
   <path
   id="_47460704"
   class="fil4"
   d="M5.21314 3.18397c0.192575,0.10935 0.286854,0.363358 0.322492,0.379717 0.0277244,0.0127205 0.0932874,-0.0320906 0.169122,-0.0366929 0.0603465,-0.00366535 0.128461,0.0325197 0.188815,0.0288661 0.0150433,0.0967795 0.0699173,0.100394 0.0849724,0.197185 -0.104303,0.0267165 -0.278213,0.0657559 -0.382461,0.0924488 -0.196638,0.0503425 -0.229602,-0.0567402 -0.37524,-0.165299 -0.124031,-0.0924528 -0.288283,-0.0619094 -0.398476,-0.157638 0.129965,-0.0939606 0.260811,-0.244638 0.390776,-0.338587z" />
   <path
   id="_47438800"
   class="fil1"
   d="M5.64888 3.93447c-0.0905197,0.139028 -0.317858,0.0721575 -0.387185,-0.0544882l-0.00682677 -0.0125 0.00825591 -0.0115866c0.0895472,-0.125539 0.156201,-0.268787 0.245839,-0.394457l0.00574803 -0.00805512 0.00983071 -0.00126772c0.0326929,-0.00423228 0.0707323,0.0156024 0.080626,0.0482087l0.000905512 0.00298031 6.29921e-005 0.00309843c0.000704724,0.0215984 0.00468504,0.0473504 0.00705512,0.0690433 0.00497638,0.0454016 0.010122,0.0907953 0.0152953,0.136181 0.0078937,0.0692795 0.0158622,0.138559 0.0239213,0.207827l0.000944882 0.00814173 -0.00447244 0.00687402z" />
   <path
   id="_47431664"
   class="fil5"
   d="M5.58344 3.50691c0.000425197,0.0198031 0.0464173,0.415165 0.0464173,0.415165 -0.0395354,0.0607165 -0.110866,0.0761772 -0.180189,0.062122 -0.069311,-0.0140551 -0.136606,-0.0576772 -0.168051,-0.115122 0.0772008,-0.10824 0.16863,-0.286217 0.245831,-0.394453 0.0234921,-0.00303543 0.0498189,0.0119528 0.0559921,0.0322874z" />
   <path
   id="_47431456"
   class="fil6"
   d="M5.58344 3.50691c0.000425197,0.0198031 0.0368465,0.332465 0.0368465,0.332465 -0.15172,0.0951693 -0.220461,0.0445157 -0.305398,-0.0196063 0.0664724,-0.108638 0.135358,-0.236909 0.212559,-0.345146 0.0234921,-0.00303543 0.0498189,0.0119528 0.0559921,0.0322874z" />
   <path
   id="_47410056"
   class="fil1"
   d="M5.8017 3.94679c-0.0792913,-0.14122 -0.116299,-0.302291 -0.19528,-0.442972l-0.015937 -0.0283819 0.0321457 -0.00514567c0.170232,-0.0272677 0.347614,-0.00494882 0.519157,-0.00382283l0.0190079 0.000129921 0.00321654 0.0187323c0.0141299,0.0822402 0.0456535,0.160559 0.0598268,0.243055l0.00238583 0.013874 -0.011374 0.00830709c-0.111087,0.0811063 -0.255118,0.163732 -0.386291,0.206681l-0.0177244 0.00580709 -0.00913386 -0.0162638z" />
   <path
   id="_47409008"
   class="fil5"
   d="M5.62621 3.49271c0.0775669,0.138142 0.117717,0.304815 0.195287,0.442957 0.132335,-0.0433228 0.280591,-0.130874 0.379969,-0.203433 -0.0140472,-0.0817559 -0.0457835,-0.161299 -0.0598307,-0.243059 -0.166969,-0.00109843 -0.350602,-0.0228622 -0.515425,0.00353543z" />
   <path
   id="_47407824"
   class="fil6"
   d="M5.62621 3.49271c0.137035,0.244063 0.244358,0.481114 0.575256,0.239524 -0.0140472,-0.0817559 -0.0457835,-0.161299 -0.0598307,-0.243059 -0.166969,-0.00109843 -0.350602,-0.0228622 -0.515425,0.00353543z" />
   <circle
   id="_47098280"
   class="fil7"
   transform="matrix(-0.58979 -0.0500717 -0.0500717 0.58979 6.46821 3.93872)"
   r="0.139256" />
   <circle
   id="_47097024"
   class="fil8"
   transform="matrix(-0.58979 -0.0500717 -0.0500717 0.58979 6.46821 3.93872)"
   r="0.118587" />
   <path
   id="_47096016"
   class="fil9"
   d="M6.45774 3.87852c-0.0386181,-0.00327953 -0.056189,0.0156417 -0.0594685,0.0542638 -0.00327953,0.0386181 0.0253858,0.0726024 0.0640079,0.0758819 0.0386181,0.00327559 0.047437,-0.0175039 0.0507165,-0.056122 0.00327953,-0.038622 -0.0166339,-0.070748 -0.0552559,-0.0740236z" />
   <circle
   id="_47095264"
   class="fil8"
   transform="matrix(-0.749314 -0.0925686 -0.0925686 0.749314 6.46469 3.9354)"
   r="0.0483819" />
   <path
   id="_47459552"
   class="fil1"
   d="M4.49667 2.8864c0.163335,-0.0639134 0.488732,-0.0945354 0.656795,-0.0441969 0.171591,0.051378 0.25385,0.247492 0.18265,0.410579 -0.0128661,0.0294685 -0.0310591,0.0564685 -0.052248,0.0805709 -0.05,0.0568661 -0.151669,0.127441 -0.230161,0.129815l-0.0102638 0.000314961 -0.00701969 -0.00751181c-0.17376,-0.186181 -0.374252,-0.346705 -0.548067,-0.532929l-0.0228268 -0.0244567 0.0311417 -0.012185z" />
   <path
   id="_47458480"
   class="fil2"
   d="M4.50494 2.90754c0.16863,-0.0659882 0.487929,-0.0897402 0.642012,-0.0435906 0.144886,0.0433898 0.239906,0.215843 0.168346,0.379752 -0.0508543,0.116504 -0.194661,0.194728 -0.262283,0.196768 -0.164228,-0.175961 -0.383846,-0.356972 -0.548075,-0.532929z" />
   <path
   id="_47457408"
   class="fil4"
   d="M4.50494 2.90754c0.16863,-0.0659882 0.422142,-0.0703858 0.576228,-0.024248 0.14487,0.0433898 0.305673,0.1965 0.23413,0.360409 -0.0508543,0.116492 -0.194661,0.194728 -0.262283,0.196768 -0.164228,-0.175961 -0.383846,-0.356972 -0.548075,-0.532929z" />
   <path
   id="_47428912"
   class="fil3"
   d="M4.72141 2.86844c0.751165,-0.0343504 0.845602,1.00758 0.482618,1.37061 -0.295488,0.304433 -1.05224,0.273571 -1.20843,0.0277874 -0.203445,-0.164681 -0.593311,-0.719843 -0.45137,-1.21026 0.182437,-0.184579 0.408843,-0.145232 0.655654,-0.278287 0.173843,0.0300512 0.347685,0.0601024 0.521528,0.0901417z" />
   <path
   id="_48908504"
   class="fil1"
   d="M4.72278 2.84709c0.179252,-0.00767717 0.346327,0.0449213 0.475472,0.172378 0.145472,0.143567 0.215232,0.353071 0.229264,0.553335 0.0161063,0.229882 -0.0400906,0.512886 -0.208346,0.681165 -0.0881811,0.0908465 -0.20176,0.159772 -0.318618,0.207488 -0.14178,0.0578937 -0.307799,0.0922165 -0.461268,0.0827598 -0.119795,-0.00738189 -0.25972,-0.0448031 -0.328118,-0.152433l-0.00537008 -0.00845276 0.00309843 -0.00952362c0.00632283,-0.0194449 0.0108504,-0.0393976 0.0136417,-0.0596496 0.0151102,-0.109724 -0.0214724,-0.224354 -0.0642795,-0.324055 -0.0529764,-0.123382 -0.122067,-0.241535 -0.184335,-0.360528 -0.111425,-0.212933 -0.222701,-0.458217 -0.155252,-0.702776 0.0225354,-0.0817087 0.0653346,-0.152331 0.140425,-0.195071 0.136197,-0.0775197 0.334157,-0.0353307 0.476602,0.00366929 0.0721063,0.0197441 0.14311,0.0428898 0.214437,0.0651969 0.055689,0.0174173 0.11511,0.0363346 0.172646,0.0464961z" />
   <path
   id="_47427840"
   class="fil2"
   d="M4.72141 2.86844c0.751165,-0.0343504 0.845602,1.00758 0.482618,1.37061 -0.295488,0.304433 -0.918728,0.387118 -1.07491,0.141335 0.135031,-0.415098 -0.53139,-0.935075 -0.389945,-1.44793 0.119331,-0.432669 0.712543,-0.110618 0.98224,-0.0640197z" />
   <path
   id="_47426768"
   class="fil19"
   d="M4.61909 2.85075c0.751161,-0.0343465 0.901272,1.07465 0.473575,1.43336 -0.295484,0.304429 -0.80737,0.342059 -0.963555,0.0962756 -0.37787,-0.565886 -0.302142,-0.90713 -0.0963583,-1.50862 0.182433,-0.184579 -0.079685,0.0395866 0.167126,-0.0934685 0.173843,0.0300512 0.245366,0.0424173 0.419213,0.0724567z" />
   <path
   id="_47410848"
   class="fil20"
   d="M4.55011 2.94359c0.00394488,0.00185433 0.00782283,0.00374803 0.0116181,0.00564961 0.453953,0.228031 0.363437,1.04797 0.185063,1.42677l-1.9685e-005 -1.1811e-005c-0.00340551,0.00725591 -0.00686614,0.0143543 -0.0103189,0.0212402l-0.014874 -0.00743701c0.00344488,-0.00684646 0.00684252,-0.0138307 0.0101535,-0.0208701l0 -3.54331e-005c0.174161,-0.369882 0.267319,-1.18137 -0.177441,-1.40479 -0.00374409,-0.00187402 -0.0075,-0.00370866 -0.0112205,-0.00545669l0.00703937 -0.015063z" />
   <g
   id="g5362">
    <path
   id="_47414672"
   class="fil1"
   d="M4.45769 4.87206c-0.0290157,-0.136091 0.0163465,-0.325185 0.167752,-0.365528 0.0212598,-0.00566929 0.043185,-0.00757874 0.0651024,-0.00567717 0.126303,0.0109488 0.210358,0.134252 0.234807,0.248945 0.0290157,0.13611 -0.0163425,0.325213 -0.167768,0.365547 -0.0212362,0.00566142 -0.0431299,0.00757874 -0.0650157,0.00568898 -0.12635,-0.0109252 -0.210425,-0.134264 -0.234878,-0.248976z" />
    <ellipse
   id="_47413728"
   class="fil5"
   transform="matrix(-0.71057 -3.33288 3.94448 -1.05111 4.69151 4.81094)"
   rx="0.084752"
   ry="0.0536496" />
    <path
   id="_47412424"
   class="fil6"
   d="M4.74159 5.05563c0.136157,-0.0362717 0.194819,-0.14511 0.161567,-0.301091 -0.033252,-0.155976 -0.0795551,-0.259622 -0.196398,-0.2285 -0.151382,0.0403228 -0.101327,0.565862 0.0348307,0.529591z" />
   </g>
   <path
   id="_47453680"
   class="fil1"
   d="M3.67848 4.49914c0.238886,0.147287 0.51061,0.233366 0.749839,0.380862l0.0212126 0.0130866 -0.015 0.0199055c-0.129555,0.171882 -0.50013,0.673362 -0.723181,0.659374l-0.00566142 -0.000350394 -0.00482677 -0.00297638c-0.117819,-0.0725787 -0.235642,-0.145154 -0.353469,-0.217736l-0.013126 -0.00808268 0.00267323 -0.015185c0.0430866,-0.244783 0.128776,-0.441882 0.235217,-0.663378 0.024874,-0.051748 0.0498425,-0.103449 0.0737638,-0.15565l0.0106929 -0.0233425 0.0218661 0.0134724z" />
   <path
   id="_47456616"
   class="fil1"
   d="M2.99639 6.27317c0.00459843,-0.230035 0.0509016,-0.470961 0.181992,-0.662461l0.00744094 -0.0108622 0.013126 0.00107087c0.132984,0.0108307 0.265969,0.021689 0.398953,0.0325315l0.00832677 0.000677165 0.00589764 0.00590945c0.208224,0.208756 -0.131146,0.435736 -0.218579,0.609244 -0.0545433,0.103941 -0.110827,0.207075 -0.165362,0.311083l-0.0179921 0.0343307 -0.0211417 -0.0324843c-0.0660591,-0.101508 -0.122748,-0.174799 -0.188976,-0.276193l-0.00382677 -0.00585827 0.000141732 -0.00698819z" />
   <path
   id="_47455544"
   class="fil3"
   d="M3.19709 5.62355c-0.141484,0.206484 -0.184264,0.464787 -0.188189,0.661996 0.0660984,0.101492 0.133091,0.162783 0.199193,0.26428 0.0917008,-0.174929 0.119528,-0.223736 0.16528,-0.311012 0.0905394,-0.179587 0.414224,-0.390665 0.222673,-0.582756 -0.132984,-0.0108346 -0.265969,-0.0216693 -0.398957,-0.0325079z" />
   <path
   id="_47454472"
   class="fil2"
   d="M3.28902 5.64928c-0.141484,0.206484 -0.20422,0.439484 -0.20815,0.636693 0.0661024,0.101492 0.061122,0.162354 0.127224,0.26385 0.0917008,-0.174929 0.119528,-0.223736 0.16528,-0.311012 0.0905394,-0.179587 0.414224,-0.390665 0.222673,-0.582756 -0.132984,-0.0108346 -0.174043,0.00405906 -0.307028,-0.00677559z" />
   <path
   id="_48910352"
   class="fil4"
   d="M3.28902 5.64928c-0.141484,0.206484 -0.20422,0.439484 -0.20815,0.636693 0.0661024,0.101492 0.061122,0.162354 0.127224,0.26385 0.0917008,-0.174929 0.119528,-0.223736 0.16528,-0.311012 0.0905394,-0.179587 0.294031,-0.522524 0.102484,-0.714614 -0.132988,-0.0108386 -0.0538543,0.135917 -0.186839,0.125083z" />
   <path
   id="_49648784"
   class="fil1"
   d="M3.24569 6.47332c-0.00577559,0.0355984 0.0748307,-0.00551969 0.0762953,0.0305591 0.00264567,0.0651654 0.0315906,0.119512 0.0319685,0.173709 0.000566929,0.0841378 -0.0134094,0.1025 -0.0871496,0.141921 -0.0122992,0.00657087 -0.065437,0.0338937 -0.0691693,0.0470984 -0.00554724,0.0196142 -0.0122323,0.0389291 -0.0208189,0.057437 -0.0316339,0.068189 -0.0827874,0.110291 -0.153618,0.134437 -0.110055,0.0375157 -0.255894,0.0269646 -0.369071,0.0119016 -0.0585039,-0.0077874 -0.134622,-0.0270157 -0.165913,-0.0826063 -0.0381575,-0.0677913 0.0101811,-0.151878 0.0501811,-0.206705 0.0434094,-0.0595 0.0948465,-0.115244 0.146787,-0.167382 0.0595827,-0.0598031 0.122236,-0.116657 0.185843,-0.172134 0.0243386,-0.0212283 0.0488622,-0.0422362 0.0733465,-0.0632992 0.0151378,-0.0130236 0.0307992,-0.0261654 0.0452874,-0.0398937 0.0213346,-0.0202165 0.049815,-0.0449882 0.0815276,-0.0406299 0.0207717,0.00285039 0.0379961,0.0173661 0.0535906,0.030315 0.0216417,0.0179685 0.0418543,0.0341575 0.0661102,0.0487402 0.0315669,0.0189764 -0.040622,0.0593425 0.00273228,0.0707638l0.0241378 0.0063622 0.0279331 0.0194055z" />
   <path
   id="_48802528"
   class="fil3"
   d="M3.00428 6.3538c-0.0549173,0.0520433 -0.316504,0.258591 -0.448713,0.439807 -0.12276,0.168264 -0.0410906,0.236744 0.101362,0.255705 0.39598,0.0527008 0.483299,-0.0578819 0.520248,-0.188488 0.00590551,-0.0208898 0.0432953,-0.0406614 0.0796063,-0.060063 0.0683465,-0.0365354 0.0764094,-0.0489016 0.0759094,-0.123024 -0.000708661,-0.104165 -0.0904646,-0.0903504 -0.0664921,-0.238063 -0.0352008,0.0503976 -0.0502008,-0.0229724 -0.0862677,-0.0446614 -0.0990551,-0.0595433 -0.097878,-0.114913 -0.175654,-0.0412126z" />
   <path
   id="_48908360"
   class="fil4"
   d="M3.0793 6.40222c-0.0549016,0.0520315 -0.339854,0.210177 -0.472047,0.391378 -0.122744,0.168248 -0.092752,0.236748 0.049685,0.255705 0.39598,0.052685 0.483299,-0.0578819 0.520248,-0.188488 0.00590551,-0.0208898 0.0432953,-0.0406614 0.0796063,-0.060063 0.0683465,-0.0365354 0.0764094,-0.0489016 0.0759094,-0.123024 -0.000708661,-0.104165 -0.0904646,-0.0903504 -0.0664921,-0.238063 -0.0352008,0.0503976 -0.0502008,-0.0229882 -0.0862677,-0.0446614 -0.0990394,-0.0595394 -0.0228858,-0.0664685 -0.100642,0.00721654z" />
   <path
   id="_48796512"
   class="fil1"
   d="M3.18545 6.82931c0.0197283,-0.0723031 -0.0324843,-0.17865 -0.0716654,-0.237079 -0.0393858,-0.0587362 -0.112591,-0.140732 -0.186098,-0.153224l-0.0466772 -0.00793307 0.0135709 -0.0461654 0.000271654 -0.000724409c0.0980709,-0.261654 0.565083,-0.0111417 0.447803,0.260138l-0.0036378 0.00840945 -0.00861417 0.00313386c-0.0105315,0.00383071 -0.0188071,0.00977559 -0.025063,0.019126 -0.0107047,0.016 -0.0139724,0.0398386 -0.0163504,0.0585906 -0.00698819,0.0551142 -0.0126496,0.112362 -0.0799016,0.12235l-0.0322047 0.0047874 0.00856693 -0.0314094z" />
   <path
   id="_49480488"
   class="fil5"
   d="M3.20596 6.83491c0.0358425,-0.131362 -0.13261,-0.392705 -0.274713,-0.416858l-0.0230984 -0.0039252 0.0066063 -0.0224764c0.0601929,-0.160591 0.280807,-0.100945 0.378319,0.0317756 0.0443189,0.0603228 0.0632205,0.13576 0.030063,0.212465 -0.0932913,0.0339252 -0.0188071,0.184406 -0.117177,0.19902z" />
   <path
   id="_48893272"
   class="fil6"
   d="M3.20596 6.83491c0.00348425,-0.182949 -0.112217,-0.34202 -0.237098,-0.40537 0.0593661,-0.201984 0.236854,-0.125016 0.324213,-0.00611417 0.044311,0.060315 0.0632205,0.13576 0.030063,0.212465 -0.0932913,0.0339252 -0.0188071,0.184406 -0.117177,0.19902z" />
   <path
   id="_47451560"
   class="fil4"
   d="M3.80338 4.53976c-0.115878,0.252831 -0.347551,0.457803 -0.406622,0.793465 0.117823,0.0725709 0.123768,0.0762362 0.241587,0.148815 0.189717,0.0118898 0.50361,-0.38502 0.70363,-0.650382 -0.235957,-0.145484 -0.302638,-0.146409 -0.538594,-0.291898z" />
   <path
   id="_47452888"
   class="fil2"
   d="M3.66656 4.51847c-0.115878,0.252831 -0.248189,0.477854 -0.30726,0.813512 0.117823,0.0725748 0.235646,0.145154 0.353465,0.217732 0.189717,0.0118898 0.50361,-0.38502 0.70363,-0.650382 -0.235957,-0.145484 -0.513878,-0.235378 -0.749835,-0.380862z" />
   <path
   id="_48802624"
   class="fil3"
   d="M3.66656 4.51847c-0.115878,0.252831 -0.248189,0.477854 -0.30726,0.813512 0.117823,0.0725748 0.179441,0.110531 0.29726,0.18311 0.189717,0.0118898 0.40228,-0.46326 0.602299,-0.728622 -0.235957,-0.145488 -0.356343,-0.122516 -0.592299,-0.268z" />
   <path
   id="_47441936"
   class="fil1"
   d="M3.33385 5.73315c-0.0878386,-0.0324803 -0.172909,-0.120583 -0.184319,-0.218138 -0.00611024,-0.0522717 0.0068622,-0.0858661 0.0389331,-0.12489 0.0549252,-0.0668031 0.130402,-0.108276 0.219957,-0.115307 0.166524,-0.0130748 0.339996,0.0985591 0.383713,0.2595 0.0185866,0.0684803 0.017748,0.0812677 -0.0253622,0.130953 -0.110106,0.126827 -0.278358,0.13461 -0.432921,0.0678819z" />
   <path
   id="_47440832"
   class="fil5"
   d="M3.76855 5.53394c-0.0616772,-0.209476 -0.359862,-0.323539 -0.534996,-0.158941 -0.0562992,0.0529213 -0.0775,0.105567 -0.0498819,0.18111 0.023874,0.065315 0.0810276,0.127504 0.15861,0.155937 0.111587,0.0483504 0.274287,0.0722402 0.390799,-0.0436693 0.0459055,-0.0456614 0.0537835,-0.072189 0.0354685,-0.134437z" />
   <path
   id="_47439728"
   class="fil21"
   d="M3.76855 5.53394c-0.0616654,-0.209476 -0.273665,-0.305504 -0.448791,-0.140906 -0.0605118,0.056878 -0.100276,0.274012 0.0225236,0.319012 0.111587,0.0483504 0.274287,0.0722402 0.390799,-0.0436693 0.0459055,-0.0456614 0.0537874,-0.072189 0.0354685,-0.134437z" />
   <path
   id="_48908576"
   class="fil6"
   d="M3.67567 5.43225c-0.0616654,-0.209472 -0.180799,-0.203819 -0.355913,-0.0392205 -0.0605039,0.0568701 -0.100276,0.274012 0.0225236,0.319012 0.283654,0.122902 0.391657,-0.0817913 0.33339,-0.279791z" />
   <path
   id="_47405200"
   class="fil1"
   d="M4.96325 5.09452c-0.0214567,-0.070689 -0.0610984,-0.138886 -0.12561,-0.17811 -0.0483346,-0.0293898 -0.106232,-0.0386417 -0.160772,-0.0225354 -0.101295,0.0299134 -0.148205,0.127299 -0.14602,0.227433l0.000503937 0.0232165 -0.0231693 -0.00153937c-0.364236,-0.0242047 -0.726953,-0.0710315 -1.09119,-0.0952205l-0.0300906 -0.00199606 0.0119921 -0.0276732c0.0276496,-0.0637874 0.0625394,-0.126366 0.0981457,-0.186028 0.0424055,-0.0710591 0.0879685,-0.140516 0.135213,-0.208445 0.0438819,-0.0630984 0.0894724,-0.125161 0.136803,-0.185717 0.0408504,-0.0522559 0.0832559,-0.103988 0.12802,-0.152953l0.00770866 -0.00843307 0.0112874 0.00177953c0.111614,0.0175669 0.223012,0.0364449 0.334783,0.0530236 0.162866,0.0241575 0.331094,0.0452087 0.495913,0.044689 0.13139,-0.000413386 0.280354,-0.0150748 0.398803,-0.0760748l0.0102402 -0.00527559 0.0100118 0.00570079c0.0279252,0.0159016 0.0562323,0.0311102 0.084248,0.0468465 0.0729606,0.0409803 0.135083,0.0828701 0.196102,0.140799 0.0911378,0.0865276 0.167772,0.194291 0.234728,0.300071l0.0265157 0.0418898 -0.048626 -0.00966929c-0.202736,-0.0403031 -0.516996,0.151205 -0.660799,0.283685l-0.0249134 0.0229488 -0.00983465 -0.0324134z" />
   <path
   id="_47404096"
   class="fil2"
   d="M5.15531 4.31883c0.160307,0.0912835 0.290181,0.137075 0.507634,0.48061 -0.213571,-0.0424567 -0.534717,0.155657 -0.67935,0.288898 -0.102024,-0.336134 -0.480555,-0.267224 -0.474,0.0334252 -0.334307,-0.0222165 -0.756874,-0.0730197 -1.09119,-0.0952205 0.0895945,-0.206705 0.333799,-0.551626 0.494362,-0.727252 0.433843,0.0682795 0.948217,0.171114 1.24254,0.0195394z" />
   <path
   id="_79455152"
   class="fil22"
   d="M5.05466 4.3588c0.160307,0.0912835 0.236661,0.10089 0.454114,0.444425 -0.209634,0.0303622 -0.380543,0.151878 -0.525177,0.285118 -0.102024,-0.336134 -0.480555,-0.267224 -0.474,0.0334252 -0.334307,-0.0222165 -0.756874,-0.0730197 -1.09119,-0.0952205 0.0895945,-0.206705 0.333799,-0.551626 0.494362,-0.727252 0.433843,0.0682795 0.808803,0.148701 1.14189,0.0595039z" />
   <path
   id="_47390672"
   class="fil23"
   d="M3.86713 1.64476c-0.0936811,0.0112362 -0.178232,0.0414528 -0.255358,0.104559 -0.0596457,0.0488189 -0.1045,0.11163 -0.161957,0.160488 -0.0157441,0.0133898 -0.0324528,0.0253504 -0.0505709,0.0351339 -0.0275276,0.0154213 -0.109831,0.0626535 -0.142075,0.0418661 -0.0266654,-0.0171929 -0.0520315,-0.113098 -0.0627874,-0.144315l-0.0230551 -0.0669291 -0.0194252 0.0678898c-0.0460827,0.161087 -0.0347205,0.26278 0.105291,0.311866 -0.0859764,0.0900669 -0.0652126,0.207811 0.0072126,0.315417l0.0207992 0.0309016 0.0170157 -0.0331614c0.0152559,-0.0297323 0.0289567,-0.061248 0.0458071,-0.089878 0.0167441,-0.0284646 0.0378819,-0.0520906 0.0616929,-0.0723661l-0.000925197 0.0017126 0.0255827 0.00984646c0.167181,0.0643425 0.347606,0.130654 0.486921,-0.0289528 0.148827,-0.1705 0.033189,-0.504984 0.216008,-0.605252 0.0830079,-0.0125197 0.132307,0.118256 0.119811,0.190732l-0.0118307 0.0685945 0.048748 -0.045878c0.0251654,-0.023685 0.101083,-0.0559685 0.133528,-0.0710315 0.0388858,-0.0180394 0.114398,-0.0499646 0.145173,-0.0789252l0.00740157 -0.0069685 0.000165354 -0.0105984c0.00120866,-0.0775276 -0.0553346,-0.373114 -0.092874,-0.434559 -0.0115827,-0.0189567 -0.0272953,-0.0337795 -0.0481063,-0.0393425 -0.0717244,-0.0191732 -0.167067,0.0940787 -0.211878,0.14302 -0.0265866,0.0290394 -0.122752,0.141386 -0.16215,0.137654 -0.077874,-0.00739764 -0.101933,-0.124291 -0.11198,-0.189799l-0.00805512 -0.0525472 -0.0314252 0.0408661c-0.0429055,0.055811 -0.073063,0.124122 -0.0733701,0.197807 -0.00015748,0.0387283 0.0083937,0.0784646 0.0266654,0.11215z" />
   <path
   id="_47389416"
   class="fil24"
   d="M4.55787 1.72892c0.00106299,-0.0681614 -0.0541142,-0.363492 -0.0891732,-0.420878 -0.0875079,-0.143252 -0.300461,0.262154 -0.405209,0.252217 -0.0554685,-0.00526772 -0.108185,-0.052752 -0.132307,-0.210051 -0.0972795,0.126516 -0.0776811,0.25572 -0.0214173,0.314862 -0.314433,0.0197402 -0.351492,0.221031 -0.500098,0.301268 -0.185504,0.103925 -0.183972,0.0362913 -0.236319,-0.115654 -0.052748,0.18437 -0.0182638,0.258043 0.131858,0.293681 -0.120972,0.0895512 -0.0896811,0.212795 -0.0226575,0.312374 0.054374,-0.105965 0.0625039,-0.164547 0.260776,-0.257248 -0.0357598,0.0314055 -0.0874055,0.0696457 -0.101524,0.0956417 0.173685,0.0668543 0.335925,0.122843 0.463075,-0.0228307 0.145689,-0.166902 0.0221969,-0.505063 0.225327,-0.611906 0.101272,-0.0193228 0.164677,0.127398 0.148972,0.218476 0.0431929,-0.0406496 0.235504,-0.109303 0.278697,-0.149953z" />
   <path
   id="_47387488"
   class="fil25"
   d="M4.55787 1.72892c0.00106299,-0.0681614 -0.0692795,-0.310941 -0.104335,-0.368327 -0.0875039,-0.143244 -0.307244,0.248449 -0.411988,0.238512 -0.0554685,-0.00526378 -0.119256,-0.0849921 -0.110366,-0.248898 -0.0972795,0.126516 -0.0300394,0.272197 0.0262283,0.331339 -0.314433,0.0197402 -0.383524,0.25652 -0.53213,0.336752 -0.185504,0.103925 -0.252563,-0.00795669 -0.251933,-0.167614 -0.052748,0.18437 -0.0182638,0.258043 0.131858,0.293681 -0.120972,0.0895512 -0.0896811,0.212795 -0.0226575,0.312374 0.054374,-0.105965 0.0625039,-0.164547 0.260776,-0.257248 -0.0357598,0.0314055 -0.0874055,0.0696457 -0.101524,0.0956417 0.173685,0.0668543 0.335925,0.122843 0.463075,-0.0228307 0.145689,-0.166902 0.0221969,-0.505063 0.225327,-0.611906 0.101272,-0.0193228 0.164677,0.127398 0.148972,0.218476 0.0431929,-0.0406496 0.235504,-0.109303 0.278697,-0.149953z" />
   <path
   id="_47386696"
   class="fil26"
   d="M3.90487 2.2723c-0.127146,0.145673 -0.289386,0.089685 -0.463071,0.0228307 0.0141142,-0.0259961 0.0657638,-0.0642362 0.10152,-0.0956457 -0.198268,0.0927008 -0.206398,0.151287 -0.260772,0.257248 -0.0169449,-0.0251732 -0.0315984,-0.0518543 -0.0420945,-0.079126 0.028185,-0.12585 0.130646,-0.242276 0.301969,-0.207685 -0.048378,-0.0224961 -0.112709,-0.0956614 -0.117142,-0.151626 0.143126,0.150728 0.401972,0.254898 0.466996,-0.020874 0.0310433,-0.131661 0.0900512,-0.3145 0.283524,-0.441646 -0.0210945,0.0342559 -0.0388425,0.070811 -0.0535276,0.109 -0.191972,0.111413 -0.0736417,0.442831 -0.217402,0.607524z" />
   <path
   id="_47385624"
   class="fil1"
   d="M4.49827 1.5254c0.0754488,0.00843307 0.128874,0.0776614 0.122154,0.152496 -0.00677559,0.0752835 -0.0721693,0.131756 -0.147937,0.123276 -0.0754409,-0.00844094 -0.128878,-0.0776732 -0.122142,-0.152508 0.00676378,-0.0752756 0.0721654,-0.131764 0.147925,-0.123264z" />
   <ellipse
   id="_47384544"
   class="fil6"
   transform="matrix(2.29917 0.257329 -0.221693 2.46568 4.48538 1.66328)"
   rx="0.0488976"
   ry="0.0467717" />
   <path
   id="_47681184"
   class="fil1"
   d="M4.38863 1.59196c0.141512,0.00382677 0.249854,0.0326772 0.356528,0.130642 0.202465,0.185921 0.255634,0.621693 0.132728,0.861075 -0.0345827,0.0673898 -0.0592323,0.0965709 0.0188031,0.138496 0.0196063,0.0105315 0.0546496,0.0228858 0.0603386,0.0464016 0.00653937,0.0270591 -0.0261102,0.0537677 -0.0435709,0.070063 -0.157067,0.146606 -0.478693,0.140748 -0.674461,0.0994961 -0.131098,-0.027626 -0.265787,-0.0790157 -0.373157,-0.160476 -0.0250433,-0.0190039 -0.0873465,-0.0574016 -0.0885197,-0.0919606 -0.000952756,-0.0279921 0.0389213,-0.0655512 0.0558976,-0.0869646 0.0336102,-0.0423937 0.025252,-0.100469 0.0222283,-0.151134 -0.0207362,-0.347697 0.123614,-0.816197 0.530386,-0.855539l0.00140551 -0.000133858 0.0013937 3.54331e-005z" />
   <path
   id="_47680392"
   class="fil3"
   d="M4.7298 1.73933c0.204949,0.188205 0.239059,0.617465 0.127898,0.833988 -0.039315,0.0765827 -0.0644843,0.119043 0.0282638,0.16887 0.0556024,0.0298465 0.0702677,0.0254764 0.0120079,0.0798661 -0.189437,0.176811 -0.727622,0.158138 -1.01841,-0.0624803 -0.108417,-0.0822677 -0.093937,-0.0642441 -0.0285551,-0.146732 0.0343819,-0.0433425 0.0317992,-0.0880197 0.0271142,-0.166583 -0.0191102,-0.320421 0.108343,-0.792752 0.509909,-0.831594 0.132543,0.00359055 0.237374,0.0287953 0.341772,0.124665z" />
   <path
   id="_47678192"
   class="fil2"
   d="M4.7298 1.73933c0.204949,0.188205 0.239059,0.617465 0.127898,0.833988 -0.039315,0.0765827 -0.0644843,0.119043 0.0282638,0.16887 0.0556024,0.0298465 0.0702638,0.0254961 0.0120079,0.0798661 -0.309886,0.289244 -1.02263,-0.0589882 -0.916417,-0.192965 0.157925,-0.199201 -0.132319,-0.904295 0.503831,-0.965819 0.132539,0.00359055 0.14002,-0.019811 0.244417,0.0760591z" />
   <path
   id="_47677864"
   class="fil4"
   d="M4.80281 2.57178c-0.0393031,0.0765709 -0.00959843,0.120594 0.0831496,0.170402 0.0555906,0.0298543 0.0702638,0.0254961 0.0120079,0.0798661 -0.309886,0.289244 -1.02263,-0.059 -0.916417,-0.192965 0.157917,-0.199201 -0.132319,-0.904295 0.503831,-0.965819 0.392898,-0.0896693 0.442504,0.664874 0.317429,0.908516z" />
   <path
   id="_47377824"
   class="fil1"
   d="M4.85854 1.99703c0.11311,0.0988425 0.11752,0.104748 0.111689,0.257614 -0.00534252,0.140043 -0.0147953,0.150476 -0.136276,0.214421 -0.0509685,0.0268228 -0.101917,0.0536614 -0.152874,0.0804843 -0.155154,0.0817008 -0.169953,0.0649921 -0.324764,-0.00250787 -0.097437,-0.0425 -0.194862,-0.0850197 -0.292295,-0.12752 -0.143709,-0.0626969 -0.158886,-0.0469409 -0.147386,-0.216346 0.00161811,-0.023815 0.00323622,-0.047626 0.00484646,-0.0714409 0.00849213,-0.125217 0.0197835,-0.117039 0.128382,-0.159827 0.12787,-0.0503819 0.255736,-0.10076 0.383606,-0.151142 0.167201,-0.0658898 0.149693,-0.0677441 0.285185,0.0527205 0.0464882,0.0413307 0.0930394,0.0826102 0.139886,0.123543z" />
   <path
   id="_47376560"
   class="fil21"
   d="M4.8436 2.01412c-0.0426063,-0.0372205 -0.0942047,-0.0829331 -0.140024,-0.123665 -0.130496,-0.116028 -0.105638,-0.110098 -0.261783,-0.0485748 -0.127858,0.0503858 -0.255744,0.100764 -0.383606,0.15115 -0.100748,0.0397008 -0.106268,0.0255512 -0.114047,0.140232 -0.00161024,0.023815 -0.00322441,0.0476535 -0.00484252,0.0714488 -0.0106575,0.156854 -0.00249606,0.134528 0.133807,0.193996 0.0974291,0.0424961 0.194866,0.0850236 0.292295,0.127508 0.152803,0.0666378 0.158882,0.0802441 0.30511,0.00324409 0.0509567,-0.0268189 0.101921,-0.0536772 0.152874,-0.0804882 0.111453,-0.0586732 0.119039,-0.061 0.124157,-0.195197 0.00569291,-0.148941 0.00123228,-0.147744 -0.103941,-0.239654z" />
   <path
   id="_47374952"
   class="fil6"
   d="M4.80531 1.98052c-0.0425945,-0.0372205 -0.0559173,-0.0493307 -0.101736,-0.090063 -0.130496,-0.116028 -0.105638,-0.110098 -0.261783,-0.0485748 -0.127858,0.0503858 -0.255744,0.100764 -0.383606,0.15115 -0.100748,0.0397008 -0.106268,0.0255512 -0.114047,0.140232 -0.00161024,0.023815 -0.00322441,0.0476535 -0.00484252,0.0714488 -0.0106575,0.156854 -0.00249606,0.134528 0.133807,0.193996 0.0974291,0.0424961 0.194866,0.0850236 0.292295,0.127508 0.152803,0.0666378 0.158882,0.0802441 0.30511,0.00324409 0.0509567,-0.0268189 0.0911457,-0.048 0.142075,-0.0748031 0.113276,-0.0596181 0.0876535,-0.391201 -0.00727165,-0.474138z" />
   <ellipse
   id="_47373976"
   class="fil27"
   transform="matrix(2.348 0.262794 -0.226401 2.51804 4.65737 2.20131)"
   rx="0.0145512"
   ry="0.0885197" />
   <ellipse
   id="_47373032"
   class="fil27"
   transform="matrix(-2.348 -0.262794 -0.226401 2.51804 4.47742 2.17947)"
   rx="0.0145512"
   ry="0.0885197" />
   <ellipse
   id="_47372088"
   class="fil27"
   transform="matrix(-2.15008 -0.240642 -0.207317 2.30579 4.33447 2.17831)"
   rx="0.0145512"
   ry="0.0885197" />
   <ellipse
   id="_47371144"
   class="fil27"
   transform="matrix(-1.82348 -0.204088 -0.175825 1.95553 4.16895 2.18474)"
   rx="0.0145512"
   ry="0.0885197" />
   <ellipse
   id="_47370352"
   class="fil27"
   transform="matrix(1.82256 0.203985 -0.175737 1.95455 4.80078 2.21817)"
   rx="0.0145512"
   ry="0.0885197" />
   <path
   id="_47369216"
   class="fil1"
   d="M3.86049 2.1346c-0.00298819,-0.00400394 -0.00450787,-0.00855512 -0.00308661,-0.0174173 0.00479921,-0.0296732 0.0566024,-0.027378 0.0792598,-0.0275039l0.0114331 -6.69291e-005 0.00685433 0.00913386c0.0310157,0.041315 0.0232992,0.126791 -0.0108543,0.164488l-0.0051063 0.00564567 -0.00748425 0.00141732c-0.0267874,0.00509449 -0.0535984,-0.00388976 -0.0741654,-0.0211811l-0.00758268 -0.00638189 -0.000484252 -0.00990551c-0.00157874,-0.0328189 0.0178937,-0.0685354 0.0112165,-0.0982283z" />
   <path
   id="_47368032"
   class="fil4"
   d="M3.87195 2.23173c-0.00170079,-0.0354173 0.0217047,-0.068252 0.00906693,-0.108106 -0.00834252,-0.00890945 0.0276142,-0.0110866 0.0557717,-0.0112441 0.0224016,0.0298268 0.0196024,0.103461 -0.00951969,0.13561 -0.0222953,0.00424016 -0.0422874,-0.00530315 -0.0553189,-0.0162598z" />
   <path
   id="_47325160"
   class="fil1"
   d="M3.89004 2.10278c0.0309291,0.0133898 0.0350039,0.060311 0.0304843,0.0890039 -0.00467323,0.0299055 -0.0273346,0.0763189 -0.0653858,0.0598858 -0.0309173,-0.013374 -0.0350157,-0.0603031 -0.0305039,-0.0890039 0.00470472,-0.0298976 0.0273465,-0.0762992 0.0654055,-0.0598858z" />
   <ellipse
   id="_47324952"
   class="fil6"
   transform="matrix(0.521864 0.225592 -0.180385 1.14615 3.87259 2.17723)"
   rx="0.0488976"
   ry="0.0467717" />
   <path
   id="_47316352"
   class="fil1"
   d="M3.87274 3.42723c-0.0386339,0.166024 -0.094374,0.344571 -0.17074,0.493909 0.0098622,0.194409 -0.0317205,0.380673 -0.0572283,0.570409l-0.00140945 0.0104685 -0.00815354 0.00559449c-0.0987874,0.067752 -0.229504,0.0374528 -0.320965,0.100185l-0.0262677 0.0180039 -0.00669291 -0.0335669c-0.0911142,-0.456677 -0.179618,-0.673787 -0.0269843,-1.13436 0.0553189,-0.166921 0.110646,-0.333839 0.165972,-0.500752l0.00755906 -0.0228031 0.0208268 0.00961811c0.179472,0.0828543 0.36715,0.144697 0.546646,0.227579l0.0263543 0.0121654 -0.0171535 0.0241969c-0.0490748,0.0691929 -0.0830512,0.14952 -0.131764,0.21935z" />
   <path
   id="_47315168"
   class="fil3"
   d="M3.98728 3.19318c-0.0507126,0.0714961 -0.0837205,0.151657 -0.134445,0.223165 -0.0372205,0.161051 -0.0953661,0.349256 -0.172787,0.49878 0.011248,0.197319 -0.0355984,0.415772 -0.0566654,0.572453 -0.0940906,0.0645276 -0.226866,0.0356417 -0.320965,0.100185 -0.0901772,-0.451976 -0.179228,-0.664331 -0.027752,-1.12141 0.0552953,-0.166866 0.11065,-0.333846 0.165969,-0.500756 0.155823,0.071937 0.390835,0.155642 0.546646,0.227583z" />
   <path
   id="_47313984"
   class="fil2"
   d="M3.98728 3.19318c-0.0507126,0.0714961 -0.0837205,0.151657 -0.134445,0.223165 -0.0372205,0.161051 -0.0953661,0.349256 -0.172787,0.49878 0.011248,0.197319 -0.0355984,0.415772 -0.0566654,0.572453 -0.0940906,0.0645276 -0.133,0.0212559 -0.227102,0.0857992 -0.0901772,-0.45198 -0.191374,-0.626402 -0.0399213,-1.08346 0.0552913,-0.166843 0.135677,-0.335677 0.191,-0.502591 0.155823,0.0719409 0.28411,0.133913 0.439921,0.205854z" />
   <path
   id="_47176880"
   class="fil4"
   d="M3.89326 3.1267c-0.114665,0.161661 -0.175339,0.557476 -0.282732,0.764882 0.011248,0.197319 0.0339252,0.439319 0.0128583,0.596 -0.0940906,0.0645276 -0.133,0.0212559 -0.227102,0.0857992 -0.0901772,-0.45198 -0.191374,-0.626402 -0.0399213,-1.08346 0.0552913,-0.166843 0.135677,-0.335677 0.191,-0.502591 0.155823,0.0719409 0.190087,0.0674252 0.345898,0.13937z" />
   <path
   id="_47171576"
   class="fil1"
   d="M4.06572 3.2013c-0.0366063,0.111535 -0.136268,0.195772 -0.227622,0.252157 -0.0678465,0.0418701 -0.14278,0.0760945 -0.217705,0.100736 -0.0407835,0.0134173 -0.112102,0.0341575 -0.155134,0.0293386l-0.00494094 -0.000551181 -0.0042874 -0.00285039c-0.140768,-0.0935591 -0.201717,-0.244437 -0.228496,-0.413618l-0.00076378 -0.00487402 0.0010748 -0.00476378c0.0228228,-0.100496 0.0625,-0.197319 0.120583,-0.278815 0.157012,-0.220264 0.340083,-0.271972 0.536953,-0.0586496 0.0943386,0.102173 0.152728,0.229201 0.181063,0.368929l0.00135039 0.00663386 -0.0020748 0.00632677z" />
   <path
   id="_47170472"
   class="fil3"
   d="M4.04534 3.19289c-0.0262638,-0.129528 -0.0802677,-0.254354 -0.175008,-0.356972 -0.182276,-0.1975 -0.348732,-0.161933 -0.504705,0.056874 -0.0561339,0.0787598 -0.0946102,0.172681 -0.116772,0.270268 0.0247677,0.156504 0.0798819,0.305161 0.218114,0.397035 0.0901181,0.0100827 0.499559,-0.127047 0.57837,-0.367205z" />
   <path
   id="_47116080"
   class="fil2"
   d="M4.04534 3.19289c-0.0262638,-0.129528 -0.0802677,-0.254354 -0.175008,-0.356972 -0.182276,-0.1975 -0.265705,-0.110772 -0.421661,0.10802 -0.106535,0.149465 -0.14998,0.504315 0.0182992,0.616157 0.0901181,0.0100827 0.499559,-0.127047 0.57837,-0.367205z" />
   <path
   id="_47114808"
   class="fil4"
   d="M3.92022 3.18572c-0.00590157,-0.0501063 0.0448465,-0.247189 -0.0498937,-0.349807 -0.182276,-0.1975 -0.265705,-0.110772 -0.421661,0.10802 -0.106535,0.149465 -0.14998,0.504315 0.0182992,0.616157 0.0901181,0.0100827 0.374445,-0.134213 0.453256,-0.37437z" />
   <path
   id="_48869016"
   class="fil1"
   d="M3.50103 3.13555c-0.210244,0.101693 -0.481075,0.0861654 -0.677713,-0.0399449 -0.0280827,-0.0180079 -0.0529528,-0.0374331 -0.078874,-0.0582126 -0.0192323,-0.0154173 -0.042126,-0.0346811 -0.0687323,-0.0269016 -0.026126,0.00764567 -0.0346654,0.0343898 -0.0403701,0.0579252 -0.0079252,0.0326811 -0.0133346,0.067189 -0.0196063,0.100287 -0.137819,0.72637 -0.161614,2.0077 0.550118,2.45196l0.0105906 0.0066063 0.0123386 -0.00183858c0.238543,-0.0355157 0.456008,-0.120925 0.642197,-0.276272 0.230937,-0.192685 0.377264,-0.462551 0.481358,-0.740331 0.0609646,-0.162701 0.108701,-0.330988 0.149594,-0.499768 0.0456102,-0.188264 0.083,-0.378752 0.117311,-0.56937 0.0052874,-0.0293583 0.011937,-0.0590866 0.0163307,-0.0885079 0.00342913,-0.0229724 0.00533071,-0.0488425 -0.0139409,-0.0659213 -0.019248,-0.0170591 -0.044811,-0.0120748 -0.0673268,-0.0065 -0.0283465,0.00700787 -0.0562126,0.0153228 -0.0847323,0.0220512 -0.249823,0.0589567 -0.480587,0.0340945 -0.634669,-0.194783 -0.00673622,-0.0100197 -0.0131929,-0.0202087 -0.0193819,-0.0305669 -0.019063,-0.0319094 -0.0366654,-0.0644646 -0.0554803,-0.0964094 -0.0120512,-0.0204646 -0.0262795,-0.0438661 -0.052685,-0.0458898 -0.0268622,-0.00205906 -0.0467677,0.0214291 -0.0654016,0.0374567 -0.0309055,0.0265787 -0.0642244,0.047185 -0.100925,0.0649291z" />
   <path
   id="_48867392"
   class="fil10"
   d="M3.51578 3.16606c-0.188913,0.091374 -0.476232,0.108476 -0.710752,-0.0419291 -0.139764,-0.0896142 -0.118925,-0.14472 -0.156008,0.0508898 -0.150094,0.791098 -0.132587,2.00034 0.534772,2.4169 0.901004,-0.134154 1.1614,-0.94335 1.3621,-2.05823 0.0289567,-0.160886 0.0411299,-0.135205 -0.108539,-0.0998976 -0.224299,0.0529291 -0.492709,0.0553465 -0.670567,-0.20885 -0.00691339,-0.0102756 -0.0137165,-0.0209921 -0.0203583,-0.0320945 -0.121039,-0.202626 -0.0340197,-0.12187 -0.23065,-0.0267874z" />
   <path
   id="_48867296"
   class="fil28"
   d="M3.51578 3.16606c-0.188913,0.091374 -0.476232,0.108476 -0.710752,-0.0419291 -0.139764,-0.0896142 -0.118925,-0.14472 -0.156008,0.0508898 -0.150094,0.791098 -0.132587,2.00034 0.534772,2.4169 0.901004,-0.134154 1.0976,-0.938795 1.29827,-2.05368 0.0289606,-0.160862 0.0647913,-0.130961 -0.084878,-0.0956535 -0.251118,0.0240512 -0.442969,0.0381654 -0.630398,-0.21765 -0.00730709,-0.00998031 -0.0137165,-0.0209921 -0.0203583,-0.0320945 -0.121039,-0.202626 -0.0340197,-0.12187 -0.23065,-0.0267874z" />
   <path
   id="_48911064"
   class="fil1"
   d="M3.05834 3.84765c0.172972,0.0834764 0.34463,0.133657 0.530307,0.173583l0.0210787 0.0045315 -0.00432677 0.0230945c-0.0293465,0.156673 -0.078063,0.317772 -0.146622,0.459961l-0.0065 0.0134685 -0.0138386 -0.000716535c-0.126697,-0.00651575 -0.253386,-0.0130433 -0.380087,-0.0195394l-0.0177598 -0.000905512 -0.00237402 -0.0192402c-0.025189,-0.203949 -0.0270354,-0.409079 -0.0102992,-0.614453l0.00269685 -0.0331535 0.0277244 0.0133701z" />
   <path
   id="_48866120"
   class="fil5"
   d="M3.04943 3.86925c0.173374,0.0836614 0.336063,0.132398 0.534827,0.17513 -0.0273465,0.145965 -0.0751339,0.309657 -0.144551,0.453618 -0.126693,-0.00651969 -0.25339,-0.0130354 -0.380087,-0.0195354 -0.0241693,-0.19576 -0.0274961,-0.396752 -0.010189,-0.609213z" />
   <path
   id="_79454432"
   class="fil6"
   d="M3.1437 3.9118c0.186039,0.0745787 0.241791,0.0898465 0.440555,0.132579 -0.0273465,0.145965 -0.0751339,0.309657 -0.144551,0.453618 -0.126693,-0.00651969 -0.160445,-0.00826772 -0.287142,-0.0147677 -0.0241693,-0.19576 -0.0261654,-0.358969 -0.0088622,-0.571429z" />
   <path
   id="_48865712"
   class="fil6"
   d="M3.6067 3.88544c-0.0225236,-0.0054252 -0.396669,-0.0626654 -0.396669,-0.0626654 -0.114614,-0.134516 -0.0268976,-0.298043 0.0971575,-0.370803 0.100209,0.128224 0.241476,0.221646 0.341685,0.34987 -0.00333071,0.0300315 -0.0173937,0.0820551 -0.0421732,0.0835984z" />
   <path
   id="_48866096"
   class="fil10"
   d="M3.5172 3.38307c-0.15387,0.0744252 -0.38789,0.0883543 -0.578902,-0.0341496 -0.113839,-0.0729921 -0.0968661,-0.117874 -0.127067,0.0414488 -0.122252,0.644343 -0.107992,1.62926 0.435563,1.96854 0.733862,-0.109264 0.945953,-0.768346 1.10942,-1.67641 0.0235866,-0.131039 0.0335,-0.110122 -0.0884016,-0.0813661 -0.182689,0.0431102 -0.401307,0.0450787 -0.546173,-0.170106 -0.00562992,-0.00837008 -0.0111732,-0.0170984 -0.0165787,-0.0261417 -0.0985866,-0.165035 -0.0277126,-0.0992598 -0.187862,-0.0218189z" />
   <path
   id="_48654576"
   class="fil0"
   d="M3.5172 3.38307c-0.15387,0.0744252 -0.38789,0.0883543 -0.578902,-0.0341496 -0.113839,-0.0729921 -0.0968661,-0.117874 -0.127067,0.0414488 -0.122252,0.644343 -0.107992,1.62926 0.435563,1.96854 0.812902,-0.121028 1.0318,-1.7672 0.909902,-1.73845 -0.199728,0.000905512 -0.293146,-0.0107992 -0.435055,-0.189433 -0.00627165,-0.0078937 -0.0111732,-0.0170984 -0.0165787,-0.0261417 -0.0985866,-0.165035 -0.0277126,-0.0992598 -0.187862,-0.0218189z" />
   <path
   id="_49099640"
   class="fil29"
   d="M2.79431 4.5761c-0.0752717,-0.391098 -0.0490551,-0.838012 0.0169252,-1.18573 0.0301929,-0.159327 0.0132205,-0.114449 0.127067,-0.0414567 0.0677638,0.0434606 0.140957,0.0697559 0.214055,0.0822598 0.011378,0.00194882 0.022748,0.00356299 0.0340945,0.00485039 0.110638,0.0125866 0.219118,-0.0053189 0.306217,-0.0419016 0.00838189,-0.00351181 0.0165551,-0.0072126 0.0245315,-0.0110709 0.0125039,-0.00604331 0.0235945,-0.0120079 0.0334724,-0.017811 0.0616339,-0.0361811 0.075874,-0.0655394 0.0889961,-0.0627323l-0.012874 0.0658858 -0.00660236 0.0338504 -0.290016 1.48497 -0.0162283 0.0830394 -0.00967323 0.0495472 -0.00665748 0.0340669 -0.0503976 0.258067 -0.00747244 0.0382638 -0.00073622 0.0037874c-0.00581496,-0.00373622 -0.0115394,-0.00752756 -0.0172283,-0.0113937 -0.0604803,-0.0412087 -0.114075,-0.0907047 -0.161374,-0.147008 -0.0206417,-0.0245787 -0.0400945,-0.0504606 -0.0583976,-0.0775157 -0.00632677,-0.00934252 -0.0125079,-0.0188268 -0.0185551,-0.0284606 -0.0851654,-0.135437 -0.143543,-0.297626 -0.180787,-0.472299 -0.00291339,-0.0136575 -0.00570079,-0.0274055 -0.00835827,-0.0412047z" />
   <path
   id="_48907192"
   class="fil30"
   d="M3.99867 2.85798c-0.0470984,-0.0226496 -0.0919409,-0.0493031 -0.132827,-0.0803189 -0.0049252,-0.00374016 -0.0112953,-0.00823228 -0.0183543,-0.0132953 -0.00349213,0.00250394 -0.00692913,0.0051063 -0.0103071,0.00780709 0.0159685,0.0139961 0.0320394,0.0297205 0.0482008,0.0472362 0.016748,0.0181339 0.0323622,0.0370512 0.046878,0.056685 0.0243268,0.0329094 0.045563,0.0678268 0.0638661,0.104437 0.0115,-0.0348543 0.0235591,-0.070563 0.0361024,-0.107244 -0.0112953,-0.00488583 -0.0224882,-0.00998819 -0.0335591,-0.0153071z" />
   <path
   id="_47442728"
   class="fil2"
   d="M3.13828 6.72106c-0.0189921,0.223102 -0.0716102,0.285587 -0.193173,0.296756 -0.0529724,0.00485039 -0.108858,0.00190157 -0.161878,-0.00143701 -0.0423465,-0.00266142 -0.080937,-0.00815354 -0.0996969,-0.0215079 0.219492,0.00823228 0.38876,0.0219724 0.454748,-0.273811z" />
  </g>
  <rect
   class="fil17"
   x="0.703169"
   y="0.752209"
   width="6.46246"
   height="6.74311"
   id="rect5430" />
 </g>
</svg>