<?xml version="1.0" encoding="UTF-8" standalone="no"?>
<!-- Creator: CorelDRAW -->

<svg
   xmlns:dc="http://purl.org/dc/elements/1.1/"
   xmlns:cc="http://creativecommons.org/ns#"
   xmlns:rdf="http://www.w3.org/1999/02/22-rdf-syntax-ns#"
   xmlns:svg="http://www.w3.org/2000/svg"
   xmlns="http://www.w3.org/2000/svg"
   xmlns:xlink="http://www.w3.org/1999/xlink"
   xmlns:sodipodi="http://sodipodi.sourceforge.net/DTD/sodipodi-0.dtd"
   xmlns:inkscape="http://www.inkscape.org/namespaces/inkscape"
   xml:space="preserve"
   width="8.26772in"
   height="11.6929in"
   style="shape-rendering:geometricPrecision; text-rendering:geometricPrecision; image-rendering:optimizeQuality; fill-rule:evenodd; clip-rule:evenodd"
   viewBox="0 0 8.26772 11.6929"
   id="svg3680"
   version="1.1"
   inkscape:version="0.48.3.1 r9886"
   sodipodi:docname="SlippingKnight.svg"><metadata
   id="metadata3826"><rdf:RDF><cc:Work
       rdf:about=""><dc:format>image/svg+xml</dc:format><dc:type
         rdf:resource="http://purl.org/dc/dcmitype/StillImage" /><dc:title></dc:title></cc:Work></rdf:RDF></metadata><sodipodi:namedview
   pagecolor="#ffffff"
   bordercolor="#666666"
   borderopacity="1"
   objecttolerance="10"
   gridtolerance="10"
   guidetolerance="10"
   inkscape:pageopacity="0"
   inkscape:pageshadow="2"
   inkscape:window-width="1855"
   inkscape:window-height="1176"
   id="namedview3824"
   showgrid="false"
   inkscape:zoom="0.89703061"
   inkscape:cx="517.85124"
   inkscape:cy="737.53815"
   inkscape:window-x="65"
   inkscape:window-y="24"
   inkscape:window-maximized="1"
   inkscape:current-layer="svg3680" />
 <defs
   id="defs3682">
  <style
   type="text/css"
   id="style3684">
   
    .fil27 {fill:#4C4C4C}
    .fil7 {fill:#850000}
    .fil10 {fill:#A60000}
    .fil17 {fill:#B2B2B2}
    .fil13 {fill:#BABABA}
    .fil4 {fill:#CFA600}
    .fil8 {fill:#E57A7A}
    .fil5 {fill:#E5B700}
    .fil0 {fill:#E5E5E5}
    .fil6 {fill:#FFCC00}
    .fil1 {fill:#555555}
    .fil26 {fill:#6D6D6D}
    .fil12 {fill:#797979}
    .fil30 {fill:#7C7C7C}
    .fil11 {fill:#868686}
    .fil28 {fill:#939393}
    .fil15 {fill:#999999}
    .fil24 {fill:#9E9E9E}
    .fil31 {fill:#A1A1A1}
    .fil21 {fill:#A77968}
    .fil3 {fill:#AAAAAA}
    .fil2 {fill:#BBBBBB}
    .fil29 {fill:#BFBFBF}
    .fil25 {fill:#C9C9C9}
    .fil14 {fill:#D4D4D4}
    .fil9 {fill:#D93030}
    .fil19 {fill:#D9D9D9}
    .fil22 {fill:#FCB69C}
    .fil23 {fill:#FCCCBB}
    .fil32 {fill:#FED7C9}
    .fil33 {fill:#FFDBCF}
    .fil34 {fill:#CFA600;fill-rule:nonzero}
    .fil18 {fill:#555555;fill-rule:nonzero}
    .fil20 {fill:url(#id0)}
    .fil16 {fill:url(#id1)}
   
  </style>
  <linearGradient
   id="id0"
   gradientUnits="userSpaceOnUse"
   x1="2.26371"
   y1="2.43233"
   x2="4.02722"
   y2="1.29206">
   <stop
   offset="0"
   style="stop-color:#AAAAAA"
   id="stop3687" />
   <stop
   offset="1"
   style="stop-color:white"
   id="stop3689" />
  </linearGradient>
  <linearGradient
   id="id1"
   gradientUnits="userSpaceOnUse"
   xlink:href="#id0"
   x1="3.40975"
   y1="3.74127"
   x2="4.16078"
   y2="2.76874">
  </linearGradient>
 <linearGradient
   inkscape:collect="always"
   xlink:href="#id0"
   id="linearGradient3828"
   gradientUnits="userSpaceOnUse"
   x1="2.26371"
   y1="2.43233"
   x2="4.02722"
   y2="1.29206" />
  
  
 <linearGradient
   inkscape:collect="always"
   xlink:href="#id0"
   id="linearGradient3960"
   gradientUnits="userSpaceOnUse"
   x1="3.40975"
   y1="3.74127"
   x2="4.16078"
   y2="2.76874" /><linearGradient
   inkscape:collect="always"
   xlink:href="#id0"
   id="linearGradient3962"
   gradientUnits="userSpaceOnUse"
   x1="2.26371"
   y1="2.43233"
   x2="4.02722"
   y2="1.29206" />
   
   
   
   
   
   
   
   
   
   
   
   
   
   
   
   
   
   
   
   
   
   
   
   
   
   
   
   
   
   
   
   
   
   
   
   
   
   
   
   
   
   
   
   
   
   
   
   
   
   
   
   
   
   
   
   
   
   
   
   
   
   
   
   
   
   
   
   
   
   
   
   
   
   
   
   
   
   
   
   
   
   
   
   
   
   
   
   
   
   
   
   
   
   
   
   
   
   
   
   
   
   
   
   
   
   
   
   
   
   
   
   
   
   
   
   
   
   
   
   
   
   
   
   
   
   
   
   
   
  <linearGradient
   inkscape:collect="always"
   xlink:href="#id0"
   id="linearGradient4050"
   gradientUnits="userSpaceOnUse"
   x1="2.26371"
   y1="2.43233"
   x2="4.02722"
   y2="1.29206" /><linearGradient
   inkscape:collect="always"
   xlink:href="#id0"
   id="linearGradient4059"
   gradientUnits="userSpaceOnUse"
   x1="3.40975"
   y1="3.74127"
   x2="4.16078"
   y2="2.76874" /></defs>
 <g
   id="g4097"
   inkscape:export-filename="/var/www/grades/assets/images/knight_slip.png"
   inkscape:export-xdpi="90.075417"
   inkscape:export-ydpi="90.075417"><ellipse
     transform="translate(0.44668917,0.02627583)"
     style="fill:#e5e5e5"
     sodipodi:ry="0.462405"
     sodipodi:rx="1.94162"
     sodipodi:cy="5.7719798"
     sodipodi:cx="2.96065"
     ry="0.462405"
     rx="1.94162"
     cy="5.7719798"
     cx="2.96065"
     class="fil0"
     id="_64859888" /><path
     style="fill:#555555"
     inkscape:connector-curvature="0"
     d="M 3.66675,2.88898 C 3.6158091,3.020055 3.539821,3.136606 3.403789,3.189823 l -0.00372,0.00146 -0.00397,-4.094e-4 C 3.358524,3.1870136 3.299221,3.1545426 3.267099,3.1353416 3.206859,3.0993296 3.148445,3.0546886 3.098843,3.0050226 3.035107,2.9411956 2.975315,2.8576796 2.965749,2.7655066 l -4.488e-4,-0.00433 0.00175,-0.00399 c 0.047756,-0.108756 0.118185,-0.204102 0.216055,-0.27274 0.201299,-0.14122 0.343461,-0.067453 0.434988,0.145685 0.033996,0.079197 0.048949,0.166827 0.049772,0.252724 l 3.15e-5,0.00317 -0.00115,0.00296 z"
     class="fil1"
     id="_65960952" /><path
     style="fill:#bbbbbb"
     inkscape:connector-curvature="0"
     d="M 2.98214,2.76381 C 3.0274589,2.660601 3.095046,2.56633 3.192569,2.497936 3.380215,2.366294 3.512518,2.4260462 3.602939,2.636625 3.6354784,2.7124242 3.650561,2.79766 3.6513839,2.883007 3.6024351,3.008968 3.5296119,3.122901 3.3977819,3.174472 3.3208449,3.1665783 3.0043879,2.978228 2.9821399,2.763811 z"
     class="fil2"
     id="_66545576" /><path
     style="fill:#aaaaaa"
     inkscape:connector-curvature="0"
     d="M 2.98214,2.76381 C 3.027459,2.660601 2.98097,2.703546 3.078494,2.635153 3.26614,2.503515 3.477809,2.44259 3.568218,2.653153 3.600761,2.728929 3.576158,2.824114 3.576988,2.90946 3.5280372,3.035421 3.529612,3.122901 3.397781,3.174472 3.320844,3.1665783 3.004387,2.978228 2.982139,2.763811 z"
     class="fil3"
     id="_66409296" /><path
     style="fill:#cfa600"
     inkscape:connector-curvature="0"
     d="M 6.7374,1.83776 C 6.60575,2.062705 6.603183,2.297465 6.249833,2.129854 6.571372,2.446094 6.774707,2.220571 6.849609,2.034429 6.803589,1.953779 6.783416,1.918409 6.7374,1.83776 z"
     class="fil4"
     id="_66548968" /><path
     style="fill:#cfa600"
     inkscape:connector-curvature="0"
     d="M 6.59727,1.91584 C 6.368006,1.8593872 6.247211,1.674679 6.434506,1.437734 6.217274,1.5731 6.20736,1.958939 6.536183,2.003651 6.5565491,1.9743833 6.5769113,1.9451077 6.5972696,1.91584 z"
     class="fil4"
     id="_66670480" /><path
     style="fill:#e5b700"
     inkscape:connector-curvature="0"
     d="M 3.70828,1.7018 C 3.594544,1.6265441 3.6554139,1.442969 3.526158,1.338591 3.6032289,1.3348351 3.662571,1.4273627 3.735205,1.472036 3.6964845,1.375914 3.633276,1.251575 3.481756,1.248642 3.210973,1.2434176 2.949953,1.520957 2.745445,1.387587 2.948654,1.4117012 3.022091,1.273103 3.164894,1.16604 3.347981,1.028768 3.511244,0.897064 3.754288,0.958339 4.035351,1.029213 4.233977,1.328233 4.143631,1.573752 3.998513,1.616437 3.853395,1.6591181 3.708281,1.701799 z"
     class="fil5"
     id="_66543944" /><path
     style="fill:#ffcc00"
     inkscape:connector-curvature="0"
     d="M 3.81731,1.72084 C 3.7249006,1.619068 3.7352037,1.472037 3.526156,1.338592 3.6032269,1.3348361 3.662569,1.4273637 3.735203,1.472037 3.7496282,1.364104 3.6738802,1.149757 3.52236,1.146828 3.251577,1.1415996 2.949951,1.520958 2.745443,1.387588 2.948652,1.4117022 3.022089,1.273104 3.164892,1.166041 3.347979,1.028769 3.511242,0.897065 3.754286,0.95834 4.035349,1.029214 4.233975,1.328234 4.143629,1.573753 3.998511,1.616438 3.962428,1.678155 3.81731,1.72084 z"
     class="fil6"
     id="_66549192" /><path
     style="fill:#850000"
     inkscape:connector-curvature="0"
     d="M 1.85209,2.51752 C 1.794688,2.573914 1.753338,2.638366 1.734137,2.721162 1.719298,2.785201 1.721735,2.850985 1.708393,2.91391 1.704743,2.931154 1.699693,2.947938 1.692551,2.963981 1.682,2.988737 1.651031,3.063509 1.618429,3.066272 1.591468,3.068552 1.524374,3.017012 1.500846,3.001536 L 1.450409,2.968355 1.472661,3.02432 C 1.525472,3.1571 1.586126,3.219848 1.706244,3.180044 1.69511,3.285654 1.770476,3.354343 1.875445,3.389268 L 1.905587,3.3993 1.899797,3.36804 C 1.894617,3.340016 1.887443,3.311599 1.883903,3.283485 1.880383,3.25554 1.882343,3.228576 1.887853,3.202477 l 2.677e-4,0.00164 0.022406,-0.00668 c 0.146409,-0.043654 0.302787,-0.092878 0.313701,-0.273236 0.011661,-0.192665 -0.240689,-0.358276 -0.16948,-0.521224 0.049528,-0.051705 0.150953,0.010913 0.180276,0.066362 l 0.027748,0.052484 0.00901,-0.056378 c 0.00465,-0.029102 0.039095,-0.090453 0.053158,-0.117531 0.016854,-0.032437 0.051213,-0.093339 0.056906,-0.128925 l 0.00137,-0.00856 -0.00541,-0.00724 c -0.039575,-0.052976 -0.231756,-0.22311 -0.289118,-0.245043 -0.017697,-0.00676 -0.036031,-0.00859 -0.05298,-0.0015 -0.058421,0.024421 -0.063795,0.150567 -0.068555,0.206961 -0.00282,0.033461 -0.00922,0.159425 -0.037772,0.177429 -0.056437,0.035579 -0.133587,-0.030819 -0.1745,-0.069815 l -0.032815,-0.031291 7.48e-5,0.043969 c 1.023e-4,0.060039 0.015331,0.121878 0.053512,0.171795 0.020075,0.026232 0.046551,0.048606 0.076437,0.061835 z"
     class="fil7"
     id="_66138472" /><path
     style="fill:#e57a7a"
     inkscape:connector-curvature="0"
     d="M 2.36235,2.21446 C 2.3275547,2.1678813 2.136433,1.997212 2.082858,1.976728 1.949138,1.9255941 2.0165588,2.310283 1.940653,2.358149 1.900456,2.383488 1.840118,2.378893 1.741877,2.285247 1.7421053,2.421357 1.822653,2.498389 1.89146,2.509007 1.689429,2.686157 1.769279,2.841389 1.710736,2.972987 1.639622,3.13981 1.605417,3.093345 1.490909,3.018018 1.55135,3.16999 1.613019,3.201774 1.732952,3.14762 1.697924,3.27112 1.783263,3.338033 1.880401,3.370352 1.861909,3.270474 1.836873,3.226679 1.92246,3.060785 1.91468,3.100624 1.899724,3.153352 1.903736,3.178261 2.055846,3.132911 2.194563,3.08619 2.204527,2.92158 2.215944,2.732978 1.956373,2.568982 2.037873,2.391005 2.096184,2.325194 2.21544,2.3912333 2.252286,2.460914 2.260276,2.410961 2.354361,2.26441 2.362349,2.214457 z"
     class="fil8"
     id="_65761032" /><path
     style="fill:#d93030"
     inkscape:connector-curvature="0"
     d="M 2.36235,2.21446 C 2.3275547,2.1678813 2.15357,2.040598 2.100004,2.02011 1.966287,1.9689761 2.0219843,2.347949 1.946075,2.395811 1.9058781,2.4211535 1.821272,2.4005551 1.741878,2.285248 1.7421063,2.421358 1.863409,2.484693 1.932217,2.495315 1.730186,2.672465 1.806894,2.868339 1.748351,2.999941 1.6772368,3.16676 1.573666,3.126154 1.49091,3.0180197 c 0.060441,0.151972 0.12211,0.183756 0.242043,0.129602 -0.035028,0.1235 0.050311,0.190413 0.147449,0.222732 -0.018492,-0.099878 -0.043528,-0.143673 0.042059,-0.309567 -0.00778,0.039839 -0.022736,0.092567 -0.018724,0.117476 0.15211,-0.04535 0.290827,-0.092071 0.300791,-0.256681 0.011417,-0.188602 -0.248154,-0.352598 -0.166654,-0.530575 0.058311,-0.065811 0.177567,2.283e-4 0.214413,0.069909 0.00799,-0.049953 0.102075,-0.196504 0.110063,-0.246457 z"
     class="fil9"
     id="_66550256" /><path
     style="fill:#a60000"
     inkscape:connector-curvature="0"
     d="M 2.20453,2.92159 C 2.19457,3.086196 2.055853,3.132921 1.903743,3.178267 1.899733,3.153358 1.914684,3.100629 1.922464,3.060791 1.836881,3.226685 1.861917,3.27048 1.880405,3.370358 1.85585,3.362188 1.832055,3.351807 1.810759,3.338858 1.76422,3.239193 1.772747,3.107201 1.906456,3.041295 1.862066,3.051307 1.780507,3.035425 1.748358,2.999945 1.923531,3.027154 2.152586,2.962634 2.052815,2.742543 2.005181,2.637468 1.949768,2.483263 2.014165,2.29661 2.017765,2.330732 2.024826,2.364661 2.034811,2.398098 1.963228,2.57335 2.215799,2.735484 2.204531,2.92159 z"
     class="fil10"
     id="_85755120" /><path
     style="fill:#555555"
     inkscape:connector-curvature="0"
     d="M 5.1615,2.65193 C 5.1311417,2.889899 4.983941,3.09591 4.873969,3.302981 L 4.864129,3.321509 4.846444,3.310222 C 4.657771,3.189789 4.469094,3.069356 4.280413,2.948939 L 4.257358,2.934218 4.278905,2.917364 C 4.317413,2.887234 4.353889,2.854466 4.389629,2.821132 4.526751,2.693223 4.693605,2.502817 4.901149,2.529841 l 0.00389,5.079e-4 0.00339,0.00198 c 0.075358,0.044122 0.167035,0.055594 0.243646,0.100437 l 0.011051,0.00647 -0.00163,0.012693 z"
     class="fil1"
     id="_66045064" /><path
     style="fill:#aaaaaa"
     inkscape:connector-curvature="0"
     d="M 4.85687,3.2939 C 4.968464,3.083782 5.112626,2.88203 5.142295,2.649475 5.0681021,2.6060419 4.972842,2.5924711 4.898649,2.549042 4.664665,2.5185774 4.497503,2.770924 4.290834,2.932613 4.490948,3.060337 4.656759,3.166172 4.856869,3.2939 z"
     class="fil3"
     id="_85565072" /><ellipse
     style="fill:#555555"
     sodipodi:ry="0.31951001"
     sodipodi:rx="0.387371"
     sodipodi:cy="3.4114499"
     sodipodi:cx="4.5139699"
     ry="0.31951001"
     rx="0.387371"
     cy="3.4114499"
     cx="4.5139699"
     class="fil1"
     id="_86133896" /><ellipse
     style="fill:#868686"
     sodipodi:ry="0.30302599"
     sodipodi:rx="0.37088701"
     sodipodi:cy="3.4114499"
     sodipodi:cx="4.5139699"
     ry="0.30302599"
     rx="0.37088701"
     cy="3.4114499"
     cx="4.5139699"
     class="fil11"
     id="_85880208" /><path
     style="fill:#555555"
     inkscape:connector-curvature="0"
     d="M 4.9432,2.29022 C 4.9562394,2.187842 5.05235,2.088098 5.118294,2.013976 5.1802349,1.9443618 5.268164,1.847941 5.274365,1.750531 L 5.275755,1.72874 5.296338,1.73605 c 0.098323,0.034906 0.18978,0.088181 0.287984,0.123043 l 0.023933,0.0085 -0.0175,0.018398 C 5.498743,1.982743 5.524306,2.093318 5.489786,2.2110891 5.442944,2.370963 5.349861,2.5194791 5.207668,2.6106441 l -0.00202,0.0013 -0.0023,6.654e-4 C 5.168726,2.6226215 5.131222,2.6249995 5.095537,2.6202795 5.055659,2.6150095 5.016383,2.6006295 4.984427,2.5758545 4.892226,2.5043505 4.903289,2.3874375 4.943199,2.2902325 z"
     class="fil1"
     id="_66932432" /><path
     style="fill:#bbbbbb"
     inkscape:connector-curvature="0"
     d="M 5.19876,2.59676 C 5.361162,2.492634 5.439197,2.325071 5.473957,2.206453 5.5103192,2.08239 5.4812523,1.977189 5.5788,1.874626 5.4867685,1.8419528 5.382847,1.7842599 5.290812,1.751583 5.278375,1.946949 4.980343,2.111177 4.959288,2.294441 4.852532,2.551008 5.060619,2.636717 5.19876,2.59676 z"
     class="fil2"
     id="_85818976" /><path
     style="fill:#aaaaaa"
     inkscape:connector-curvature="0"
     d="M 5.19876,2.59676 C 5.361162,2.492634 5.391169,2.302902 5.425929,2.184284 5.462291,2.060221 5.411909,1.842064 5.509461,1.739501 5.417429,1.706828 5.382847,1.784261 5.290811,1.751584 5.278374,1.94695 4.980342,2.111178 4.959287,2.294442 4.852531,2.551009 5.060618,2.636718 5.198759,2.596761 z"
     class="fil3"
     id="_67397656" /><path
     style="fill:#555555"
     inkscape:connector-curvature="0"
     d="M 5.14058,2.72354 C 5.0598871,2.6524849 4.946537,2.556658 4.833867,2.551245 4.7739851,2.5483671 4.719237,2.5698395 4.66917,2.6011111 l -0.027504,0.017177 0.00233,-0.032342 c 0.018783,-0.260559 0.033591,-0.341209 0.311232,-0.379122 l 0.025335,-0.00346 -0.00731,0.024504 c -0.019551,0.065551 -0.031339,0.1405 -0.00104,0.204787 0.039567,0.083953 0.144858,0.132437 0.226543,0.164106 l 0.00913,0.00354 0.00126,0.00971 c 0.00519,0.040051 -0.014228,0.091968 -0.04852,0.114866 l -0.010535,0.00704 -0.00952,-0.00837 z"
     class="fil1"
     id="_85705800" /><path
     style="fill:#797979"
     inkscape:connector-curvature="0"
     d="M 5.15148,2.71117 C 4.963937,2.54604 4.833704,2.478922 4.660441,2.587135 4.6791379,2.327777 4.6931733,2.259253 4.957461,2.223163 4.896209,2.428478 4.974083,2.527336 5.192807,2.612135 5.196727,2.642438 5.182907,2.690182 5.15148,2.71117 z"
     class="fil12"
     id="_65372816" /><path
     style="fill:#868686"
     inkscape:connector-curvature="0"
     d="M 5.15148,2.71117 C 4.963937,2.54604 4.819082,2.473442 4.660441,2.587135 4.6755,2.378324 4.734413,2.248895 4.910252,2.49869 4.96235,2.572694 5.086465,2.591603 5.192807,2.612135 5.196727,2.642438 5.182907,2.690182 5.15148,2.71117 z"
     class="fil11"
     id="_67320728" /><path
     style="fill:#555555"
     inkscape:connector-curvature="0"
     d="M 4.11021,2.9139 C 3.972253,2.9033449 3.840911,2.8534276 3.70347,2.8428764 L 3.652226,2.8390064 3.673632,2.7922424 C 3.73579,2.6564154 3.834801,2.5424904 3.917876,2.4196514 l 0.016784,-0.024854 0.027433,0.012161 c 0.065087,0.028898 0.135543,0.043575 0.200815,0.072551 l 0.020303,0.00904 9.528e-4,0.022193 c 0.00516,0.121307 -0.00407,0.259894 -0.036689,0.377028 l -0.00789,0.02839 -0.02937,-0.00226 z"
     class="fil1"
     id="_66106376" /><path
     style="fill:#868686"
     inkscape:connector-curvature="0"
     d="M 4.11147,2.89747 C 3.973746,2.8869228 3.841935,2.8369779 3.704742,2.8264661 L 3.6770609,2.824348 3.68862,2.7991039 c 0.061189,-0.133701 0.160949,-0.249016 0.242906,-0.370213 l 0.00909,-0.013425 0.014811,0.00658 c 0.065047,0.028882 0.135539,0.043567 0.200783,0.072539 l 0.010972,0.00487 5.118e-4,0.012 c 0.005,0.117205 -0.00451,0.258504 -0.036091,0.371902 l -0.00427,0.015323 -0.015862,-0.00121 z"
     class="fil11"
     id="_66551600" /><path
     style="fill:#555555"
     inkscape:connector-curvature="0"
     d="m 4.2264031,4.3940275 c 0.121768,-0.18782 0.2435338,-0.3756381 0.3652987,-0.5634557 l 0.012669,-0.019536 0.014218,0.018442 c 0.051007,0.066156 0.1148693,0.1254029 0.1765102,0.1815757 0.066889,0.060948 0.1375665,0.1219575 0.1971112,0.1901416 0.049484,0.056647 0.097173,0.1258082 0.1039356,0.2028776 7.787e-4,0.00884 0.00101,0.017718 6.815e-4,0.026585 l -1.513e-4,0.00421 -0.00215,0.00362 c -0.027358,0.045988 -0.066386,0.091819 -0.1002439,0.1334429 -0.032728,0.040239 -0.071055,0.085064 -0.09749,0.1294969 l -0.00557,0.00936 -0.010793,-0.00146 C 4.6432219,4.6773529 4.4382339,4.5286968 4.2323985,4.4174946 l -0.015709,-0.00849 0.00971,-0.014978 z"
     class="fil1"
     id="_67409232" /><path
     style="fill:#bbbbbb"
     inkscape:connector-curvature="0"
     d="M 4.2402392,4.4029959 C 4.4495581,4.5160815 4.6502816,4.6616738 4.8826194,4.6929922 4.9265792,4.6191103 5.0364005,4.5039389 5.0803577,4.4300538 5.0879813,4.2238696 4.7657515,4.0473569 4.6055427,3.8395414 4.4764013,4.0387411 4.3693861,4.2037981 4.2402415,4.402994 z"
     class="fil2"
     id="_66300208" /><path
     style="fill:#aaaaaa"
     inkscape:connector-curvature="0"
     d="M 4.2402392,4.4029959 C 4.4495581,4.5160815 4.6502816,4.6616738 4.8826194,4.6929922 4.9265792,4.6191103 5.0024099,4.5813242 5.0463672,4.5074391 5.0539903,4.3012605 4.6728014,4.1237592 4.4919714,3.9844146 4.3628293,4.1836136 4.3693838,4.2038 4.2402398,4.4029966 z"
     class="fil3"
     id="_85900008" /><path
     style="fill:#555555"
     inkscape:connector-curvature="0"
     d="M 4.55946,2.57402 C 4.596503,2.785394 4.729803,3.024744 4.89994,3.158559 L 4.923019,3.176709 4.895507,3.186961 C 4.795783,3.22413 4.64231,3.302957 4.629857,3.423989 4.624397,3.477084 4.648428,3.525379 4.681483,3.565316 4.733518,3.628174 4.812936,3.677788 4.884849,3.714477 l 0.0096,0.0049 -6.378e-4,0.01076 c -0.028063,0.473677 -0.373913,0.76561 -0.777937,0.94963 l -0.018236,0.00831 -0.00463,-0.019496 C 4.0444749,4.464418 3.9504154,4.250422 3.7999864,4.100197 l -0.00725,-0.00724 0.00328,-0.00971 c 0.144575,-0.427528 0.28915,-0.855055 0.433724,-1.28259 l 3.74e-4,-0.0011 5.276e-4,-0.00104 c 0.044937,-0.089039 0.21465,-0.19126 0.30522,-0.236406 l 0.019776,-0.00986 0.00382,0.021764 z"
     class="fil1"
     id="_66978488" /><path
     style="fill:#bbbbbb"
     inkscape:connector-curvature="0"
     d="M 4.24536,2.80595 C 4.282234,2.7329028 4.424147,2.63623 4.543222,2.576871 4.5783362,2.77721 4.705935,3.026946 4.889753,3.171521 4.557229,3.295442 4.489548,3.531324 4.8773593,3.729167 4.84969,4.196218 4.5074223,4.483324 4.1090483,4.664773 4.0620089,4.466907 3.9687763,4.245462 3.8116353,4.088541 3.9562103,3.66101 4.1007853,3.233482 4.2453593,2.805951 z"
     class="fil2"
     id="_85576760" /><path
     style="fill:#aaaaaa"
     inkscape:connector-curvature="0"
     d="M 4.30507,2.95504 C 4.3419401,2.8819928 4.415893,2.71839 4.565901,2.684343 4.6517317,2.878776 4.705932,3.026945 4.889751,3.17152 4.557227,3.295441 4.489546,3.531323 4.8773573,3.729166 4.849688,4.196217 4.5074203,4.483323 4.1090463,4.664772 4.0620069,4.466906 3.9687743,4.245461 3.8116333,4.08854 3.9562083,3.661009 4.1604953,3.382568 4.3050703,2.95504 z"
     class="fil3"
     id="_66906024" /><path
     style="fill:#555555"
     inkscape:connector-curvature="0"
     d="M 3.88053,1.79267 C 3.942006,1.777694 4.003483,1.762717 4.064959,1.747753 l 0.015386,-0.00374 0.00436,0.015228 C 4.15087,1.990505 4.217032,2.221769 4.283201,2.453036 4.333177,2.627741 4.143118,2.6748 4.08924,2.505815 4.0157538,2.2751024 3.94225,2.0443944 3.86873,1.8136894 l -0.00537,-0.016839 0.017165,-0.00418 z"
     class="fil1"
     id="_66519616" /><path
     style="fill:#bababa"
     inkscape:connector-curvature="0"
     d="M 3.88446,1.80868 C 3.9579639,2.039385 4.031468,2.270101 4.10496,2.50081 4.1525309,2.650046 4.311251,2.611003 4.267358,2.457558 4.2011926,2.226298 4.135031,1.995034 4.068862,1.763778 4.0073896,1.7787426 3.945921,1.7937111 3.88446,1.8086796 z"
     class="fil13"
     id="_85795640" /><path
     style="fill:#e5e5e5"
     inkscape:connector-curvature="0"
     d="M 3.94157,1.81052 C 4.015078,2.041225 4.09957,2.253327 4.173062,2.484036 4.220637,2.633272 4.311251,2.611005 4.267357,2.45756 4.201192,2.2263 4.13503,1.995036 4.068861,1.76378 4.007389,1.778745 4.003034,1.795556 3.94157,1.81052 z"
     class="fil0"
     id="_85499976" /><path
     style="fill:#555555"
     inkscape:connector-curvature="0"
     d="M 3.19509,2.67762 C 3.378747,2.604978 3.583621,2.551187 3.782543,2.557927 3.938134,2.563207 4.087342,2.606025 4.210854,2.703301 4.346539,2.810167 4.426763,2.96336 4.468511,3.128557 4.513838,3.307903 4.506708,3.496746 4.438003,3.669277 4.335605,3.926395 4.11883,4.097305 3.856436,4.172911 l -0.00238,6.85e-4 -0.00248,-4.72e-5 C 3.496509,4.1672188 3.164068,4.0288248 2.925411,3.7629898 2.763427,3.5825568 2.660049,3.3593838 2.620604,3.1205568 l -0.00146,-0.00887 0.00667,-0.00604 c 0.038531,-0.034862 0.081634,-0.067197 0.123374,-0.098138 0.05289,-0.039213 0.10663,-0.07735 0.160268,-0.115528 0.053469,-0.038055 0.107031,-0.076067 0.159756,-0.115154 0.04085,-0.030291 0.083169,-0.06198 0.120886,-0.096102 l 0.00222,-0.002 0.00278,-0.0011 z"
     class="fil1"
     id="_64022664" /><path
     style="fill:#d4d4d4"
     inkscape:connector-curvature="0"
     d="M 3.20115,2.69295 C 3.878244,2.425127 4.32422,2.6249106 4.45253,3.132596 4.562939,3.569474 4.346215,4.014631 3.851873,4.157066 3.207869,4.145566 2.733353,3.702038 2.636873,3.117866 2.757625,3.008614 3.080408,2.802193 3.201156,2.692945 z"
     class="fil14"
     id="_66978280" /><path
     style="fill:#999999"
     inkscape:connector-curvature="0"
     d="M 3.20115,2.69295 C 3.840166,2.52873 4.22938,2.70445 4.4097,3.15095 4.520109,3.587832 4.3462118,4.014631 3.851869,4.15707 3.207865,4.14557 2.733349,3.702042 2.636869,3.11787 2.757621,3.008618 3.080404,2.802197 3.201152,2.692949 z"
     class="fil15"
     id="_65096704" /><path
     inkscape:connector-curvature="0"
     style="fill:url(#linearGradient4059)"
     d="M 3.20115,2.69295 C 3.840166,2.52873 4.22938,2.70445 4.4097,3.15095 4.520109,3.587832 4.359826,3.840415 4.187145,3.981277 3.543141,3.969777 3.099425,3.459635 3.050415,2.843817 3.171167,2.734565 3.0803993,2.8022028 3.201147,2.692955 z"
     class="fil16"
     id="_86752784" /><ellipse
     style="fill:#555555"
     sodipodi:ry="0.109807"
     sodipodi:rx="0.092015699"
     sodipodi:cy="0"
     sodipodi:cx="0"
     cy="0"
     cx="0"
     ry="0.109807"
     rx="0.092015699"
     transform="matrix(1.14669,0.448992,-0.448992,1.14669,2.18502,2.06464)"
     class="fil1"
     id="_85678400" /><ellipse
     style="fill:#b2b2b2"
     sodipodi:ry="0.096421301"
     sodipodi:rx="0.078629903"
     sodipodi:cy="0"
     sodipodi:cx="0"
     cy="0"
     cx="0"
     ry="0.096421301"
     rx="0.078629903"
     transform="matrix(1.14669,0.448992,-0.448992,1.14669,2.18502,2.06464)"
     class="fil17"
     id="_66935360" /><path
     style="fill:#555555;fill-rule:nonzero"
     inkscape:connector-curvature="0"
     d="M 3.3741,2.69765 C 3.611135,2.636465 3.837226,2.666024 4.032368,2.816343 4.20814,2.951737 4.358462,3.185138 4.468549,3.538516 L 4.45847,3.549445 C 4.34949,3.199622 4.195005,2.96315 4.021942,2.829843 3.831387,2.68306 3.6103,2.654272 3.378308,2.714154 L 3.374098,2.69765 z"
     class="fil18"
     id="_67277520" /><path
     style="fill:#555555"
     inkscape:connector-curvature="0"
     d="m 3.27892,2.412 c 0.028169,0.025835 0.059264,0.036791 0.096138,0.043543 0.025516,0.00467 0.063374,0.00697 0.081736,0.02702 C 3.47303,2.500291 3.47116,2.525559 3.466134,2.547295 3.457324,2.585417 3.436563,2.628303 3.419232,2.663236 3.338972,2.82498 3.158433,2.973342 3.014594,3.078468 2.907889,3.15646 2.8385,3.23394 2.70207,3.260129 2.663444,3.267559 2.593889,3.288857 2.560613,3.2609479 2.533231,3.2379789 2.533196,3.1842159 2.527593,3.1512349 2.519493,3.1036249 2.471058,3.0716519 2.435872,3.0436409 2.358923,2.9823569 2.281604,2.9216839 2.21236,2.8515429 2.023128,2.6598579 1.956762,2.4522599 2.053348,2.1921529 c 0.040193,-0.10824 0.090055,-0.183795 0.181681,-0.255276 0.091468,-0.071374 0.196575,-0.112642 0.313685,-0.098335 0.167669,0.020496 0.318165,0.148917 0.433598,0.263803 0.054244,0.05398 0.105827,0.110461 0.157669,0.16672 0.044764,0.048571 0.090248,0.098276 0.138933,0.142933 z"
     class="fil1"
     id="_64187616" /><path
     style="fill:#d9d9d9"
     inkscape:connector-curvature="0"
     d="M 3.26778,2.42415 C 3.381709,2.528634 3.532071,2.3987366 3.404469,2.65591 3.3245044,2.81706 3.139154,2.967016 3.004875,3.065162 2.896568,3.1443195 2.831513,3.218501 2.698966,3.243942 2.668057,3.249882 2.597746,3.270572 2.571214,3.248322 2.54973,3.230298 2.54843,3.175444 2.543852,3.148468 2.534762,3.095063 2.485915,3.062409 2.446147,3.030748 2.216856,2.848142 1.912529,2.618748 2.068804,2.197894 2.108028,2.092272 2.155851,2.019563 2.245178,1.949874 2.660776,1.625583 3.015965,2.193169 3.267778,2.42415 z"
     class="fil19"
     id="_66905640" /><path
     style="fill:#999999"
     inkscape:connector-curvature="0"
     d="M 3.22767,2.45611 C 3.341599,2.56059 3.532079,2.3987399 3.404469,2.655909 3.3245123,2.817051 3.139154,2.967015 3.004875,3.065161 2.896568,3.1443185 2.831513,3.2185 2.698966,3.243941 2.668057,3.249881 2.597746,3.270571 2.571214,3.248321 2.54973,3.230297 2.54843,3.175443 2.543852,3.148467 2.534762,3.095061 2.485915,3.062408 2.446147,3.030747 2.216856,2.848141 1.910836,2.613609 2.068804,2.197893 2.342835,1.476751 3.101644,2.227452 3.227674,2.45611 z"
     class="fil15"
     id="_65892736" /><path
     inkscape:connector-curvature="0"
     style="fill:url(#linearGradient4050)"
     d="M 3.22767,2.45611 C 3.341599,2.56059 3.532079,2.3987399 3.404469,2.655909 3.3245123,2.817051 3.13915,2.967023 3.004875,3.065161 2.652277,3.322929 2.730592,3.0767634 2.591753,3.0168854 2.435265,2.8446884 1.977757,2.6062474 2.135722,2.1905504 c 0.274035,-0.721118 0.965921,0.036902 1.09195,0.265559 z"
     class="fil20"
     id="_66058640" /><path
     style="fill:#555555"
     inkscape:connector-curvature="0"
     d="m 2.55554,3.36926 c 0.160524,0.022492 0.321043,0.044988 0.481563,0.067488 l 0.019689,0.00276 -0.00636,0.018839 C 2.960841,3.72365 2.980873,3.994347 2.966735,4.268772 l -6.653e-4,0.012961 -0.012756,0.00239 C 2.8659597,4.300517 2.7786047,4.316906 2.6912467,4.3333 l -0.00908,0.0017 -0.0062,-0.00686 C 2.477032,4.1077957 2.546713,3.6635117 2.53678,3.3861767 l -7.047e-4,-0.019646 0.019465,0.00273 z"
     class="fil1"
     id="_66097408" /><path
     style="fill:#999999"
     inkscape:connector-curvature="0"
     d="M 2.55325,3.38558 C 2.56349,3.671552 2.494974,4.103072 2.688215,4.317104 2.775561,4.30071 2.862916,4.284317 2.950266,4.267927 2.964605,3.989801 2.943616,3.723136 3.034805,3.453073 2.874281,3.430573 2.713766,3.408081 2.55325,3.385581 z"
     class="fil15"
     id="_65065168" /><path
     style="fill:#aaaaaa"
     inkscape:connector-curvature="0"
     d="M 2.63576,3.39714 C 2.645996,3.683112 2.568414,4.106057 2.761654,4.320085 2.849004,4.303691 2.862914,4.284313 2.950264,4.267924 2.964603,3.989798 2.943614,3.723133 3.034803,3.45307 2.874279,3.43057 2.796275,3.419641 2.63576,3.397141 z"
     class="fil3"
     id="_67344664" /><path
     style="fill:#555555"
     inkscape:connector-curvature="0"
     d="M 3.12464,3.49691 C 3.093361,3.592016 3.008317,3.663808 2.930376,3.711843 2.872486,3.74752 2.808561,3.77667 2.744648,3.797646 2.709857,3.809067 2.649022,3.826717 2.612325,3.822583 l -0.00422,-4.685e-4 -0.00365,-0.00243 C 2.484447,3.7398145 2.432549,3.6111015 2.409798,3.4667985 l -6.496e-4,-0.00416 9.213e-4,-0.00406 c 0.019516,-0.085697 0.053409,-0.168252 0.102988,-0.237728 0.134028,-0.187772 0.290189,-0.231776 0.45798,-0.049732 0.080406,0.087185 0.130138,0.195555 0.154228,0.314744 l 0.00115,0.00565 -0.00177,0.0054 z"
     class="fil1"
     id="_66101208" /><path
     style="fill:#999999"
     inkscape:connector-curvature="0"
     d="M 3.10726,3.48973 C 3.0849293,3.379242 3.0389372,3.272754 2.958193,3.185183 2.802839,3.016648 2.660854,3.046892 2.527717,3.2334232 2.4798,3.3005652 2.446934,3.3806472 2.427981,3.4638642 c 0.021039,0.133492 0.067965,0.260303 0.185811,0.338736 0.076854,0.00865 0.426126,-0.108091 0.493469,-0.31287 z"
     class="fil15"
     id="_86416928" /><path
     style="fill:#aaaaaa"
     inkscape:connector-curvature="0"
     d="M 3.10726,3.48973 C 3.0849293,3.379242 3.0389372,3.272754 2.958193,3.185183 2.802839,3.016648 2.736224,3.071738 2.603102,3.2582539 c -0.047913,0.067118 -0.067425,0.129232 -0.086378,0.212449 0.021035,0.133492 0.030413,0.188622 0.14826,0.267051 0.076854,0.00865 0.374933,-0.043244 0.442276,-0.248024 z"
     class="fil3"
     id="_65618456" /><path
     style="fill:#555555"
     inkscape:connector-curvature="0"
     d="M 4.9126524,5.4713846 C 4.8159262,5.4554972 4.7273335,5.4096327 4.6311624,5.393838 L 4.6061034,5.389728 4.6200564,5.368512 C 4.6944333,5.2554735 4.6633794,5.157876 4.6767221,5.033257 4.6940316,4.8715853 4.7521151,4.7635319 4.8716936,4.6524593 l 0.00974,-0.00905 0.010904,0.00761 c 0.032777,0.022861 0.080602,0.025937 0.1192172,0.030254 0.032918,0.00368 0.066626,0.00825 0.097038,0.022144 0.053171,0.024304 0.079191,0.070162 0.091711,0.1255233 l 2.88e-4,0.00127 8.28e-5,0.0013 c 0.00676,0.1054283 -0.086578,0.2348543 -0.1424912,0.3195829 -0.052038,0.078861 -0.1378749,0.2034182 -0.1264879,0.3021351 l 0.00251,0.021694 -0.021551,-0.00354 z"
     class="fil1"
     id="_85537656" /><path
     style="fill:#999999"
     inkscape:connector-curvature="0"
     d="M 4.8829111,4.6645421 C 4.7415649,4.7958336 4.7062745,4.9121098 4.693118,5.0350143 4.6793494,5.1635598 4.7116331,5.2593295 4.6338307,5.3775739 4.7302,5.3933954 4.8189492,5.4392911 4.915323,5.4551187 4.8928939,5.2606428 5.1960328,5.0166628 5.1842344,4.8325738 5.1425991,4.6485226 4.975116,4.7288546 4.8829111,4.6645421 z"
     class="fil15"
     id="_64338456" /><path
     style="fill:#aaaaaa"
     inkscape:connector-curvature="0"
     d="M 5.0241776,4.6375082 C 4.8828315,4.7687997 4.7648478,4.9119318 4.7516906,5.0348369 4.7379219,5.1633825 4.7116375,5.259335 4.6338351,5.3775794 4.7302044,5.3934009 4.8189536,5.4392965 4.9153274,5.4551242 4.8928983,5.2606482 5.1960372,5.0166683 5.1842388,4.8325792 5.1426034,4.6485281 5.1163847,4.701824 5.0241785,4.6375061 z"
     class="fil3"
     id="_85751976" /><path
     style="fill:#a77968"
     inkscape:connector-curvature="0"
     d="M 3.4649,3.58289 C 3.49614,3.55478 3.531053,3.528835 3.567707,3.510252 3.607046,3.490307 3.654912,3.475945 3.698479,3.49026 3.710983,3.49437 3.722463,3.500658 3.732715,3.508902 l 0.00155,0.00124 0.00121,0.00157 C 3.741635,3.519752 3.745465,3.528976 3.74568,3.539184 3.7463296,3.56944 3.714538,3.594255 3.692338,3.610034 3.659948,3.633054 3.624314,3.652766 3.590629,3.673975 3.580243,3.680515 3.568727,3.687892 3.557097,3.695959 3.64755,3.658376 3.766117,3.623306 3.815585,3.673455 3.828018,3.68605 3.834321,3.702156 3.836333,3.719546 l 4.33e-5,3.543e-4 2.36e-5,3.543e-4 c 6.103e-4,0.00844 -5.826e-4,0.016772 -0.0038,0.02461 -0.024173,0.05887 -0.157992,0.064079 -0.240457,0.101913 0.079827,0.00131 0.194508,0.014638 0.20298,0.085476 0.00845,0.07063 -0.045295,0.086795 -0.100882,0.060205 -0.016909,-0.00808 -0.032024,-0.016146 -0.050508,-0.020492 -0.020386,-0.00479 -0.041091,-0.00428 -0.0615,-8.937e-4 0.003,0.022945 -8.937e-4,0.045658 -0.013508,0.066161 -0.017622,0.028642 -0.048508,0.047205 -0.07987,0.05737 -0.036126,0.011709 -0.091878,0.01687 -0.125173,-0.0052 L 3.362737,4.088774 3.3618827,4.088022 C 3.3201905,4.05124 3.2957338,4.0098936 3.2690842,3.9621455 3.2575015,3.9413857 3.245907,3.9206494 3.2323992,3.9010549 l -0.00204,-0.00295 -6.259e-4,-0.00352 c -0.020909,-0.117882 -0.065622,-0.154417 0.047957,-0.236724 0.022465,-0.016276 0.038469,-0.035228 0.043169,-0.063114 0.00441,-0.026114 -0.00644,-0.055772 0.00169,-0.079075 0.0072,-0.020626 0.026075,-0.030839 0.045724,-0.037114 0.021079,-0.00675 0.043441,-0.00624 0.06252,0.00585 0.026654,0.016898 0.036539,0.049307 0.035831,0.079402 -1.496e-4,0.0064 -7.441e-4,0.012772 -0.00173,0.019083 z"
     class="fil21"
     id="_85531640" /><path
     style="fill:#fcb69c"
     inkscape:connector-curvature="0"
     d="M 3.24596,3.8917 C 3.223499,3.765086 3.185176,3.745255 3.287365,3.6712 3.319778,3.647716 3.332763,3.623279 3.337117,3.597484 3.345537,3.547571 3.313436,3.513386 3.373298,3.494252 3.45053,3.469543 3.485369,3.578091 3.402093,3.672945 3.493802,3.559831 3.639672,3.455252 3.72238,3.521752 3.772116,3.586598 3.535411,3.653988 3.472435,3.753335 3.641006,3.668178 3.80836,3.621402 3.819947,3.721453 3.825637,3.800398 3.61266,3.786544 3.536892,3.863992 3.674695,3.858782 3.772215,3.879665 3.778742,3.934224 3.785682,3.992311 3.743927,3.997968 3.701333,3.977598 3.669967,3.962602 3.635305,3.941291 3.562786,3.958173 3.594569,4.072787 3.42551,4.110634 3.372778,4.075669 3.309317,4.019677 3.288231,3.953019 3.245959,3.8917 z"
     class="fil22"
     id="_66718504" /><path
     style="fill:#fcccbb"
     inkscape:connector-curvature="0"
     d="M 3.24596,3.8917 C 3.223499,3.765086 3.212058,3.747169 3.314243,3.673121 3.346652,3.649637 3.35696,3.627558 3.361314,3.601759 3.369734,3.551846 3.313436,3.513385 3.373298,3.494251 3.45053,3.469542 3.485369,3.57809 3.402093,3.672944 3.493802,3.55983 3.639672,3.455251 3.72238,3.521751 3.772116,3.586598 3.535411,3.653987 3.472435,3.753334 3.641006,3.668176 3.80836,3.621401 3.819947,3.721452 3.825637,3.800397 3.61266,3.786543 3.536892,3.863991 3.674695,3.858781 3.772219,3.879664 3.778742,3.934223 3.785682,3.992306 3.763927,3.977967 3.721333,3.957597 3.689967,3.942605 3.608038,3.919471 3.535518,3.936353 3.567297,4.050967 3.359534,4.053349 3.306801,4.018381 3.243344,3.962393 3.28823,3.953019 3.245958,3.8917 z"
     class="fil23"
     id="_27645784" /><path
     style="fill:#555555"
     inkscape:connector-curvature="0"
     d="m 5.072947,4.3168662 c 0.040666,0.00535 0.077909,0.021154 0.1097334,0.047066 0.046829,0.038131 0.076474,0.093654 0.090832,0.1516457 0.015149,0.061208 0.014111,0.1275082 -0.00231,0.1883479 -0.012413,0.045977 -0.033764,0.089423 -0.064304,0.1260933 l -0.010118,0.012144 -0.012558,-0.00959 C 5.1393424,4.7982872 5.0917107,4.7608402 5.0389249,4.7397352 4.945444,4.7023619 4.8561592,4.728595 4.7703985,4.7734538 l -0.00579,0.00303 -0.00629,-0.00176 C 4.7039332,4.7595338 4.6818624,4.7195315 4.698136,4.6634152 l 0.00314,-0.01086 0.011255,-9.759e-4 c 0.098162,-0.00852 0.1890418,-0.040802 0.2526167,-0.1191186 0.047926,-0.059045 0.070854,-0.1309672 0.089672,-0.2034017 l 0.00366,-0.014102 0.01444,0.00191 z"
     class="fil1"
     id="_65820904" /><path
     style="fill:#9e9e9e"
     inkscape:connector-curvature="0"
     d="M 4.7139888,4.6680093 C 4.9774076,4.6451416 5.0355948,4.4687183 5.070803,4.3332081 5.2738872,4.3599274 5.3285065,4.6582532 5.1942363,4.819471 5.074272,4.7278455 4.9728602,4.6489604 4.7627638,4.7588518 c -0.032769,-0.00916 -0.06585,-0.03197 -0.048775,-0.090842 z"
     class="fil24"
     id="_85752984" /><path
     style="fill:#868686"
     inkscape:connector-curvature="0"
     d="M 4.7139888,4.6680093 C 4.9049337,4.6272594 4.9814884,4.5615172 5.0416417,4.4282296 5.2447234,4.4549455 5.3285025,4.6582563 5.1942369,4.8194708 5.074272,4.7278455 4.9728602,4.6489604 4.7627638,4.7588518 c -0.032769,-0.00916 -0.06585,-0.03197 -0.048775,-0.090842 z"
     class="fil11"
     id="_85488496" /><path
     style="fill:#555555"
     inkscape:connector-curvature="0"
     d="m 4.6672854,5.5007739 c 0.096559,-0.013277 0.1913247,-0.038507 0.2879232,-0.051791 l 0.00923,-0.00128 0.00675,0.00643 c 0.1231877,0.1171536 0.2578795,0.2054028 0.4144007,0.2726784 l 0.00229,9.911e-4 0.00197,0.00153 c 0.038297,0.029835 0.032772,0.074657 -0.017109,0.078362 -0.2201424,0.021639 -0.4411778,0.03244 -0.6615508,0.051664 -0.011521,9.948e-4 -0.023029,0.00203 -0.034542,0.00308 -0.057714,0.00531 -0.06372,0.00358 -0.075693,-0.054987 -0.020713,-0.1012113 -0.01352,-0.2166383 0.053935,-0.2997068 l 0.00482,-0.00594 0.00757,-0.00104 z"
     class="fil1"
     id="_85585120" /><path
     style="fill:#c9c9c9"
     inkscape:connector-curvature="0"
     d="m 4.9578442,5.4681683 c 0.1197773,0.1139155 0.2526615,0.2044639 0.4201029,0.276438 0.029986,0.023364 0.018535,0.041912 -0.00699,0.043806 -0.2106087,0.020705 -0.4455389,0.032824 -0.6614493,0.051658 -0.0116,0.00101 -0.023157,0.00204 -0.034634,0.00309 -0.04689,0.00432 -0.045144,0.00835 -0.054949,-0.039583 -0.019926,-0.097384 -0.012733,-0.2063692 0.050001,-0.2836166 0.091531,-0.012586 0.196405,-0.039203 0.2879203,-0.051788 z"
     class="fil25"
     id="_65801472" /><path
     style="fill:#999999"
     inkscape:connector-curvature="0"
     d="m 4.9255417,5.496323 c 0.1197793,0.1139189 0.2669845,0.2238116 0.4524077,0.2482813 0.029986,0.023364 0.018535,0.041912 -0.00699,0.043806 -0.2106086,0.020705 -0.4455386,0.032824 -0.6614491,0.051657 -0.011601,0.00101 -0.023157,0.00204 -0.034634,0.00309 -0.04689,0.00432 -0.045144,0.00835 -0.05495,-0.039584 -0.019926,-0.097384 -0.012733,-0.2063691 0.050002,-0.2836165 0.09153,-0.012587 0.1640968,-0.011044 0.2556166,-0.023632 z"
     class="fil15"
     id="_65036032" /><path
     style="fill:#aaaaaa"
     inkscape:connector-curvature="0"
     d="m 4.9255417,5.496323 c 0.1197793,0.1139189 0.2669845,0.2238116 0.4524077,0.2482813 0.029986,0.023364 0.018535,0.041912 -0.00699,0.043806 -0.2106086,0.020705 -0.3431492,-0.00629 -0.5590615,0.012536 -0.011591,0.00101 -0.023171,0.00204 -0.034634,0.00309 -0.046896,0.0043 -0.045148,0.00834 -0.05495,-0.039583 C 4.7023967,5.6670663 4.6071926,5.5972054 4.6699259,5.5199587 4.7614564,5.507373 4.8340227,5.5089146 4.9255425,5.4963269 z"
     class="fil3"
     id="_65800184" /><path
     style="fill:#555555"
     inkscape:connector-curvature="0"
     d="m 4.9474652,5.3385808 c 0.034104,0.027143 0.061671,0.098089 0.074982,0.1395079 l 0.00291,0.00906 -0.0054,0.00784 C 4.9653152,5.5744667 4.8695363,5.643228 4.8458741,5.738844 c -0.00674,0.02732 -0.00479,0.1026895 -0.01881,0.1234677 -0.013511,0.019163 -0.068784,0.017977 -0.08978,0.013187 l -0.00683,-0.00156 -0.00426,-0.00556 C 4.6776789,5.8049573 4.6386153,5.7284024 4.5956756,5.6605085 l -7.892e-4,-0.00125 -5.975e-4,-0.00136 c -0.04116,-0.094468 -0.019773,-0.1959442 0.014116,-0.2890715 l 0.00769,-0.021116 0.019749,0.01072 c 0.067114,0.036424 0.2253892,0.020189 0.2890584,-0.020958 l 0.011676,-0.00755 0.01089,0.00866 z"
     class="fil1"
     id="_64077224" /><path
     style="fill:#c9c9c9"
     inkscape:connector-curvature="0"
     d="m 4.6266138,5.3754559 c 0.06635,0.03601 0.2315724,0.028196 0.3088041,-0.021717 0.029564,0.023527 0.056131,0.091486 0.068599,0.1302806 -0.058613,0.08525 -0.151657,0.1480633 -0.1769291,0.2501819 -0.00987,0.039981 -0.00602,0.1071243 -0.015754,0.1169368 -0.00528,0.00746 -0.049167,0.010166 -0.06974,0.00548 C 4.7016429,5.8044078 4.6504024,5.7108196 4.612046,5.6501688 4.5776651,5.5712578 4.5875777,5.4827082 4.6266132,5.375456 z"
     class="fil25"
     id="_85515408" /><path
     style="fill:#6d6d6d"
     inkscape:connector-curvature="0"
     d="m 4.6266138,5.3754559 c 0.067884,0.028092 0.1762486,0.029277 0.2674957,-0.00163 0.029564,0.023527 0.075216,0.1010067 0.087684,0.1398013 -0.058612,0.085249 -0.1294335,0.1184581 -0.1547057,0.2205764 -0.00987,0.039981 -0.00602,0.1071242 -0.015754,0.1169366 -0.00528,0.00746 -0.049167,0.010166 -0.06974,0.00548 C 4.7016411,5.8044068 4.6504019,5.7108192 4.6120465,5.6501681 4.5776655,5.5712572 4.5875782,5.4827075 4.6266136,5.3754553 z"
     class="fil26"
     id="_67413952" /><path
     style="fill:#868686"
     inkscape:connector-curvature="0"
     d="m 4.6826306,5.39112 c 0.077628,0.00666 0.1202306,0.013612 0.2114783,-0.017298 0.029564,0.023527 0.075217,0.1010065 0.087684,0.1398014 -0.058612,0.085249 -0.1294335,0.1184581 -0.1547057,0.2205763 -0.00987,0.039981 -0.00602,0.1071243 -0.015754,0.1169368 -0.00528,0.00746 -0.031064,0.0088 -0.051637,0.00411 C 4.7197466,5.8030396 4.6866631,5.6854057 4.648306,5.6247523 4.6139262,5.5458452 4.643596,5.4983719 4.6826317,5.3911196 z"
     class="fil11"
     id="_66538728" /><path
     style="fill:#555555"
     inkscape:connector-curvature="0"
     d="M 3.06235,4.30767 C 3.013441,4.346426 2.966571,4.392642 2.903059,4.406257 l -0.00109,2.323e-4 -0.00111,8.27e-5 C 2.822304,4.412552 2.72828,4.402412 2.686166,4.325725 2.648162,4.256532 2.668406,4.160229 2.693306,4.089819 l 0.00209,-0.00592 0.0055,-0.00302 C 2.747983,4.054946 2.795365,4.036883 2.846939,4.022277 2.885746,4.011297 2.926215,4.002663 2.963911,3.988395 c 0.00448,-0.0017 0.00894,-0.00348 0.013358,-0.00537 0.012016,-0.00514 0.025264,-0.00701 0.03737,-10e-4 0.026028,0.012906 0.029528,0.054984 0.031291,0.080366 0.00279,0.040126 0.00193,0.080693 0.00415,0.120957 0.0019,0.034476 0.00567,0.073169 0.01752,0.105764 l 0.00406,0.011173 -0.00931,0.00738 z"
     class="fil1"
     id="_85556728" /><path
     style="fill:#aaaaaa"
     inkscape:connector-curvature="0"
     d="M 2.70884,4.09532 C 2.821344,4.033355 2.906753,4.031096 2.983742,3.998186 3.060734,3.965277 3.009384,4.1773 3.052108,4.294753 3.018447,4.32143 2.961848,4.3768 2.899608,4.390139 2.647454,4.40934 2.662293,4.22695 2.70884,4.09532 z"
     class="fil3"
     id="_67413840" /><path
     style="fill:#555555"
     inkscape:connector-curvature="0"
     d="M 2.91115,1.97317 C 3.040874,1.96556 3.047178,1.96653 3.136284,2.064383 3.217914,2.154021 3.218406,2.166194 3.182237,2.279316 3.167056,2.326773 3.151898,2.374229 3.136725,2.421682 3.090544,2.566178 3.07128,2.564843 2.934831,2.617084 2.848941,2.64995 2.763048,2.682797 2.677162,2.715663 2.550477,2.764132 2.550666,2.783057 2.455028,2.671565 2.441587,2.655888 2.428142,2.640215 2.414693,2.624545 2.343996,2.542143 2.355921,2.54034 2.396976,2.44808 2.445318,2.339454 2.493657,2.230828 2.541996,2.122198 2.605197,1.980151 2.593268,1.989623 2.749917,1.981781 2.803665,1.979091 2.857421,1.976331 2.911149,1.973171 z"
     class="fil1"
     id="_66186952" /><path
     style="fill:#9e9e9e"
     inkscape:connector-curvature="0"
     d="M 2.9123,1.99278 C 2.863438,1.99565 2.803883,1.99874 2.750914,2.0014 2.600036,2.00895 2.618965,1.99753 2.559938,2.130183 2.511607,2.238809 2.463257,2.347447 2.414926,2.456069 2.376839,2.541664 2.364855,2.536282 2.429603,2.611754 2.443048,2.627423 2.456512,2.643112 2.469942,2.658774 2.558493,2.76201 2.549989,2.74329 2.670147,2.697317 2.756029,2.664455 2.841934,2.631604 2.927812,2.598734 3.062497,2.547183 3.074501,2.551887 3.118025,2.415703 3.133202,2.368254 3.148356,2.320774 3.163533,2.273337 3.196714,2.16955 3.199986,2.16351 3.121761,2.077609 3.03495,1.9822649 3.0329224,1.9857058 2.9123,1.9927806 z"
     class="fil24"
     id="_66007560" /><path
     style="fill:#868686"
     inkscape:connector-curvature="0"
     d="M 2.8683,1.99526 C 2.819446,1.99813 2.803883,1.99873 2.750914,2.00139 2.600036,2.00894 2.618965,1.99752 2.559938,2.130173 2.511607,2.238799 2.463257,2.347437 2.414926,2.456059 2.376839,2.541654 2.364855,2.536272 2.429603,2.611744 2.443048,2.627413 2.456512,2.643102 2.469942,2.658764 2.558493,2.762 2.549989,2.74328 2.670147,2.697307 2.756029,2.664445 2.841934,2.631594 2.927812,2.598724 3.062497,2.547173 3.074501,2.551877 3.118025,2.415693 3.133202,2.368244 3.145147,2.330803 3.160316,2.283382 3.194052,2.177906 2.977162,1.988862 2.8683,1.99526 z"
     class="fil11"
     id="_85737176" /><ellipse
     style="fill:#4c4c4c"
     sodipodi:ry="0.0885197"
     sodipodi:rx="0.0145512"
     sodipodi:cy="0"
     sodipodi:cx="0"
     cy="0"
     cx="0"
     ry="0.0885197"
     rx="0.0145512"
     transform="matrix(1.60803,-1.26177,1.38735,1.69087,2.91092,2.2212)"
     class="fil27"
     id="_66714552" /><ellipse
     style="fill:#4c4c4c"
     sodipodi:ry="0.0885197"
     sodipodi:rx="0.0145512"
     sodipodi:cy="0"
     sodipodi:cx="0"
     cy="0"
     cx="0"
     ry="0.0885197"
     rx="0.0145512"
     transform="matrix(-1.60803,1.26177,1.38735,1.69087,2.78665,2.31686)"
     class="fil27"
     id="_66223296" /><ellipse
     style="fill:#4c4c4c"
     sodipodi:ry="0.0885197"
     sodipodi:rx="0.0145512"
     sodipodi:cy="0"
     sodipodi:cx="0"
     cy="0"
     cx="0"
     ry="0.0885197"
     rx="0.0145512"
     transform="matrix(-1.47248,1.15541,1.2704,1.54835,2.69775,2.40283)"
     class="fil27"
     id="_85546832" /><ellipse
     style="fill:#4c4c4c"
     sodipodi:ry="0.0885197"
     sodipodi:rx="0.0145512"
     sodipodi:cy="0"
     sodipodi:cx="0"
     cy="0"
     cx="0"
     ry="0.0885197"
     rx="0.0145512"
     transform="matrix(-1.24881,0.979902,1.07742,1.31315,2.59952,2.50718)"
     class="fil27"
     id="_86407664" /><ellipse
     style="fill:#4c4c4c"
     sodipodi:ry="0.0885197"
     sodipodi:rx="0.0145512"
     sodipodi:cy="0"
     sodipodi:cx="0"
     cy="0"
     cx="0"
     ry="0.0885197"
     rx="0.0145512"
     transform="matrix(1.24818,-0.979411,1.07688,1.31249,3.00962,2.14464)"
     class="fil27"
     id="_66385008" /><path
     style="fill:#555555"
     inkscape:connector-curvature="0"
     d="M 2.3788,2.6633 C 2.37453,2.6626425 2.37083,2.66076 2.366335,2.65443 2.3513,2.63321 2.384654,2.60321 2.398555,2.589391 l 0.00701,-0.00697 0.00977,0.00148 c 0.044193,0.00668 0.091268,0.064095 0.093055,0.108067 l 2.717e-4,0.00658 -0.00376,0.00541 C 2.4914647,2.723344 2.4694767,2.73406 2.4462997,2.735867 l -0.00855,6.614e-4 -0.0063,-0.00582 C 2.4105715,2.7114181 2.4009259,2.6775716 2.3787999,2.6633 z"
     class="fil1"
     id="_86491384" /><path
     style="fill:#aaaaaa"
     inkscape:connector-curvature="0"
     d="M 2.44478,2.71628 C 2.422252,2.695457 2.41678,2.661004 2.384815,2.644079 2.374264,2.643642 2.39513,2.620492 2.412406,2.603319 2.444315,2.608139 2.487241,2.655268 2.488772,2.69276 2.477587,2.708898 2.459465,2.715134 2.44478,2.71628 z"
     class="fil3"
     id="_85552856" /><path
     style="fill:#555555"
     inkscape:connector-curvature="0"
     d="M 2.37774,2.62575 C 2.404941,2.615254 2.435909,2.641734 2.450519,2.662179 2.465775,2.683463 2.479936,2.72584 2.446499,2.738777 2.419314,2.749277 2.388326,2.722805 2.373704,2.70236 2.358476,2.681065 2.344306,2.638702 2.377744,2.62575 z"
     class="fil1"
     id="_85706056" /><ellipse
     style="fill:#868686"
     sodipodi:ry="0.046771701"
     sodipodi:rx="0.048897602"
     sodipodi:cy="0"
     sodipodi:cx="0"
     cy="0"
     cx="0"
     ry="0.046771701"
     rx="0.048897602"
     transform="matrix(0.458784,-0.177292,0.583774,0.816542,2.41212,2.68227)"
     class="fil11"
     id="_85752472" /><path
     style="fill:#555555"
     inkscape:connector-curvature="0"
     d="M 2.78204,4.07007 C 2.722583,4.135861 2.660347,4.245594 2.726375,4.328389 2.779788,4.395361 2.878564,4.395397 2.950784,4.362665 L 3.064296,4.31122 2.968056,4.390409 C 2.894863,4.450637 2.799284,4.498574 2.702044,4.479252 2.630871,4.465106 2.572981,4.415913 2.547469,4.348016 2.525115,4.288524 2.531067,4.223366 2.564256,4.169079 2.607827,4.097811 2.687244,4.060059 2.766311,4.042906 L 2.816398,4.03204 2.78204,4.070071 z"
     class="fil1"
     id="_85840208" /><path
     style="fill:#797979"
     inkscape:connector-curvature="0"
     d="M 2.76981,4.05901 C 2.351216,4.149821 2.598826,4.672876 2.957586,4.377675 2.7627,4.4659978 2.562066,4.2889152 2.76981,4.05901 z"
     class="fil12"
     id="_86131776" /><path
     style="fill:#868686"
     inkscape:connector-curvature="0"
     d="M 2.76981,4.05901 C 2.452916,4.1065966 2.7070935,4.62686 2.957586,4.377675 2.7627,4.4659978 2.562066,4.2889152 2.76981,4.05901 z"
     class="fil11"
     id="_86405088" /><path
     style="fill:#555555"
     inkscape:connector-curvature="0"
     d="m 3.22368,3.87677 0.018095,-0.0068 0.00396,0.00844 C 3.288774,3.957312 3.315377,4.01893 3.384857,4.080894 L 3.399625,4.094063 3.384003,4.106209 C 3.260141,4.202493 3.213601,4.3585 3.058405,4.421772 l -0.00761,0.0031 -0.00706,-0.0042 C 2.864424,4.313707 2.812641,4.117121 2.797959,3.920991 l -0.00162,-0.021653 0.021295,0.00426 c 0.025256,0.00505 0.055409,0.0054 0.081134,0.00528 0.036661,-1.693e-4 0.07352,-0.0022 0.110059,-0.00506 C 3.05554,3.900168 3.102571,3.895138 3.14891,3.88818 3.162103,3.8862 3.211808,3.88279 3.223682,3.876775 z"
     class="fil1"
     id="_86551464" /><path
     style="fill:#797979"
     inkscape:connector-curvature="0"
     d="M 3.23127,3.8863 C 3.213109,3.902623 2.912313,3.939335 2.814404,3.919753 2.83492,4.193903 2.924396,4.330277 3.052184,4.406509 3.20257,4.3451978 3.248503,4.1906628 3.373893,4.0931938 3.2981883,4.025682 3.270436,3.9580958 3.231271,3.8862998 z"
     class="fil12"
     id="_66891912" /><path
     style="fill:#868686"
     inkscape:connector-curvature="0"
     d="M 3.23127,3.8863 C 3.218786,3.897517 3.10353,3.942438 3.000896,3.96304 2.856825,3.991965 2.871802,3.95989 2.89529,4.130005 2.91644,4.283048 2.953349,4.347552 3.052184,4.406509 3.20257,4.3451982 3.248503,4.1906632 3.373893,4.0931942 3.2981883,4.0256824 3.270436,3.9580962 3.231271,3.8863002 z"
     class="fil11"
     id="_67295360" /><path
     style="fill:#555555"
     inkscape:connector-curvature="0"
     d="M 5.58249,1.77061 C 5.4939034,1.7299565 5.400411,1.7003502 5.311793,1.659681 L 5.303313,1.655791 5.301073,1.646751 C 5.260065,1.481775 5.193825,1.334999 5.097916,1.194196 l -0.0014,-0.00207 -8.425e-4,-0.00235 c -0.016279,-0.045732 0.012449,-0.080579 0.056516,-0.056917 0.197331,0.099961 0.389591,0.209547 0.585819,0.311669 0.010252,0.00534 0.020512,0.010657 0.030791,0.015949 0.051539,0.026512 0.055677,0.031197 0.034327,0.087035 -0.036878,0.0965 -0.104929,0.190008 -0.206445,0.223862 l -0.00725,0.00242 -0.00694,-0.00319 z"
     class="fil1"
     id="_86405712" /><path
     style="fill:#939393"
     inkscape:connector-curvature="0"
     d="M 5.31987,1.64208 C 5.2799999,1.481663 5.216527,1.333919 5.113925,1.183289 5.101173,1.147478 5.120799,1.137978 5.1433463,1.1500882 c 0.188783,0.09563 0.393472,0.211563 0.585728,0.311622 0.010327,0.00538 0.020626,0.010717 0.030874,0.015992 0.041874,0.021543 0.042563,0.017201 0.025095,0.062898 -0.035484,0.092854 -0.100075,0.180929 -0.19448,0.212406 -0.083969,-0.038535 -0.186732,-0.072394 -0.270693,-0.110925 z"
     class="fil28"
     id="_66210600" /><path
     style="fill:#bfbfbf"
     inkscape:connector-curvature="0"
     d="M 5.36224,1.63567 C 5.3223699,1.475253 5.257201,1.303497 5.113921,1.183284 5.101169,1.147473 5.120795,1.137973 5.1433423,1.1500832 c 0.188783,0.09563 0.393472,0.211563 0.585728,0.311622 0.010327,0.00538 0.020626,0.010717 0.030874,0.015992 0.041874,0.021543 0.042563,0.017201 0.025094,0.062898 -0.035484,0.092854 -0.100075,0.180929 -0.19448,0.212406 -0.083969,-0.038535 -0.144358,-0.078803 -0.228319,-0.117331 z"
     class="fil29"
     id="_85585160" /><path
     style="fill:#aaaaaa"
     inkscape:connector-curvature="0"
     d="M 5.36224,1.63567 C 5.3223699,1.475253 5.257201,1.303497 5.113921,1.183284 5.101169,1.147473 5.120795,1.137973 5.1433423,1.1500832 c 0.188783,0.09563 0.286098,0.189575 0.478346,0.289642 0.010319,0.00537 0.020638,0.010724 0.030878,0.015996 0.041866,0.021547 0.042559,0.017205 0.025094,0.062898 -0.035496,0.092846 0.0073,0.202906 -0.087102,0.234382 -0.083969,-0.038535 -0.144358,-0.078803 -0.228319,-0.117331 z"
     class="fil3"
     id="_86407240" /><path
     style="fill:#555555"
     inkscape:connector-curvature="0"
     d="M 5.25904,1.75696 C 5.244843,1.715751 5.2596857,1.641102 5.270701,1.599011 l 0.00241,-0.0092 0.00876,-0.00372 C 5.370647,1.548386 5.488363,1.541815 5.55967,1.473863 5.580032,1.454438 5.618859,1.389808 5.641839,1.379812 5.663528,1.370902 5.709516,1.401584 5.724662,1.416895 l 0.00492,0.00497 6.063e-4,0.00698 c 0.00689,0.079567 -0.00128,0.165122 -0.00151,0.245453 l -7.8e-6,0.00148 -2.284e-4,0.00147 C 5.7124341,1.779039 5.6398991,1.853157 5.5613001,1.91352 L 5.5434771,1.927209 5.5325751,1.907559 C 5.4955201,1.840787 5.3532841,1.769492 5.2774771,1.770012 l -0.013905,9.84e-5 -0.00453,-0.01315 z"
     class="fil1"
     id="_85614888" /><path
     style="fill:#7c7c7c"
     inkscape:connector-curvature="0"
     d="M 5.54951,1.89816 C 5.5128761,1.8321561 5.369301,1.750022 5.277345,1.750652 5.265042,1.714928 5.279125,1.643337 5.289439,1.603912 5.384659,1.563471 5.496884,1.560447 5.573037,1.487873 5.602832,1.459448 5.635643,1.400739 5.649124,1.397688 5.657584,1.394238 5.696057,1.415519 5.710896,1.430519 5.716566,1.496015 5.709526,1.60248 5.709316,1.674243 5.695942,1.759271 5.640029,1.828649 5.549509,1.89816 z"
     class="fil30"
     id="_64121048" /><path
     style="fill:#a1a1a1"
     inkscape:connector-curvature="0"
     d="M 5.54951,1.89816 C 5.5128761,1.8321561 5.416549,1.778817 5.322979,1.755892 5.310672,1.720168 5.313759,1.630294 5.324079,1.590872 5.419303,1.550431 5.496882,1.560447 5.573036,1.487872 5.602831,1.459447 5.635642,1.400738 5.649123,1.397687 5.657583,1.394237 5.696056,1.415518 5.710895,1.430518 5.716565,1.496014 5.709525,1.602479 5.709315,1.674242 5.695941,1.75927 5.640028,1.828648 5.549508,1.898159 z"
     class="fil31"
     id="_66467448" /><path
     style="fill:#868686"
     inkscape:connector-curvature="0"
     d="M 5.51185,1.85363 C 5.449941,1.806331 5.416547,1.778819 5.322976,1.755894 5.310669,1.72017 5.313756,1.630296 5.324076,1.590874 5.4193,1.550433 5.496879,1.560449 5.573033,1.487874 5.602828,1.459449 5.635639,1.40074 5.64912,1.397689 5.65758,1.394239 5.680045,1.406949 5.694884,1.421953 5.700554,1.487449 5.66529,1.604449 5.665077,1.676209 5.651703,1.761237 5.602372,1.784118 5.511849,1.85363 z"
     class="fil11"
     id="_85579800" /><path
     style="fill:#555555"
     inkscape:connector-curvature="0"
     d="M 3.81731,1.72084 4.06568,1.651655 c 0.025909,-0.00724 0.053098,0.00815 0.060319,0.034043 L 4.143436,1.748289 C 4.150656,1.774242 4.135326,1.801368 4.109373,1.808596 L 3.860991,1.877769 C 3.835109,1.884979 3.807908,1.869599 3.800707,1.843722 L 3.783266,1.781143 C 3.776056,1.755202 3.791376,1.728048 3.817309,1.72084 z"
     class="fil1"
     id="_65998816" /><rect
     style="fill:#bababa"
     y="2.6983037"
     x="3.1832504"
     ry="0.032483086"
     rx="0.032483086"
     height="0.1299327"
     width="0.32280064"
     transform="matrix(0.96334352,-0.26827088,0.26827088,0.96334352,0,0)"
     class="fil13"
     id="_86554280" /><path
     style="fill:#e5e5e5"
     inkscape:connector-curvature="0"
     d="M 3.87388,1.7111 4.070112,1.667537 C 4.087557,1.663667 4.105325,1.672907 4.11012,1.690116 L 4.127549,1.752699 C 4.132349,1.769912 4.122399,1.788837 4.10497,1.792707 L 3.908738,1.83627 C 3.891297,1.84014 3.873518,1.8309 3.86873,1.813691 L 3.8513013,1.751104 c -0.00479,-0.017213 0.00514,-0.03613 0.022579,-0.040004 z"
     class="fil0"
     id="_66181656" /><path
     style="fill:#d93030"
     inkscape:connector-curvature="0"
     d="M 3.8719,1.61307 C 3.924943,1.548771 3.723061,1.527869 3.771274,1.406314 3.780944,1.441956 3.80255,1.465806 3.825762,1.480034 3.906384,1.529459 3.920849,1.470484 3.899892,1.40681 3.871199,1.319657 3.848699,1.209121 3.723506,1.158633 3.858085,1.1580267 3.873896,1.258712 3.923199,1.326822 4.067742,1.526586 4.049364,1.286389 3.926419,1.164145 4.11186,1.208342 4.230214,1.543165 4.04073,1.604011 3.98445,1.607031 3.928171,1.610051 3.871899,1.613071 z"
     class="fil9"
     id="_66907032" /><path
     style="fill:#555555"
     inkscape:connector-curvature="0"
     d="M 3.7058,1.60484 C 3.851261,1.587994 4.038769,1.531757 4.168784,1.455828 4.204587,1.43495 4.209902,1.435147 4.230221,1.472989 4.243008,1.496776 4.249634,1.522946 4.247331,1.551036 4.228914,1.775717 3.648721,1.940327 3.578461,1.630186 3.571151,1.597934 3.585601,1.610103 3.615111,1.610001 3.645359,1.6098908 3.675446,1.608351 3.7058,1.604841 z"
     class="fil1"
     id="_85535096" /><path
     style="fill:#bababa"
     inkscape:connector-curvature="0"
     d="M 3.6284,1.62678 C 3.653802,1.6262879 3.680384,1.62438 3.707695,1.62121 3.869081,1.602513 4.056057,1.540131 4.176427,1.470403 4.209734,1.4511 4.214695,1.468333 4.226037,1.505375 4.291998,1.721036 3.716722,1.920891 3.606269,1.663029 3.589702,1.624364 3.590966,1.62749 3.628399,1.626777 z"
     class="fil13"
     id="_85642424" /><path
     style="fill:#e5e5e5"
     inkscape:connector-curvature="0"
     d="M 4.17643,1.4704 C 4.209737,1.451097 4.214706,1.46833 4.22604,1.505372 4.292012,1.721026 3.777477,1.87912 3.731548,1.655431 3.716308,1.58121 3.849107,1.660011 4.17643,1.4704 z"
     class="fil0"
     id="_67398152" /><path
     style="fill:#d93030"
     inkscape:connector-curvature="0"
     d="M 3.3888,1.07941 C 3.582851,0.9870793 3.738355,1.0583628 3.846808,1.1157289 3.7820875,0.9530359 3.491375,0.9521499 3.3888,1.07941 z"
     class="fil9"
     id="_66939496" /><path
     style="fill:#e5b700"
     inkscape:connector-curvature="0"
     d="M 2.5613,1.39511 C 2.782654,1.541267 2.900816,1.507055 3.020517,1.4801533 2.887147,1.6577673 2.613442,1.5015509 2.5613,1.39511 z"
     class="fil5"
     id="_86416584" /><path
     style="fill:#ffcc00"
     inkscape:connector-curvature="0"
     d="M 2.5613,1.39511 C 2.782654,1.541267 2.900816,1.507055 3.020517,1.4801533 2.885387,1.5942363 2.613442,1.5015509 2.5613,1.39511 z"
     class="fil6"
     id="_67029904" /><path
     style="fill:#555555"
     inkscape:connector-curvature="0"
     d="M 3.95477,2.34873 C 3.9463566,2.334045 3.9385928,2.3189347 3.9315771,2.303541 3.9071677,2.2499544 3.8991834,2.20088 3.8997149,2.142348 c 2.795e-4,-0.031205 0.0043,-0.070224 0.03048,-0.091197 0.014882,-0.011902 0.032063,-0.018492 0.05124,-0.015488 0.034638,0.00541 0.055165,0.035571 0.081996,0.053705 0.024492,0.016539 0.050905,0.026094 0.078516,0.035835 0.019441,0.00685 0.048961,0.015768 0.056827,0.037012 0.00961,0.025905 -0.017091,0.053173 -0.033811,0.069429 -0.040445,0.039315 -0.092311,0.034142 -0.131114,0.00627 0.014862,0.064504 0.029276,0.128917 0.048728,0.192681 L 4.0917569,2.46069 4.0617879,2.4511 C 4.0227821,2.4386351 3.98716,2.4299697 3.948916,2.4134343 l -0.016512,-0.00714 0.00855,-0.015827 c 0.00757,-0.014004 0.012933,-0.02613 0.013819,-0.041736 z"
     class="fil1"
     id="_85640656" /><path
     style="fill:#fcb69c"
     inkscape:connector-curvature="0"
     d="M 3.9162,2.1425 C 3.9164913,2.11011 3.92125,2.079445 3.940491,2.064028 3.986459,2.027252 4.020822,2.080469 4.054208,2.103024 4.136232,2.158429 4.235869,2.139729 4.153472,2.219823 4.096933,2.274792 4.017169,2.225253 3.998807,2.161965 4.019689,2.245158 4.03713,2.338111 4.066815,2.435406 4.035138,2.42528 4.001654,2.418276 3.955453,2.398308 3.963613,2.38321 3.971296,2.367084 3.97139,2.344525 3.96241,2.329178 3.953977,2.312946 3.946579,2.29671 3.922926,2.244781 3.915689,2.198836 3.916201,2.142501 z"
     class="fil22"
     id="_85640632" /><path
     style="fill:#fcccbb"
     inkscape:connector-curvature="0"
     d="M 4.05909,2.13716 C 4.141118,2.192565 4.235866,2.13973 4.153476,2.219821 4.096937,2.274778 4.017173,2.225251 3.998811,2.161963 4.019693,2.245156 4.037134,2.338109 4.066819,2.435404 4.035142,2.425278 4.001658,2.418274 3.955457,2.398306 3.972264,2.367196 3.99028,2.33618 3.973402,2.299148 3.933095,2.210648 3.8965,2.027309 4.059091,2.13716 z"
     class="fil23"
     id="_66583208" /><path
     style="fill:#555555"
     inkscape:connector-curvature="0"
     d="M 4.18144,2.32975 C 4.1264518,2.2330965 4.332924,2.119494 4.38492,2.194549 l 5.591e-4,8.032e-4 4.606e-4,8.622e-4 c 0.010307,0.019386 0.014228,0.040732 0.00988,0.062366 -0.00725,0.036075 -0.03526,0.063803 -0.066992,0.080177 -0.030748,0.015874 -0.066067,0.022213 -0.100539,0.019618 -0.024213,-0.0018 -0.034268,-0.00649 -0.046847,-0.028626 z"
     class="fil1"
     id="_86121592" /><path
     style="fill:#fcb69c"
     inkscape:connector-curvature="0"
     d="M 4.37139,2.20396 C 4.410024,2.276598 4.327236,2.349279 4.22967,2.34196 4.214391,2.34081 4.208713,2.34035 4.199686,2.327539 4.142284,2.246086 4.331178,2.146122 4.371391,2.20396 z"
     class="fil22"
     id="_66046616" /><path
     style="fill:#fed7c9"
     inkscape:connector-curvature="0"
     d="M 4.37139,2.20396 C 4.403414,2.26433 4.36356,2.316653 4.281418,2.313243 4.252603,2.312043 4.236721,2.306963 4.226946,2.276672 4.204422,2.206814 4.334804,2.151337 4.371391,2.203959 z"
     class="fil32"
     id="_65764496" /><path
     style="fill:#fcccbb"
     inkscape:connector-curvature="0"
     d="M 4.34668,2.19595 C 4.371774,2.257706 4.363562,2.316655 4.28142,2.313241 4.252605,2.312041 4.236719,2.306961 4.226948,2.27667 4.204417,2.206816 4.310098,2.143327 4.34668,2.19595 z"
     class="fil23"
     id="_67097504" /><path
     style="fill:#555555"
     inkscape:connector-curvature="0"
     d="M 4.38626,2.12141 C 4.38989,2.142985 4.3868309,2.164619 4.375894,2.183701 4.357603,2.215622 4.322252,2.233051 4.286973,2.23854 4.248583,2.24451 4.208548,2.23726 4.173831,2.22004 4.163579,2.21495 4.159713,2.21102 4.155429,2.200686 4.148119,2.183111 4.146279,2.164328 4.153059,2.1458 4.167492,2.106359 4.214173,2.085221 4.252472,2.077182 c 0.041524,-0.00872 0.11837,-0.00873 0.13335,0.042331 l 2.717e-4,9.409e-4 1.653e-4,9.567e-4 z"
     class="fil1"
     id="_66718480" /><path
     style="fill:#fcb69c"
     inkscape:connector-curvature="0"
     d="M 4.37001,2.12415 C 4.3845769,2.2106972 4.268073,2.253552 4.174034,2.2015437 4.1181442,2.0952797 4.349199,2.0532327 4.37001,2.12415 z"
     class="fil22"
     id="_66228760" /><path
     style="fill:#fed7c9"
     inkscape:connector-curvature="0"
     d="M 4.37001,2.12415 C 4.385947,2.1962209 4.3080218,2.243563 4.213982,2.1915516 4.1580922,2.0852916 4.349199,2.0532326 4.37001,2.12415 z"
     class="fil32"
     id="_85755744" /><path
     style="fill:#fcccbb"
     inkscape:connector-curvature="0"
     d="M 4.33976,2.12647 C 4.3405553,2.195309 4.317654,2.218387 4.248843,2.209159 4.219989,2.205289 4.205245,2.188253 4.202489,2.155332 4.196119,2.079426 4.321552,2.064419 4.339761,2.12647 z"
     class="fil23"
     id="_65894032" /><path
     style="fill:#555555"
     inkscape:connector-curvature="0"
     d="M 4.14549,1.99842 C 4.131742,1.9733688 4.1291475,1.9456405 4.1190333,1.9198531 l -0.00556,-0.014177 0.013697,-0.00666 c 0.095488,-0.046461 0.185035,-0.036673 0.211543,0.077284 0.011248,0.048358 -0.00524,0.075567 -0.038866,0.108791 -0.046658,0.046095 -0.106693,0.063394 -0.166665,0.033905 -0.00729,-0.00357 -0.010252,-0.00584 -0.01524,-0.012492 -0.00698,-0.00931 -0.011528,-0.020004 -0.012551,-0.031898 -0.00252,-0.029295 0.015917,-0.055323 0.040098,-0.076185 z"
     class="fil1"
     id="_66558208" /><path
     style="fill:#fcb69c"
     inkscape:connector-curvature="0"
     d="M 4.13438,1.91383 C 4.245514,1.859763 4.303943,1.899566 4.32266,1.980027 4.33224,2.021236 4.31904,2.042952 4.288266,2.073362 4.252967,2.108232 4.198038,2.135579 4.135231,2.101504 4.097349,2.06076 4.143131,2.006669 4.218353,1.97202 4.195258,1.97402 4.182003,1.9807 4.160046,1.990673 4.147865,1.968602 4.14277,1.935232 4.134381,1.913831 z"
     class="fil22"
     id="_66106352" /><path
     style="fill:#ffdbcf"
     inkscape:connector-curvature="0"
     d="M 4.13438,1.91383 C 4.245514,1.859763 4.303943,1.899566 4.32266,1.980027 4.33224,2.021236 4.31904,2.042952 4.288266,2.073362 4.252967,2.108232 4.234742,2.112842 4.171935,2.078772 4.134053,2.038024 4.143132,2.006674 4.218352,1.972024 4.195257,1.974024 4.182002,1.980704 4.160045,1.990678 4.147864,1.968607 4.142769,1.935237 4.13438,1.913835 z"
     class="fil33"
     id="_66718592" /><path
     style="fill:#fcccbb"
     inkscape:connector-curvature="0"
     d="M 4.13438,1.91383 C 4.259526,1.852944 4.361183,2.00131 4.288266,2.073361 4.252967,2.108231 4.234742,2.112841 4.171935,2.078771 4.134053,2.038023 4.143132,2.006673 4.218352,1.972023 4.195257,1.974023 4.182002,1.980703 4.160045,1.990677 4.147864,1.968606 4.142769,1.935236 4.13438,1.913835 z"
     class="fil23"
     id="_66001864" /><path
     style="fill:#555555;fill-rule:nonzero"
     inkscape:connector-curvature="0"
     d="M 7.04838,2.52163 C 7.1248682,3.004398 7.0006674,3.58445 6.685266,4.11293 6.398951,4.59267 5.940313,4.999288 5.345896,5.28306 l 0,0 C 5.933865,5.002371 6.372916,4.569761 6.655996,4.09543 6.968055,3.572556 7.090555,2.99921 7.014012,2.52321 7.011052,2.504757 7.007192,2.486407 7.004702,2.467891 6.995392,2.39882 7.015147,2.403037 7.034584,2.461331 7.041234,2.481296 7.0451,2.500898 7.048375,2.521626 z"
     class="fil18"
     id="_85706080" /><path
     style="fill:#555555;fill-rule:nonzero"
     inkscape:connector-curvature="0"
     d="M 6.02344,2.04483 C 6.204271,2.209023 6.33733,2.473905 6.379751,2.778503 6.418259,3.055007 6.366747,3.356928 6.223893,3.653452 l 0,0 C 6.365196,3.360145 6.400948,3.054224 6.362873,2.780838 6.3209006,2.479468 6.189279,2.217732 6.010546,2.056196 6.003616,2.049936 5.996373,2.043991 5.989613,2.037554 5.964377,2.01355 5.973392,2.009015 5.999203,2.025652 c 0.00884,0.0057 0.016476,0.012126 0.024236,0.019177 z"
     class="fil18"
     id="_66545128" /><path
     style="fill:#cfa600"
     inkscape:connector-curvature="0"
     d="M 6.68192,1.58713 C 6.696865,1.538421 6.721129,1.497658 6.759727,1.459366 6.745719,1.441181 6.724215,1.426949 6.701538,1.423933 6.675597,1.477 6.654436,1.532425 6.659896,1.581335 c 0.00735,0.00193 0.014685,0.00386 0.022024,0.0058 z"
     class="fil4"
     id="_65303760" /><path
     style="fill:#ffcc00"
     inkscape:connector-curvature="0"
     d="M 6.71433,1.61528 C 6.789358,1.723961 6.775149,1.781611 6.855932,1.893371 7.134912,2.156658 6.964834,2.575812 6.627444,2.44919 6.972818,2.41595 6.8237,2.104473 6.724613,1.928391 6.641353,2.297966 5.984373,1.917261 6.06305,1.520513 6.154952,1.840013 6.467826,2.031604 6.597267,1.915836 6.663188,1.843407 6.552735,1.80686 6.639507,1.61558 6.671546,1.544989 6.671905,1.553828 6.71433,1.6152808 z"
     class="fil6"
     id="_65955984" /><path
     style="fill:#cfa600;fill-rule:nonzero"
     inkscape:connector-curvature="0"
     d="M 6.67346,1.58083 C 6.68207,1.645491 6.704558,1.716326 6.725031,1.778212 6.747763,1.846917 6.790322,1.908791 6.832062,1.969476 6.879369,2.03826 6.92566,2.105551 6.941668,2.180259 6.948538,2.212271 6.950178,2.245932 6.945388,2.278338 6.939538,2.317901 6.924093,2.355653 6.89686,2.386377 6.869647,2.417086 6.83071,2.440716 6.777919,2.452038 6.736474,2.460928 6.69188,2.458698 6.63225,2.449878 l 5.12e-5,7.9e-6 c 0.058591,0.00867 0.103358,0.00248 0.143843,-0.0062 0.05087,-0.010909 0.088287,-0.033563 0.114335,-0.062953 0.026039,-0.029386 0.040835,-0.065606 0.046453,-0.103626 0.00464,-0.031398 0.00304,-0.064032 -0.00361,-0.095075 -0.015653,-0.073047 -0.061461,-0.139646 -0.108276,-0.207709 -0.042102,-0.061213 -0.085024,-0.123618 -0.10813,-0.193437 -0.022185,-0.067083 -0.034173,-0.13037 -0.043453,-0.200059 l 0,0 z"
     class="fil34"
     id="_66545200" /><path
     style="fill:#cfa600;fill-rule:nonzero"
     inkscape:connector-curvature="0"
     d="M 6.67724,1.62754 C 6.648673,1.66756 6.658606,1.740257 6.661524,1.806532 6.664034,1.863398 6.666484,1.919225 6.649111,1.957343 6.646931,1.962133 6.644421,1.966553 6.641631,1.970587 6.616922,2.00637 6.569552,2.014595 6.517414,2.008796 6.466241,2.003106 6.410292,1.983883 6.367178,1.964225 6.34295,1.953182 6.322725,1.941973 6.309658,1.932953 6.251607,1.892874 6.196099,1.836638 6.150375,1.765055 6.109442,1.700964 6.083139,1.624547 6.063084,1.536401 l 0,0 c 0.019827,0.087142 0.054047,0.160776 0.094476,0.224075 0.045071,0.070563 0.099768,0.125976 0.156949,0.165457 0.012732,0.00879 0.032488,0.019728 0.056209,0.030543 0.042417,0.019343 0.097417,0.03826 0.147626,0.043835 0.04924,0.00547 0.093709,-0.0019 0.116268,-0.034575 0.00253,-0.00367 0.0048,-0.00765 0.00675,-0.011933 C 6.657874,1.917575 6.655464,1.862748 6.653004,1.806897 6.650024,1.739173 6.646974,1.669944 6.67724,1.627539 l 0,0 z"
     class="fil34"
     id="_66093208" /><path
     style="fill:#999999"
     inkscape:connector-curvature="0"
     d="M 4.31608,4.55676 C 4.513029,4.43878 4.680966,4.287103 4.780926,4.090528 4.591961,4.170252 4.38354,4.188571 4.207076,4.104571 4.200056,4.101231 4.193096,4.097731 4.186182,4.094067 4.16384,4.082217 4.142056,4.06865 4.12095,4.053276 4.047651,4.101087 3.966537,4.138697 3.880135,4.16578 3.996556,4.313504 4.0693,4.497552 4.109052,4.664768 4.175257,4.634611 4.239918,4.601536 4.301843,4.565201 c 0.00476,-0.0028 0.00951,-0.00561 0.014236,-0.00844 z"
     class="fil15"
     id="_67275768" /><path
     style="fill:#797979"
     inkscape:connector-curvature="0"
     d="M 4.75991,3.63825 C 4.819138,3.595341 4.861441,3.537191 4.877607,3.471329 4.816253,3.509931 4.745335,3.536935 4.665922,3.544837 4.670802,3.551887 4.67602,3.558715 4.681485,3.565317 4.703579,3.592006 4.730611,3.616309 4.75991,3.63825 z"
     class="fil12"
     id="_85813944" /><path
     style="fill:#999999"
     inkscape:connector-curvature="0"
     d="M 4.72412,2.96604 C 4.670065,2.853839 4.621876,2.706398 4.73007,2.575079 4.678968,2.597327 4.630279,2.631012 4.582405,2.670485 4.612578,2.771812 4.661842,2.874871 4.724122,2.96604 z"
     class="fil15"
     id="_85637776" /></g>
</svg>