<?xml version="1.0" encoding="UTF-8" standalone="no"?>
<!-- Created with Inkscape (http://www.inkscape.org/) -->

<svg
   xmlns:dc="http://purl.org/dc/elements/1.1/"
   xmlns:cc="http://creativecommons.org/ns#"
   xmlns:rdf="http://www.w3.org/1999/02/22-rdf-syntax-ns#"
   xmlns:svg="http://www.w3.org/2000/svg"
   xmlns="http://www.w3.org/2000/svg"
   xmlns:sodipodi="http://sodipodi.sourceforge.net/DTD/sodipodi-0.dtd"
   xmlns:inkscape="http://www.inkscape.org/namespaces/inkscape"
   width="200"
   height="30"
   id="svg2"
   version="1.1"
   inkscape:version="0.48.2 r9819"
   sodipodi:docname="splash_separator.svg"
   inkscape:export-filename="/var/www/grades/assets/images/splash_separator.png"
   inkscape:export-xdpi="90"
   inkscape:export-ydpi="90">
  <defs
     id="defs4">
    <inkscape:path-effect
       fuse_tolerance="0"
       vertical_pattern="false"
       prop_units="false"
       tang_offset="0"
       normal_offset="0"
       spacing="0"
       scale_y_rel="false"
       prop_scale="1"
       copytype="single_stretched"
       pattern="m 32.941921,1022.0892 0,10 10,-5 z"
       is_visible="true"
       id="path-effect3803"
       effect="skeletal" />
    <inkscape:path-effect
       effect="skeletal"
       id="path-effect3799"
       is_visible="true"
       pattern="m 144.31363,1022.0892 0,10 10,-5 z"
       copytype="single_stretched"
       prop_scale="1"
       scale_y_rel="false"
       spacing="0"
       normal_offset="0"
       tang_offset="0"
       prop_units="false"
       vertical_pattern="false"
       fuse_tolerance="0" />
    <inkscape:path-effect
       effect="skeletal"
       id="path-effect3789"
       is_visible="true"
       pattern="m 0.545968,0 c 0,0 38.21772,6.961085 43.267919,13.922169 C 48.864085,20.883254 0,21.019746 0,20.473778 0,19.927811 0.545968,0 0.545968,0 z"
       copytype="single_stretched"
       prop_scale="1"
       scale_y_rel="false"
       spacing="0"
       normal_offset="0"
       tang_offset="0"
       prop_units="false"
       vertical_pattern="false"
       fuse_tolerance="0" />
  </defs>
  <sodipodi:namedview
     id="base"
     pagecolor="#ffffff"
     bordercolor="#666666"
     borderopacity="1.0"
     inkscape:pageopacity="0"
     inkscape:pageshadow="2"
     inkscape:zoom="1"
     inkscape:cx="140.59492"
     inkscape:cy="9.9439475"
     inkscape:document-units="px"
     inkscape:current-layer="layer1"
     showgrid="false"
     inkscape:window-width="1920"
     inkscape:window-height="1176"
     inkscape:window-x="0"
     inkscape:window-y="24"
     inkscape:window-maximized="1" />
  <metadata
     id="metadata7">
    <rdf:RDF>
      <cc:Work
         rdf:about="">
        <dc:format>image/svg+xml</dc:format>
        <dc:type
           rdf:resource="http://purl.org/dc/dcmitype/StillImage" />
        <dc:title></dc:title>
      </cc:Work>
    </rdf:RDF>
  </metadata>
  <g
     inkscape:label="Layer 1"
     inkscape:groupmode="layer"
     id="layer1"
     transform="translate(0,-1022.3622)">
    <path
       style="fill:none;stroke:black;stroke-opacity:1;stroke-width:1px;stroke-linejoin:miter;stroke-linecap:butt;fill-rule:evenodd"
       d="m 7.1303846,2.2035859 c 0,0 28.1344244,3.4778177 48.8385164,7.8882111 0,0 0,0 0,0 5.93784,1.264882 11.264224,2.607462 15.139726,3.970165 0,0 0,0 0,0 1.664545,0.585287 3.061456,1.174299 4.12419,1.762514 0,0 0,0 0,0 10e-7,10e-7 10e-7,10e-7 2e-6,10e-7 0,0 0,0 0,0 0.408969,0.226362 0.768473,0.452606 1.074707,0.678475 0,0 0,0 0,0 0.09715,0.07164 0.18896,0.143243 0.275296,0.214799 0,7e-6 1e-6,3e-6 1e-6,0 0.03139,-0.861448 0.06236,-1.722417 0.0929,-2.582035 10e-7,-1.5e-5 10e-7,-3.1e-5 2e-6,-4.6e-5 0.01093,-0.307586 0.02184,-0.614998 0.03266,-0.922198 2.3e-5,-6.56e-4 3.7e-5,-0.0013 4.3e-5,-0.002 0.0041,-0.478035 -4.638986,-0.992303 -14.718705,-1.545523 C 51.910001,11.112759 36.39521,10.520595 14.89097,9.8880081 -6.6132704,9.2554206 -34.10548,8.582417 -67.927704,7.8686278 -101.74993,7.1548386 -141.90075,6.4002716 -188.53158,5.6055506 -235.16242,4.8108296 -288.2719,3.9759621 -347.84151,3.1024518 -407.41112,2.2289416 -473.43957,1.3167956 -545.75809,0.36828993 -618.07662,-0.58021576 -696.68401,-1.5650745 -781.28004,-2.583341 c -84.59604,-1.0182664 -175.17957,-2.0699342 -271.33676,-3.151486 -96.1572,-1.0815517 -197.8869,-2.1929815 -304.6786,-3.3302922 -106.7917,-1.1373108 -218.6443,-2.3004968 -334.9666,-3.4851688 -116.3222,-1.184672 -237.1131,-2.390824 -361.7156,-3.613758 -124.6025,-1.222935 -253.0157,-2.462645 -384.5312,-3.714201 -263.0309,-2.503112 -538.4938,-5.05368 -820.3091,-7.61059 -281.8152,-2.55691 -569.9588,-5.120031 -858.1253,-7.647791 -288.1666,-2.52776 -576.3355,-5.020048 -858.3104,-7.436663 -281.975,-2.416616 -557.7386,-4.757464 -821.4875,-6.985261 -131.8745,-1.113898 -260.753,-2.199589 -385.9663,-3.252787 -125.2133,-1.053199 -246.7609,-2.073905 -364.0192,-3.058131 -117.2583,-0.984226 -230.2269,-1.931971 -338.3333,-2.839576 -108.1064,-0.907605 -211.3504,-1.775069 -309.2156,-2.599085 -97.8653,-0.824017 -190.3515,-1.604585 -277.0026,-2.338774 -86.6511,-0.73419 -167.4669,-1.422001 -242.0552,-2.060897 -74.5882,-0.638896 -142.9487,-1.228876 -204.7557,-1.767816 -61.8071,-0.538939 -117.0605,-1.026837 -165.5036,-1.461988 -48.443,-0.435152 -90.0755,-0.817558 -124.7109,-1.145942 -34.6354,-0.328384 -62.2738,-0.602746 -82.7998,-0.822247 -20.5261,-0.2195 -33.9399,-0.384139 -40.1978,-0.49351 -6.258,-0.109372 -5.3601,-0.163477 2.6656,-0.162344 8.0257,0.0011 23.1792,0.0575 45.3619,0.168651 22.1828,0.111149 51.3948,0.277076 87.4681,0.496902 36.0733,0.219826 79.0079,0.493551 128.5686,0.819884 49.5608,0.326333 105.7475,0.705275 168.2603,1.135138 62.5128,0.429864 131.3514,0.910649 206.154,1.44029 74.8026,0.529642 155.569,1.108138 241.8789,1.733065 86.31,0.624928 178.1633,1.296284 275.0853,2.011309 96.922,0.715024 198.9125,1.473714 305.4469,2.272996 106.5344,0.799282 217.6124,1.639154 332.6646,2.516257 115.0522,0.877104 234.0782,1.791437 356.4691,2.739387 244.7818,1.8959 503.0492,3.926447 769.5492,6.060201 266.5001,2.133755 541.2178,4.370635 818.5711,6.67682 277.3534,2.306184 557.3257,4.681581 834.2406,7.091288 276.9149,2.409707 550.7541,4.853624 816.0065,7.297209 265.2525,2.443585 521.8984,4.88673 764.8751,7.296821 121.4883,1.205046 239.5682,2.401869 353.673,3.586706 114.1048,1.184838 224.2338,2.357687 329.8774,3.515066 105.6436,1.15738 206.8011,2.299286 303.0304,3.422577 96.2294,1.123291 187.5297,2.2279632 273.53707,3.3112713 86.00733,1.0833082 166.72089,2.1452485 241.86556,3.1835345 75.14467,1.038286 144.71971,2.0529136 208.55022,3.0421162 63.83051,0.98920254 121.91572,1.95297586 174.19243,2.8901369 52.27671,0.9371611 98.74412,1.8477055 139.46248,2.7310987 40.71836,0.8833932 75.686858,1.7396308 105.101156,2.5688928 29.414298,0.829262 53.2735735,1.6315439 71.92115,2.4078082 18.647578,0.7762643 32.082618,1.5265064 40.808564,2.2525394 8.725946,0.726034 12.741946,1.427854 12.724242,2.108195 -0.01217,0.467587 -0.02452,0.941362 -0.03695,1.421351 0,2.3e-5 -1e-6,4.5e-5 -1e-6,6.7e-5 -0.03435,1.325713 -0.06973,2.698837 -0.106128,4.119932 0,1.8e-5 0,1.8e-5 0,1.8e-5 -0.08545,0.05764 -0.178434,0.114551 -0.278755,0.170729 0,0 0,0 0,0 -0.29827,0.167094 -0.661611,0.327739 -1.085051,0.482155 -10e-7,0 -10e-7,1e-6 -2e-6,1e-6 0,0 0,0 0,0 -1.042878,0.380307 -2.450655,0.722823 -4.149729,1.030814 0,0 0,0 0,0 -10e-7,0 -2e-6,10e-7 -3e-6,10e-7 0,0 0,0 0,0 -3.852135,0.698274 -9.202308,1.219009 -15.194372,1.600781 0,0 0,0 0,0 C 34.879893,23.376901 6.0315519,22.997436 6.035043,22.666946 6.0408099,22.121009 7.1303846,2.2035859 7.1303846,2.2035859 z"
       id="path3787"
       inkscape:path-effect="#path-effect3789"
       inkscape:original-d="m 6.1421336,12.529042 c 38.7636874,0.409476 70.5662904,0.68246 70.5662904,0.68246" />
    <path
       style="fill:#aaaaaa;fill-opacity:1;fill-rule:evenodd;stroke:none"
       d="m 83.354795,1041.802 -0.05423,-9.9998 c -24.296882,5.4223 -50.287688,3.5221 -75.4855738,5.076 -1.798011,0.1112 -3.5956231,0.2223 -5.3935366,0.3334 1.7979135,0.1111 3.5961283,0.2222 5.3946445,0.3334 25.1649489,1.3055 50.0515579,-0.325 75.5386959,4.257 z"
       id="path3801"
       inkscape:connector-curvature="0"
       sodipodi:nodetypes="cccccc" />
    <path
       sodipodi:type="arc"
       style="fill:#aaaaaa;fill-opacity:1;stroke:none"
       id="path3805"
       sodipodi:cx="101.00397"
       sodipodi:cy="14.439928"
       sodipodi:rx="9.8274136"
       sodipodi:ry="9.8274136"
       d="m 110.83138,14.439928 a 9.8274136,9.8274136 0 1 1 -19.654826,0 9.8274136,9.8274136 0 1 1 19.654826,0 z"
       transform="translate(-0.11585999,1022.3622)" />
    <path
       sodipodi:nodetypes="cccccc"
       inkscape:connector-curvature="0"
       id="path3828"
       d="m 118.42145,1041.802 0.0542,-9.9998 c 24.29688,5.4223 50.28768,3.5221 75.48557,5.076 1.79801,0.1112 3.59562,0.2223 5.39353,0.3334 -1.79791,0.1111 -3.59612,0.2222 -5.39464,0.3334 -25.16495,1.3055 -50.05156,-0.325 -75.5387,4.257 z"
       style="fill:#aaaaaa;fill-opacity:1;fill-rule:evenodd;stroke:none" />
  </g>
</svg>
