<?xml version="1.0" encoding="UTF-8" standalone="no"?>
<!-- Created with Inkscape (http://www.inkscape.org/) -->

<svg
   xmlns:dc="http://purl.org/dc/elements/1.1/"
   xmlns:cc="http://creativecommons.org/ns#"
   xmlns:rdf="http://www.w3.org/1999/02/22-rdf-syntax-ns#"
   xmlns:svg="http://www.w3.org/2000/svg"
   xmlns="http://www.w3.org/2000/svg"
   xmlns:sodipodi="http://sodipodi.sourceforge.net/DTD/sodipodi-0.dtd"
   xmlns:inkscape="http://www.inkscape.org/namespaces/inkscape"
   width="200"
   height="30"
   id="svg2"
   version="1.1"
   inkscape:version="0.48.1 "
   sodipodi:docname="splash_separator.svg"
   inkscape:export-filename="/var/www/grades/assets/images/splash_separator.png"
   inkscape:export-xdpi="90"
   inkscape:export-ydpi="90">
  <defs
     id="defs4">
    <inkscape:path-effect
       fuse_tolerance="0"
       vertical_pattern="false"
       prop_units="false"
       tang_offset="0"
       normal_offset="0"
       spacing="0"
       scale_y_rel="false"
       prop_scale="1"
       copytype="single_stretched"
       pattern="m 32.941921,1022.0892 0,10 10,-5 z"
       is_visible="true"
       id="path-effect3803"
       effect="skeletal" />
    <inkscape:path-effect
       effect="skeletal"
       id="path-effect3799"
       is_visible="true"
       pattern="m 144.31363,1022.0892 0,10 10,-5 z"
       copytype="single_stretched"
       prop_scale="1"
       scale_y_rel="false"
       spacing="0"
       normal_offset="0"
       tang_offset="0"
       prop_units="false"
       vertical_pattern="false"
       fuse_tolerance="0" />
    <inkscape:path-effect
       effect="skeletal"
       id="path-effect3789"
       is_visible="true"
       pattern="m 0.545968,0 c 0,0 38.21772,6.961085 43.267919,13.922169 C 48.864085,20.883254 0,21.019746 0,20.473778 0,19.927811 0.545968,0 0.545968,0 z"
       copytype="single_stretched"
       prop_scale="1"
       scale_y_rel="false"
       spacing="0"
       normal_offset="0"
       tang_offset="0"
       prop_units="false"
       vertical_pattern="false"
       fuse_tolerance="0" />
  </defs>
  <sodipodi:namedview
     id="base"
     pagecolor="#ffffff"
     bordercolor="#666666"
     borderopacity="1.0"
     inkscape:pageopacity="0"
     inkscape:pageshadow="2"
     inkscape:zoom="3.5882353"
     inkscape:cx="113"
     inkscape:cy="17"
     inkscape:document-units="px"
     inkscape:current-layer="layer1"
     showgrid="false"
     inkscape:window-width="1304"
     inkscape:window-height="746"
     inkscape:window-x="54"
     inkscape:window-y="-8"
     inkscape:window-maximized="1" />
  <metadata
     id="metadata7">
    <rdf:RDF>
      <cc:Work
         rdf:about="">
        <dc:format>image/svg+xml</dc:format>
        <dc:type
           rdf:resource="http://purl.org/dc/dcmitype/StillImage" />
        <dc:title />
      </cc:Work>
    </rdf:RDF>
  </metadata>
  <g
     inkscape:label="Layer 1"
     inkscape:groupmode="layer"
     id="layer1"
     transform="translate(0,-1022.3622)">
    <path
       style="fill:none;stroke:black;stroke-opacity:1;stroke-width:1px;stroke-linejoin:miter;stroke-linecap:butt;fill-rule:evenodd"
       d="m 7.1213457,2.2027147 c 0,0 61.4835953,7.5560055 69.5543123,14.5954533 10e-7,0 10e-7,0 2e-6,1e-6 0.01096,-1.198878 0.02187,-2.392651 0.03276,-3.586667 C 84.650338,-856.94312 88.597026,-1850.1573 87.703677,-2956.6064 86.810327,-4063.0555 81.07848,-5282.7382 69.898457,-6605.8446 58.718434,-7928.9509 42.091707,-9355.4795 19.621145,-10875.656 c -22.4705612,-1520.176 -50.783552,-3133.999 -85.145133,-4831.749 -34.361582,-1697.75 -74.770412,-3479.427 -121.262282,-5335.387 -46.49187,-1855.961 -99.0655,-3786.203 -157.60591,-5781.181 -58.54041,-1994.978 -123.04638,-4054.69 -193.27085,-6169.703 -70.22447,-2115.013 -146.16628,-4285.326 -227.46396,-6501.639 -81.29768,-2216.314 -167.95014,-4478.628 -259.49831,-6777.794 -91.5482,-2299.165 -187.9911,-4635.182 -288.788,-6999.072 -100.7969,-2363.891 -205.9467,-4755.653 -314.8421,-7166.497 -108.8953,-2410.845 -221.5353,-4840.77 -337.2598,-7281.189 -115.7245,-2440.42 -234.5327,-4891.333 -355.7253,-7344.374 -121.1925,-2453.042 -244.7685,-4908.211 -370.0018,-7357.38 -125.2332,-2449.168 -252.123,-4892.336 -379.9275,-7321.628 -127.8045,-2429.292 -256.5231,-4844.708 -385.4096,-7238.642 -128.8865,-2393.934 -257.9403,-4766.389 -386.4204,-7110.029 -128.4802,-2343.65 -256.3861,-4658.5 -382.9916,-6937.51 -126.6055,-2279.02 -251.91,-4522.21 -375.2103,-6722.86 -123.3002,-2200.65 -244.5956,-4358.77 -363.2136,-6467.96 -118.618,-2109.2 -234.5582,-4169.47 -347.1854,-6174.79 -112.6271,-2005.31 -221.941,-3955.67 -327.3501,-5845.38 -105.4091,-1889.71 -206.9131,-3718.77 -303.97,-5481.86 -97.0568,-1763.1 -189.6662,-3460.23 -277.3399,-5086.45 -87.6737,-1626.23 -170.4116,-3181.55 -247.7835,-4661.42 -77.372,-1479.86 -149.3779,-2884.28 -215.6491,-4209.1 -66.2713,-1324.82 -126.8078,-2570.05 -181.3053,-3731.95 -54.4976,-1161.91 -102.9561,-2240.5 -145.1378,-3232.46 -42.1816,-991.97 -78.0864,-1897.31 -107.5446,-2713.17 -29.4581,-815.87 -52.4695,-1542.25 -68.9333,-2176.73 -16.4638,-634.49 -26.38,-1177.08 -29.7166,-1625.82 -3.3367,-448.74 -0.094,-803.63 9.691,-1063.19 9.7851,-259.56 26.1125,-423.78 48.8771,-491.66 22.7646,-67.88 51.9663,-39.42 87.4336,85.9 35.4673,125.33 77.2001,347.51 124.962,666.58 47.762,319.07 101.5531,735.03 161.0749,1247.39 59.5219,512.36 124.7744,1121.12 195.4003,1825.29 70.6259,704.17 146.6249,1503.75 227.5842,2397.22 80.9593,893.47 166.8786,1880.84 257.2938,2960.05 90.4152,1079.21 185.3259,2250.26 284.221,3510.58 98.895,1260.32 201.7741,2609.9 308.084,4045.62 106.3099,1435.72 216.0502,2957.58 328.6315,4561.9 112.5813,1604.32 228.003,3291.1 345.6449,5056.1 117.642,1765.01 237.5037,3608.24 358.9407,5524.91 121.4371,1916.67 244.449,3906.76 368.3737,5964.92 123.9247,2058.16 248.7617,4184.39 373.8388,6372.74 125.077,2188.34 250.3935,4438.82 375.2744,6744.89 124.8808,2306.07 249.3255,4667.75 372.664,7077.92 123.3385,2410.17 245.5703,4868.83 366.039,7368.29 120.4687,2499.46 239.1737,5039.72 355.4807,7612.485 116.307,2572.763 230.2155,5178.031 341.1224,7806.912 110.907,2628.881 218.8118,5281.375 323.1523,7947.986 104.3404,2666.612 205.1157,5347.341 301.8141,8032.085 96.6984,2684.745 189.3192,5373.504 277.4108,8055.565 88.09171,2682.062 171.65361,5357.425 250.30509,8014.762 78.65149,2657.338 152.39184,5296.65 220.92188,7905.991 68.53005,2609.342 131.84906,5188.713 189.75027,7725.549 57.90121,2536.836 110.38387,5031.137 157.34487,7469.715 46.96099,2438.579 88.39955,4821.435 124.327707,7134.757 35.928156,2313.321 66.345114,4557.107 91.389803,6716.92 25.044689,2159.812 44.716301,4235.65 59.292661,6212.446 14.576361,1976.795 24.056646,3854.548 28.869822,5617.5594 4.813177,1763.0112 4.958407,3411.2808 1.028258,4928.4777 C 95.978514,-2605.523 87.97214,-1219.3988 76.658406,18.688351 69.788054,23.713492 6.0393353,23.158375 6.0440871,22.667043 6.049367,22.121101 7.1213457,2.2027147 7.1213457,2.2027147 z"
       id="path3787"
       inkscape:path-effect="#path-effect3789"
       inkscape:original-d="m 6.1421336,12.529042 c 38.7636874,0.409476 70.5662904,0.68246 70.5662904,0.68246" />
    <path
       sodipodi:nodetypes="cccccc"
       inkscape:connector-curvature="0"
       id="path2989"
       d="m 83.354795,1041.802 -0.05423,-9.9998 c -24.296882,5.4223 -50.287688,3.5221 -75.4855738,5.076 -1.798011,0.1112 -3.5956231,0.2223 -5.3935366,0.3334 1.7979135,0.1111 3.5961283,0.2222 5.3946445,0.3334 25.1649489,1.3055 50.0515579,-0.325 75.5386959,4.257 z"
       style="fill:#000000;fill-opacity:1;fill-rule:evenodd;stroke:none;" />
    <path
       transform="translate(-0.11585999,1022.3622)"
       d="m 110.83138,14.439928 c 0,5.427531 -4.39988,9.827414 -9.82741,9.827414 -5.427533,0 -9.827416,-4.399883 -9.827416,-9.827414 0,-5.4275306 4.399883,-9.8274135 9.827416,-9.8274135 5.42753,0 9.82741,4.3998829 9.82741,9.8274135 z"
       sodipodi:ry="9.8274136"
       sodipodi:rx="9.8274136"
       sodipodi:cy="14.439928"
       sodipodi:cx="101.00397"
       id="path2991"
       style="fill:#000000;fill-opacity:1;stroke:none;"
       sodipodi:type="arc" />
    <path
       style="fill:#000000;fill-opacity:1;fill-rule:evenodd;stroke:none;"
       d="m 118.42145,1041.802 0.0542,-9.9998 c 24.29688,5.4223 50.28768,3.5221 75.48557,5.076 1.79801,0.1112 3.59562,0.2223 5.39353,0.3334 -1.79791,0.1111 -3.59612,0.2222 -5.39464,0.3334 -25.16495,1.3055 -50.05156,-0.325 -75.5387,4.257 z"
       id="path2993"
       inkscape:connector-curvature="0"
       sodipodi:nodetypes="cccccc" />
    <path
       style="fill:#aaaaaa;fill-opacity:1;fill-rule:evenodd;stroke:none"
       d="m 82.797417,1041.5233 -0.05423,-9.9998 c -24.296882,5.4223 -50.287688,3.5221 -75.4855728,5.076 -1.798011,0.1112 -3.5956231,0.2223 -5.3935366,0.3334 1.7979135,0.1111 3.5961283,0.2222 5.3946445,0.3334 25.1649479,1.3055 50.0515569,-0.325 75.5386949,4.257 z"
       id="path3801"
       inkscape:connector-curvature="0"
       sodipodi:nodetypes="cccccc" />
    <path
       sodipodi:type="arc"
       style="fill:#aaaaaa;fill-opacity:1;stroke:none"
       id="path3805"
       sodipodi:cx="101.00397"
       sodipodi:cy="14.439928"
       sodipodi:rx="9.8274136"
       sodipodi:ry="9.8274136"
       d="m 110.83138,14.439928 a 9.8274136,9.8274136 0 1 1 -19.654826,0 9.8274136,9.8274136 0 1 1 19.654826,0 z"
       transform="translate(-0.67323703,1022.0835)" />
    <path
       sodipodi:nodetypes="cccccc"
       inkscape:connector-curvature="0"
       id="path3828"
       d="m 117.86407,1041.5233 0.0542,-9.9998 c 24.29688,5.4223 50.28768,3.5221 75.48557,5.076 1.79801,0.1112 3.59562,0.2223 5.39353,0.3334 -1.79791,0.1111 -3.59612,0.2222 -5.39464,0.3334 -25.16495,1.3055 -50.05156,-0.325 -75.5387,4.257 z"
       style="fill:#aaaaaa;fill-opacity:1;fill-rule:evenodd;stroke:none" />
  </g>
</svg>
