<?xml version="1.0" encoding="UTF-8" standalone="no"?>
<!-- Creator: CorelDRAW -->

<svg
   xmlns:dc="http://purl.org/dc/elements/1.1/"
   xmlns:cc="http://creativecommons.org/ns#"
   xmlns:rdf="http://www.w3.org/1999/02/22-rdf-syntax-ns#"
   xmlns:svg="http://www.w3.org/2000/svg"
   xmlns="http://www.w3.org/2000/svg"
   xmlns:sodipodi="http://sodipodi.sourceforge.net/DTD/sodipodi-0.dtd"
   xmlns:inkscape="http://www.inkscape.org/namespaces/inkscape"
   xml:space="preserve"
   width="8.26772in"
   height="11.6929in"
   style="shape-rendering:geometricPrecision; text-rendering:geometricPrecision; image-rendering:optimizeQuality; fill-rule:evenodd; clip-rule:evenodd"
   viewBox="0 0 8.26772 11.6929"
   id="svg5436"
   version="1.1"
   inkscape:version="0.48.3.1 r9886"
   sodipodi:docname="StandardKnight.svg"><metadata
   id="metadata5734"><rdf:RDF><cc:Work
       rdf:about=""><dc:format>image/svg+xml</dc:format><dc:type
         rdf:resource="http://purl.org/dc/dcmitype/StillImage" /><dc:title></dc:title></cc:Work></rdf:RDF></metadata><sodipodi:namedview
   pagecolor="#ffffff"
   bordercolor="#666666"
   borderopacity="1"
   objecttolerance="10"
   gridtolerance="10"
   guidetolerance="10"
   inkscape:pageopacity="0"
   inkscape:pageshadow="2"
   inkscape:window-width="1855"
   inkscape:window-height="1176"
   id="namedview5732"
   showgrid="false"
   inkscape:zoom="0.89703061"
   inkscape:cx="486.46196"
   inkscape:cy="522.63615"
   inkscape:window-x="65"
   inkscape:window-y="24"
   inkscape:window-maximized="1"
   inkscape:current-layer="svg5436" />
 <defs
   id="defs5438">
  <style
   type="text/css"
   id="style5440">
   
    .fil12 {fill:none}
    .fil26 {fill:#4C4C4C}
    .fil21 {fill:#850000}
    .fil24 {fill:#A60000}
    .fil22 {fill:#E57A7A}
    .fil0 {fill:#E5E5E5}
    .fil5 {fill:white}
    .fil1 {fill:#213B6A}
    .fil2 {fill:#3058A0}
    .fil3 {fill:#3A6BC4}
    .fil4 {fill:#555555}
    .fil19 {fill:#6D6D6D}
    .fil17 {fill:#868686}
    .fil15 {fill:#999999}
    .fil25 {fill:#9E9E9E}
    .fil6 {fill:#A77968}
    .fil16 {fill:#AAAAAA}
    .fil14 {fill:#C9C9C9}
    .fil23 {fill:#D93030}
    .fil18 {fill:#D9D9D9}
    .fil7 {fill:#FCB69C}
    .fil8 {fill:#FCCCBB}
    .fil10 {fill:#FFDBCF}
    .fil11 {fill:#999999;fill-rule:nonzero}
    .fil20 {fill:#6D6D6D;fill-rule:nonzero}
    .fil13 {fill:url(#id0)}
    .fil9 {fill:url(#id1)}
   
  </style>
  <linearGradient
   id="id0"
   gradientUnits="userSpaceOnUse"
   x1="5.26918"
   y1="1.90704"
   x2="6.17835"
   y2="1.40969">
   <stop
   offset="0"
   style="stop-color:#E5E5E5"
   id="stop5443" />
   <stop
   offset="1"
   style="stop-color:black"
   id="stop5445" />
  </linearGradient>
  <linearGradient
   id="id1"
   gradientUnits="userSpaceOnUse"
   x1="5.98178"
   y1="2.8591"
   x2="6.23693"
   y2="2.64761">
   <stop
   offset="0"
   style="stop-color:#FFDBCF"
   id="stop5448" />
   <stop
   offset="1"
   style="stop-color:white"
   id="stop5450" />
  </linearGradient>
 </defs>
 <g
   id="Layer_x0020_1"
   inkscape:export-filename="/var/www/grades/assets/images/GradeKeepSwordKnight.png"
   inkscape:export-xdpi="90"
   inkscape:export-ydpi="90">
  <metadata
   id="CorelCorpID_0Corel-Layer" />
  <ellipse
   class="fil0"
   cx="3.28165"
   cy="6.90945"
   rx="1.82616"
   ry="0.375494"
   id="ellipse5454" />
  <polygon
   class="fil1"
   points="6.0062,3.00352 5.89092,3.03253 6.07284,3.38399 6.17613,3.33203 "
   id="polygon5456" />
  <polygon
   class="fil2"
   points="5.99784,3.02208 5.91434,3.04309 6.07968,3.3625 6.15416,3.32402 "
   id="polygon5458" />
  <polygon
   class="fil3"
   points="5.96715,3.02183 5.91434,3.04309 6.07968,3.3625 6.12147,3.34091 "
   id="polygon5460" />
  <polygon
   class="fil4"
   points="5.81254,2.90121 5.9407,2.8268 5.121,1.03385 4.80414,0.774276 4.84744,1.18313 "
   id="polygon5462" />
  <polygon
   class="fil5"
   points="5.82355,2.86088 4.876,1.17403 4.84086,0.842299 5.09713,1.05224 5.90294,2.81478 "
   id="polygon5464" />
  <path
   class="fil6"
   d="M6.13031 2.92636c0.0118425,-0.000311024 0.0232795,0.00292126 0.032315,0.0108268 0.032189,0.0281693 0.0116181,0.0939449 -0.00140945,0.127157 -0.0107598,0.0274449 -0.0411142,0.0950984 -0.0755079,0.0976929 -0.0572598,0.00435433 -0.144976,-0.0440315 -0.192378,-0.0735039l-0.0138071 -0.00858661 0.00472047 -0.0155591c0.00600394,-0.0198071 0.0138937,-0.0369843 0.0230709,-0.0554055 0.00808268,-0.0162244 0.0151339,-0.0312913 0.0204213,-0.0487402l0.00452362 -0.0149331 0.0156024 -0.000110236c0.0606378,-0.000444882 0.121268,-0.0183425 0.182449,-0.0188386z"
   id="path5466" />
  <path
   class="fil7"
   d="M6.13069 2.94756c0.0717835,-0.00223622 -0.0136024,0.190858 -0.0465906,0.193358 -0.0409528,0.00310236 -0.111197,-0.0278583 -0.179571,-0.0703858 0.0130354,-0.0429882 0.0304567,-0.0611457 0.0434882,-0.104138 0.0565827,-0.000409449 0.126098,-0.0184252 0.182673,-0.0188346z"
   id="path5468" />
  <path
   class="fil8"
   d="M6.13069 2.94756c0.0717835,-0.00223622 -0.0155354,0.150783 -0.0485197,0.15328 -0.0409528,0.00310236 -0.0911102,-0.0286575 -0.120937,-0.0872362 0.0130315,-0.0429882 -0.026248,-0.00421654 -0.0132165,-0.0472087 0.0565827,-0.000409449 0.126098,-0.0184252 0.182673,-0.0188346z"
   id="path5470" />
  <path
   class="fil6"
   d="M6.03441 2.81903c0.0320669,-0.00767323 0.0719724,0.0132677 0.0965709,0.0323465 0.0290945,0.0225591 0.0612087,0.0612008 0.0507913,0.100787 -0.0119843,0.0454921 -0.0738425,0.0731024 -0.114429,0.086311 -0.0331339,0.0107913 -0.119087,0.0321811 -0.147622,0.00383465l-0.00237402 -0.00235827 -0.00153543 -0.00298031c-0.0196614,-0.0382008 -0.0313425,-0.0786496 -0.0509173,-0.116669l-0.0101772 -0.0197598 0.0202244 -0.00922441c0.0518661,-0.0236575 0.10374,-0.047311 0.15561,-0.0709606l0.00186614 -0.000846457 0.00199213 -0.000480315z"
   id="path5472" />
  <path
   class="fil7"
   d="M6.03935 2.83964c0.0424685,-0.0101654 0.135087,0.0571417 0.121925,0.107126 -0.0172087,0.0654055 -0.2005,0.106441 -0.226614,0.0805039 -0.0231142,-0.0449016 -0.0278031,-0.0717756 -0.0509213,-0.116677 0.0518701,-0.0236496 0.10374,-0.0473031 0.15561,-0.0709528z"
   id="path5474" />
  <path
   class="fil8"
   d="M6.03935 2.83964c0.0424685,-0.0101654 0.135087,0.0571417 0.121925,0.107126 -0.0086063,0.0327008 -0.044626,0.049874 -0.0817559,0.0556299 -0.0766102,0.011878 -0.0899291,-0.0112165 -0.115862,-0.0733504 -0.00793307,-0.0190157 -0.0158701,-0.0380315 -0.0274291,-0.0604803 0.0518701,-0.0236535 0.051252,-0.00527559 0.103122,-0.0289252z"
   id="path5476" />
  <path
   class="fil6"
   d="M5.90339 2.92936c-0.000318898,0.0243583 0.00364567,0.0489094 0.0106535,0.0713268 0.0152874,0.0489016 0.0463937,0.0935 0.0907283,0.120142l0.0126339 0.00759055 -0.00272047 0.0144843c-0.0135,0.0719606 -0.0901457,0.104441 -0.156276,0.106622 -0.0148228,0.000484252 -0.036189,0.00591339 -0.0509803,0.00902756 -0.0177362,0.00372835 -0.0403858,0.00932283 -0.058311,0.00990945l-0.0131693 0.000433071 -0.0062126 -0.0116181c-0.010315,-0.0192913 -0.0146024,-0.0361339 -0.0185669,-0.0573071 -0.00314173,-0.0167559 -0.00611811,-0.0298661 -0.0142795,-0.0451339l-0.00353937 -0.00662992 0.00142126 -0.00737402c0.0175315,-0.0907953 0.0395157,-0.180752 0.0570512,-0.271539 0.0170354,-0.0881929 0.00759055,-0.10037 0.0984252,-0.133276 0.0367362,-0.0132992 0.073126,-0.0274646 0.110803,-0.0379764 0.0191102,-0.00533465 0.0432559,-0.0139961 0.0626693,-0.00649213 0.019874,0.00767717 0.0299646,0.0292323 0.0380512,0.0474685 0.014248,0.0320906 0.0256496,0.0655039 0.0314488,0.100209 0.00738583,0.0442795 -0.00234646,0.0640039 -0.0350157,0.093563 -0.0371772,0.033622 -0.0932283,0.0500433 -0.136213,0.0166457 -0.00744882,-0.0057874 -0.0136496,-0.0125709 -0.0186024,-0.0200748z"
   id="path5478" />
  <path
   class="fil7"
   d="M5.71557 3.14485c0.0154094,-0.0797835 0.0416457,-0.191756 0.0570591,-0.271531 0.0165,-0.0854291 0.0050748,-0.0884882 0.0848228,-0.11737 0.036185,-0.0131024 0.0720118,-0.0270906 0.109291,-0.0374961 0.046937,-0.0130984 0.055122,-0.0171181 0.0756614,0.0291614 0.0135433,0.0305118 0.0244134,0.0622165 0.0299016,0.0950984 0.00602756,0.0360906 -0.000287402,0.0489882 -0.028315,0.0743465 -0.0865354,0.0782677 -0.191854,-0.0123031 -0.0971732,-0.128177 -0.0238307,0.0130709 -0.0355551,0.0375276 -0.0486339,0.0635945 -0.0402165,0.0895551 -0.00332677,0.227035 0.0956654,0.286516 -0.0114528,0.0610709 -0.0839449,0.0900787 -0.137067,0.0873268 -0.0227244,-0.00117717 -0.0856142,0.0202087 -0.108362,0.0209646 -0.0210236,-0.039311 -0.0118307,-0.063122 -0.0328504,-0.102433z"
   id="path5480" />
  <path
   class="fil9"
   d="M5.71557 3.14485c0.0154094,-0.0797835 0.0416457,-0.191756 0.0570591,-0.271531 0.0165,-0.0854291 0.0050748,-0.0884882 0.0848228,-0.11737 0.036185,-0.0131024 0.0720118,-0.0270906 0.109291,-0.0374961 0.046937,-0.0130984 0.055122,-0.0171181 0.0756614,0.0291614 0.0135433,0.0305118 0.0244134,0.0622165 0.0299016,0.0950984 0.00602756,0.0360906 -0.000287402,0.0489882 -0.028315,0.0743465 -0.0865354,0.0782677 -0.191854,-0.0123031 -0.0971732,-0.128177 -0.0238307,0.0130709 -0.0355551,0.0375276 -0.0486339,0.0635945 -0.0339331,0.0755591 -0.0406457,0.188894 0.0175433,0.258197 0.0425748,0.0506929 0.0489961,0.0546024 -0.0387795,0.081189 -0.0955512,0.0289331 -0.246409,0.0432677 -0.26248,0.0437992 -0.0210236,-0.039311 0.122122,-0.0515 0.101102,-0.090811z"
   id="path5482" />
  <path
   class="fil8"
   d="M5.71557 3.14485c0.0154094,-0.0797835 0.0416457,-0.191756 0.0570591,-0.271531 0.0165,-0.0854291 0.00507874,-0.0884882 0.0848228,-0.11737 0.0563031,-0.0203858 0.111134,-0.0299685 0.146547,-0.00112992 0.0277913,0.022622 0.0701063,0.135 0.0399921,0.16224 -0.0865354,0.0782677 -0.191854,-0.0123031 -0.0971732,-0.128177 -0.0238307,0.0130709 -0.0355551,0.0375276 -0.0486339,0.0635945 -0.0339331,0.0755591 -0.0406457,0.188894 0.0175433,0.258197 0.0425748,0.0506929 0.0489961,0.0546024 -0.0387795,0.081189 -0.0955512,0.0289331 -0.246409,0.0432677 -0.26248,0.0437992 -0.0210236,-0.039311 0.122122,-0.0515 0.101102,-0.090811z"
   id="path5484" />
  <path
   class="fil6"
   d="M5.92407 2.86424c0.00835433,0.0529449 0.0204882,0.0960945 0.0488189,0.14224 0.00755512,0.012311 0.016063,0.0243622 0.023063,0.0369488 0.00604724,0.010878 0.0118661,0.0241024 0.00716535,0.0365827 -0.00913386,0.0242402 -0.0510433,0.0235276 -0.0719055,0.0233465 -0.0378268,-0.000318898 -0.0783465,-0.0135276 -0.100953,-0.0456299 -0.0255906,-0.0363465 0.00114173,-0.0855039 0.0201024,-0.122441 -0.0105709,-0.00573228 -0.0397835,-0.00604724 -0.0503543,-0.0117835l-0.0148465 -0.00805118 0.0109843 -0.0128268c0.0154843,-0.0180827 0.0309685,-0.0361614 0.0464528,-0.0542402l0.000448819 -0.000531496 0.000503937 -0.000476378c0.00458661,-0.00436614 0.00971654,-0.0082874 0.0150748,-0.0116535 0.0141063,-0.00885827 0.034878,-0.016811 0.0506535,-0.00755512 0.0128819,0.00755906 0.0157559,0.0222913 0.0147913,0.0360709z"
   id="path5486" />
  <path
   class="fil7"
   d="M5.78515 2.91546c0.018126,-0.0129213 0.0523307,-0.0401142 0.067815,-0.0581929 0.0203228,-0.0193543 0.0613583,-0.0350551 0.0573622,0.00748819 0.00885433,0.0568425 0.0214528,0.10087 0.0509252,0.148874 0.030252,0.0492638 0.0595039,0.0768465 -0.0299291,0.0760866 -0.0797756,-0.000677165 -0.135354,-0.061 -0.0809646,-0.154425 -0.0526772,0.0491693 -0.0724252,8.26772e-005 -0.0652087,-0.0198307z"
   id="path5488" />
  <path
   class="fil8"
   d="M5.78515 2.91546c0.018126,-0.0129213 0.0523307,-0.0401142 0.067815,-0.0581929 0.0203228,-0.0193543 0.0613583,-0.0350551 0.0573622,0.00748819 0.00885433,0.0568425 0.0214528,0.10087 0.0509252,0.148874 0.030252,0.0492638 0.0489567,0.0531181 -0.0404724,0.0523622 -0.0797795,-0.000681102 -0.0857441,-0.0612598 -0.0704213,-0.130701 -0.0526772,0.0491693 -0.0724252,8.26772e-005 -0.0652087,-0.0198307z"
   id="path5490" />
  <path
   class="fil10"
   d="M6.16112 2.92545c-0.0199449,-0.017811 -0.0425984,-0.0330669 -0.0670354,-0.0453465 0.00159055,-0.00802362 0.00187008,-0.0168543 0.000944882,-0.0270906 0.0302126,0.0165866 0.0594016,0.0450906 0.0660906,0.072437z"
   id="path5492" />
  <polygon
   class="fil11"
   points="5.77262,2.76699 5.76619,2.65159 5.86012,2.72153 5.86729,2.71191 5.76306,2.6343 5.75276,2.62663 5.75348,2.63945 5.76062,2.76768 "
   id="polygon5494" />
  <polyline
   class="fil12"
   points="5.76662,2.76733 5.75947,2.63911 5.86371,2.71672 "
   id="polyline5496" />
  <polygon
   class="fil11"
   points="4.83551,0.84502 5.75412,2.64184 5.76483,2.63639 4.84621,0.839575 "
   id="polygon5498" />
  <polygon
   class="fil13"
   points="4.84263,0.858941 5.75355,2.64071 5.75946,2.74678 4.876,1.17403 "
   id="polygon5500" />
  <path
   class="fil1"
   d="M5.7906 2.72047c-0.0104488,0.017248 -0.0226339,0.0335197 -0.035874,0.0487205 -0.0269528,0.0309331 -0.0599488,0.059374 -0.094937,0.0808661 -0.0215354,0.0132244 -0.0554291,0.0305118 -0.0812992,0.0307047l-0.0157559 0.0261496c0.00960236,0.0185079 0.0186575,0.0372913 0.0282638,0.0557992l0.00837008 0.016126 0.016 -0.0086063c0.171772,-0.0923858 0.343547,-0.184772 0.515319,-0.277161l0.0170118 -0.00914567 -0.0104134 -0.0162717c-0.0119252,-0.0186299 -0.0238425,-0.0372598 -0.0357717,-0.0558937l-0.0122165 -0.0190906 -0.0157402 0.0163071c-0.0726535,0.0752598 -0.164264,0.10522 -0.267236,0.102874l-0.0103543 -0.00023622 -0.00536614 0.00885827z"
   id="path5502" />
  <path
   class="fil3"
   d="M6.08643 2.62141c-0.0840079,0.0870236 -0.185768,0.110496 -0.280524,0.108335 -0.056815,0.0937835 -0.183618,0.176717 -0.243173,0.177165 0.00968504,0.0186654 0.0344646,0.0288898 0.0441496,0.0475551 0.178598,-0.0960591 0.336724,-0.181106 0.515319,-0.277165 -0.0119213,-0.0186299 -0.0238465,-0.0372598 -0.0357717,-0.0558898z"
   id="path5504" />
  <path
   class="fil1"
   d="M6.12869 2.57148l-0.0592402 0.0307402c-0.0152756,0.0079252 -0.0212638,0.0268268 -0.0133386,0.0421024l0.025937 0.0499803c0.0079252,0.0152756 0.0268307,0.0212638 0.0421024,0.0133346l0.0592402 -0.0307362c0.0152756,-0.0079252 0.0212638,-0.0268346 0.0133386,-0.0421063l-0.025937 -0.0499803c-0.00792126,-0.0152756 -0.0268307,-0.0212638 -0.0421024,-0.0133346z"
   id="path5506" />
  <rect
   class="fil2"
   transform="matrix(-1.65995 0.861349 0.861349 1.65995 6.14877 2.58123)"
   width="0.0499409"
   height="0.0443622"
   rx="0.00712598"
   ry="0.00712598"
   id="rect5508" />
  <path
   class="fil3"
   d="M6.0777 2.61811c-0.00651181,0.00337795 -0.0090748,0.0114567 -0.00569685,0.0179685l0.025937 0.0499803c0.00337795,0.00650787 0.0114606,0.00906299 0.0179685,0.00568898 0.0328898,-0.0170591 0.0629685,-0.0252992 0.0467559,-0.052185l-0.0153228 -0.0254134c-0.0157008,-0.0260394 -0.0444213,-0.00912598 -0.0696417,0.00396063z"
   id="path5510" />
  <path
   class="fil1"
   d="M5.57484 2.87024l-0.0655157 0.0339961c-0.0135512,0.00702756 -0.0188583,0.0237874 -0.0118268,0.0373346l0.0291929 0.0562559c0.00702756,0.0135512 0.0237835,0.0188583 0.0373346,0.0118268l0.0655157 -0.0339921c0.0135512,-0.0070315 0.0188583,-0.0237913 0.0118268,-0.0373425l-0.029189 -0.056248c-0.00701969,-0.0135591 -0.0237874,-0.0188622 -0.0373386,-0.0118307z"
   id="path5512" />
  <rect
   class="fil2"
   transform="matrix(-1.65995 0.861349 0.861349 1.65995 5.59178 2.88161)"
   width="0.0499409"
   height="0.0443622"
   rx="0.00523622"
   ry="0.00523622"
   id="rect5514" />
  <path
   class="fil2"
   d="M6.05022 2.71602l-0.0187323 0.0100748 -0.0390512 0.0210039 -0.0707717 0.0380669 -0.0259055 0.0139291 -0.0821142 0.0441654 -0.0258543 0.0139055 -0.0134843 0.00725591 -0.0240591 0.012937 -0.0141417 0.0076063c0.00483071,-0.00292126 0.00962598,-0.00585433 0.0143701,-0.00879921 0.00831102,-0.00514961 0.0164843,-0.0103307 0.0245197,-0.0155472 0.00361811,-0.00234646 0.00720472,-0.00470079 0.0107677,-0.00706299 0.00827559,-0.00548819 0.0163976,-0.0110197 0.0243504,-0.0165827 0.0274252,-0.019185 0.0528819,-0.0388268 0.0760079,-0.0589528 0.00787008,-0.00685433 0.0154764,-0.0137638 0.0227992,-0.0207323 0.00677953,-0.00646063 0.013311,-0.0129646 0.0195945,-0.0195157 0.00341339,-0.00356693 0.00675591,-0.00714567 0.0100157,-0.0107402 0.00598819,-0.00660236 0.0117126,-0.013252 0.0171654,-0.0199528 0.0135748,-0.00493701 0.0270276,-0.0107913 0.0402953,-0.0176772 0.021252,-0.0110276 0.0420197,-0.0246929 0.0620039,-0.0414449l0.0240512 0.0463504c0.000629921,0.00121654 0.00133071,0.00237402 0.00209055,0.00347244l-0.0339173 0.0182402z"
   id="path5516" />
  <path
   class="fil3"
   d="M5.55398 2.90123c-0.00116535,0.0318858 0.00678346,0.0603858 0.0231181,0.0814685l-0.0213189 0.011063c-0.00478346,0.00248031 -0.0107205,0.000602362 -0.0132008,-0.0041811l-0.0291929 -0.0562559c-0.00248425,-0.00478346 -0.000602362,-0.0107205 0.00418504,-0.0132008l0.0364094 -0.0188937z"
   id="path5518" />
  <path
   class="fil4"
   d="M4.13774 6.35867c0.0510039,-0.14863 -0.0126378,-0.251976 -0.0335748,-0.395677 -0.0267795,-0.183823 0.0407953,-0.347016 0.138539,-0.499224l0.0098937 -0.0154094 0.0171535 0.00641339c0.123476,0.0461496 0.246953,0.0922953 0.370421,0.138453l0.0102441 0.00383071 0.00339764 0.0103976c0.0380866,0.116752 -0.0162087,0.271673 -0.0508228,0.38465 -0.0317205,0.103504 -0.0783228,0.248969 -0.0377165,0.354846l0.0107638 0.0280787 -0.0299606 0.00266929c-0.127563,0.0113228 -0.257437,-0.000370079 -0.384846,0.0109646l-0.0348425 0.00309449 0.0113504 -0.0330866z"
   id="path5520" />
  <path
   class="fil14"
   d="M4.26181 5.47604c-0.122232,0.190327 -0.156075,0.340264 -0.135173,0.483677 0.0218543,0.15 0.0864449,0.249346 0.0325748,0.406323 0.114059,-0.0101378 0.270799,-0.000826772 0.384866,-0.0109606 -0.0821929,-0.214315 0.15524,-0.534965 0.0881496,-0.740591 -0.123476,-0.0461496 -0.246949,-0.0922992 -0.370417,-0.138449z"
   id="path5522" />
  <path
   class="fil15"
   d="M4.26181 5.47604c-0.122232,0.190327 -0.156075,0.340264 -0.135173,0.483677 0.0218543,0.15 0.0864449,0.249346 0.0325748,0.406323 0.114059,-0.0101378 0.223969,0.00224016 0.338035,-0.0078937 -0.0821929,-0.214315 0.149681,-0.557614 0.0825906,-0.763236 -0.12348,-0.0461496 -0.194559,-0.0727205 -0.318028,-0.11887z"
   id="path5524" />
  <path
   class="fil16"
   d="M4.40404 5.50497c-0.352201,0.234394 -0.067311,0.573693 -0.244823,0.861075 0.114059,-0.0101378 0.223969,0.00224016 0.338035,-0.0078937 -0.0821929,-0.214315 0.149681,-0.557614 0.0825906,-0.763236 -0.12348,-0.0461496 -0.0523307,-0.0437953 -0.175803,-0.0899449z"
   id="path5526" />
  <path
   class="fil4"
   d="M4.2414 5.48599c-0.12322,-0.252858 -0.111327,-0.549496 -0.136614,-0.82324l-0.00226378 -0.0244961 0.0245984 -0.000299213c0.262429,-0.00320866 0.524858,-0.00641732 0.787291,-0.00964173l0.0320709 -0.000389764 -0.0102953 0.030378c-0.0183898,0.0543031 -0.0330906,0.109882 -0.0467047,0.165547 -0.0522205,0.213579 -0.0934213,0.507547 -0.314303,0.61448l-0.00414173 0.00200394 -0.00459843 0.00023622c-0.102256,0.00518504 -0.199528,0.052874 -0.303476,0.0581535l-0.0149961 0.000755906 -0.00656693 -0.0134882z"
   id="path5528" />
  <path
   class="fil14"
   d="M4.12739 4.66066c0.0256575,0.277772 0.0140039,0.568283 0.134421,0.815386 0.100673,-0.00511024 0.202803,-0.0530433 0.303476,-0.0581575 0.24902,-0.120555 0.250693,-0.475461 0.349394,-0.76687 -0.278331,0.00341339 -0.508961,0.00623228 -0.787291,0.00964173z"
   id="path5530" />
  <path
   class="fil15"
   d="M4.12739 4.66066c0.0256575,0.277772 0.0140039,0.568283 0.134421,0.815386 0.100673,-0.00511024 0.123461,-0.0417598 0.224134,-0.0468701 0.24902,-0.120555 0.206161,-0.485224 0.304862,-0.776634 -0.278331,0.00340945 -0.385087,0.00470866 -0.663417,0.00811811z"
   id="path5532" />
  <path
   class="fil16"
   d="M4.40541 4.63455c-0.041189,0.292886 -0.151961,0.570972 -0.0315433,0.818075 0.100673,-0.00511417 0.0114055,-0.0183386 0.112079,-0.0234488 0.24902,-0.120555 0.206161,-0.485224 0.304862,-0.776634 -0.278331,0.00340945 -0.107067,-0.0213976 -0.385398,-0.0179921z"
   id="path5534" />
  <path
   class="fil4"
   d="M4.25562 5.38945c0.0417559,-0.0380866 0.086874,-0.0730039 0.138622,-0.0964843 0.061748,-0.0280236 0.164827,-0.0528661 0.23176,-0.0382323 0.0797323,0.017437 0.136276,0.079252 0.160626,0.155283 0.0244173,0.0762677 0.0131142,0.142878 -0.0292795,0.210169 -0.0311339,0.0494134 -0.0745079,0.0882756 -0.129673,0.108646 -0.14585,0.0538583 -0.297677,-0.0394606 -0.393709,-0.143976 -0.0932323,-0.101453 -0.0701772,-0.111701 0.0216535,-0.195406z"
   id="path5536" />
  <path
   class="fil16"
   d="M4.27091 5.40622c0.0370787,-0.0338071 0.0811654,-0.0691969 0.132709,-0.0925827 0.0565157,-0.0256378 0.155567,-0.0502677 0.217524,-0.0367205 0.0723425,0.0158189 0.122224,0.0724528 0.143854,0.140028 0.0222756,0.0695709 0.0125591,0.128563 -0.0268701,0.191146 -0.102362,0.162476 -0.313264,0.150957 -0.487449,-0.0386024 -0.0811024,-0.0882559 -0.0655039,-0.0851063 0.0202323,-0.163268z"
   id="path5538" />
  <path
   class="fil17"
   d="M4.27091 5.40622c0.0370787,-0.0338071 0.0811654,-0.0691969 0.132709,-0.0925827 0.0565157,-0.0256378 0.155567,-0.0502638 0.217524,-0.0367205 0.0987992,0.0216024 0.0693543,0.272299 0.0326614,0.330543 -0.102362,0.162469 -0.228941,0.151583 -0.403126,-0.0379724 -0.0810984,-0.0882559 -0.0655039,-0.0851063 0.0202323,-0.163268z"
   id="path5540" />
  <path
   class="fil4"
   d="M5.66989 3.4184c-0.106902,0.0590984 -0.21476,0.116488 -0.321673,0.175575 -0.176492,0.0975472 -0.261311,0.097622 -0.444492,0.0231024 -0.157083,-0.0638937 -0.322421,-0.122567 -0.47402,-0.197882l-0.0256299 -0.0127323 0.0182283 -0.022063c0.123374,-0.149283 0.229102,-0.314299 0.352504,-0.463622l0.0111811 -0.0135276 0.0159055 0.00740551c0.0881969,0.0410669 0.166217,0.0974134 0.235835,0.165075 0.025563,0.0248425 0.0492047,0.0510472 0.074311,0.0761535 0.0110866,0.0110906 0.0264252,0.0261299 0.0417953,0.0308228 0.00164567,0.000503937 0.00332283,0.000897638 0.00501575,0.00120079 0.0321929,0.00572441 0.0985,-0.0182874 0.129075,-0.0282362 0.0622992,-0.0203031 0.132417,-0.000807087 0.190004,-0.0195472l0.0196575 -0.0063937 0.0082126 0.0189685c0.0381732,0.0882165 0.133484,0.14335 0.173949,0.236819l0.0081811 0.0189134 -0.0180394 0.0099685z"
   id="path5542" />
  <path
   class="fil14"
   d="M4.79231 2.93524c0.099126,0.0461417 0.174402,0.107126 0.229587,0.160764 0.0696772,0.0677244 0.094378,0.107382 0.132984,0.114252 0.0300315,0.00533858 0.0678346,-0.00548031 0.140075,-0.0290079 0.0574843,-0.0187244 0.132508,-0.000826772 0.190004,-0.0195433 0.0389016,0.0898858 0.135035,0.146925 0.173949,0.236823 -0.0942323,0.0520866 -0.227472,0.123504 -0.321673,0.175567 -0.177669,0.0981969 -0.256689,0.0904055 -0.424961,0.0219488 -0.143307,-0.0582992 -0.34174,-0.13224 -0.472465,-0.197181 0.102157,-0.123622 0.250339,-0.340008 0.3525,-0.463622z"
   id="path5544" />
  <path
   class="fil17"
   d="M4.73288 2.97289c0.21389,0.0574055 0.369016,0.279543 0.407622,0.286409 0.0300315,0.00534252 0.0822205,-0.0545197 0.154461,-0.0780472 0.0574843,-0.0187244 0.132508,-0.000826772 0.190004,-0.0195433 0.0389016,0.0898858 0.135035,0.146925 0.173949,0.236823 -0.0942323,0.0520866 -0.227472,0.123504 -0.321673,0.175567 -0.177669,0.0981969 -0.256689,0.0904055 -0.424961,0.0219488 -0.143307,-0.0582992 -0.34174,-0.13224 -0.472465,-0.197181 0.102157,-0.123622 0.190906,-0.302366 0.293063,-0.425976z"
   id="path5546" />
  <path
   class="fil16"
   d="M4.73288 2.97289c0.21389,0.0574055 0.369016,0.279543 0.407622,0.286409 0.0300315,0.00534252 0.0822205,-0.0545197 0.154461,-0.0780472 0.0574843,-0.0187244 0.132508,-0.000826772 0.190004,-0.0195433 0.0389016,0.0898858 0.0929213,0.0795827 0.131831,0.16948 -0.0942323,0.0520866 -0.252732,0.133606 -0.346917,0.185657 -0.177657,0.0981772 -0.236492,0.00282677 -0.404752,-0.0656181 -0.143295,-0.0582913 -0.294587,0.0125787 -0.425311,-0.0523622 0.102157,-0.123622 0.190906,-0.302366 0.293063,-0.425976z"
   id="path5548" />
  <path
   class="fil4"
   d="M4.06103 2.80122c0.163335,-0.0639134 0.488732,-0.0945354 0.656795,-0.0441969 0.171591,0.051378 0.25385,0.247492 0.18265,0.410579 -0.0128661,0.0294685 -0.0310591,0.0564685 -0.052248,0.0805709 -0.05,0.0568661 -0.151669,0.127441 -0.230161,0.129815l-0.0102638 0.000314961 -0.00701969 -0.00751181c-0.17376,-0.186181 -0.374252,-0.346705 -0.548067,-0.532929l-0.0228268 -0.0244567 0.0311417 -0.012185z"
   id="path5550" />
  <path
   class="fil14"
   d="M4.0693 2.82237c0.16863,-0.0659882 0.487929,-0.0897402 0.642012,-0.0435906 0.144886,0.0433898 0.239906,0.215843 0.168346,0.379752 -0.0508543,0.116504 -0.194661,0.194728 -0.262283,0.196768 -0.164228,-0.175961 -0.383846,-0.356972 -0.548075,-0.532929z"
   id="path5552" />
  <path
   class="fil16"
   d="M4.0693 2.82237c0.16863,-0.0659882 0.422142,-0.0703858 0.576228,-0.024248 0.14487,0.0433898 0.305673,0.1965 0.23413,0.360409 -0.0508543,0.116492 -0.194661,0.194728 -0.262283,0.196768 -0.164228,-0.175961 -0.383846,-0.356972 -0.548075,-0.532929z"
   id="path5554" />
  <path
   class="fil4"
   d="M3.04746 6.31651c0.00176772,-0.230079 0.0451063,-0.471551 0.173831,-0.66465l0.00730709 -0.0109528 0.0131378 0.000909449c0.133106,0.00919291 0.266217,0.0184173 0.399323,0.027622l0.00833465 0.00057874 0.0059685 0.00583465c0.210776,0.206181 -0.125776,0.437315 -0.211071,0.611886 -0.0532598,0.104606 -0.108272,0.208421 -0.161524,0.313091l-0.0175709 0.0345512 -0.0215394 -0.0322244c-0.0672992,-0.100685 -0.124886,-0.173276 -0.192358,-0.273846l-0.00389764 -0.00581102 5.90551e-005 -0.00698819z"
   id="path5556" />
  <path
   class="fil15"
   d="M3.24016 5.66447c-0.138933,0.208209 -0.178535,0.467016 -0.180035,0.664256 0.0673425,0.100673 0.135083,0.161134 0.202425,0.261811 0.0895472,-0.176043 0.116768,-0.225185 0.161445,-0.31302 0.0883228,-0.180689 0.40939,-0.395728 0.215492,-0.585449 -0.13311,-0.00920079 -0.266217,-0.0184016 -0.399327,-0.0275984z"
   id="path5558" />
  <path
   class="fil16"
   d="M3.33239 5.68907c-0.138933,0.208209 -0.198799,0.441961 -0.200303,0.639201 0.0673425,0.100677 0.0631142,0.161591 0.130457,0.262268 0.0895472,-0.176043 0.116768,-0.225185 0.161445,-0.31302 0.0883228,-0.180689 0.40939,-0.395728 0.215492,-0.585449 -0.13311,-0.00920079 -0.17398,0.00619685 -0.307091,-0.003z"
   id="path5560" />
  <path
   class="fil4"
   d="M3.35917 4.53423c0.272071,0.0688346 0.557098,0.0694291 0.829559,0.138358l0.0241614 0.00611811 -0.00833465 0.0234921c-0.0720236,0.202831 -0.275079,0.79239 -0.492051,0.845965l-0.00550787 0.0013622 -0.00549606 -0.0013937c-0.134165,-0.0338858 -0.268335,-0.0677717 -0.402508,-0.101661l-0.0149488 -0.00377165 -0.00200394 -0.0152874c-0.0323386,-0.246433 -0.00972835,-0.460161 0.0253622,-0.70339 0.00820079,-0.0568268 0.0165079,-0.113638 0.0236693,-0.170606l0.00319685 -0.0254764 0.0249016 0.00629134z"
   id="path5562" />
  <path
   class="fil15"
   d="M3.35359 4.55624c-0.034685,0.275949 -0.0933898,0.530303 -0.0490394,0.86822 0.134169,0.0338819 0.268335,0.0677717 0.402504,0.101657 0.184547,-0.0455748 0.364902,-0.51837 0.476098,-0.831516 -0.268736,-0.0679961 -0.560827,-0.0703661 -0.829563,-0.138362z"
   id="path5564" />
  <path
   class="fil16"
   d="M3.58179 4.57773c-0.034685,0.275949 -0.194193,0.540984 -0.149843,0.878906 0.134169,0.0338819 0.140937,0.0355945 0.275106,0.0694803 0.184547,-0.0455748 0.364902,-0.51837 0.476098,-0.831516 -0.268736,-0.0679961 -0.332626,-0.048874 -0.601362,-0.11687z"
   id="path5566" />
  <path
   class="fil18"
   d="M3.02471 6.39021c-0.174673,0.190453 -0.319272,0.337732 -0.483272,0.519378 -0.0403268,0.057937 -0.0903268,0.130504 -0.0283937,0.176453 0.210319,0.00656693 0.702098,-0.0290433 0.84324,-0.124287 0.0393976,-0.0265827 0.0385276,-0.0507953 0.0390827,-0.0936732 0.00246063,-0.170402 -0.0291142,-0.281815 -0.0419331,-0.468772 -0.0469488,-0.00199606 -0.0509803,-0.00464173 -0.091878,-0.0254882 -0.112244,-0.0572165 -0.157898,-0.0696811 -0.236846,0.0163898z"
   id="path5568" />
  <path
   class="fil4"
   d="M2.52459 6.89438c0.15852,-0.175594 0.323496,-0.345181 0.483386,-0.519516 0.0918898,-0.100177 0.153118,-0.0777362 0.26389,-0.0212677 0.0367913,0.018752 0.0408386,0.0212559 0.0825315,0.0230276l0.0202913 0.000862205 0.00138976 0.0202717c0.0115236,0.168008 0.0182323,0.333618 0.0159134,0.502071 -0.000850394,0.0632126 -0.0882756,0.0629094 -0.126846,0.0889252 -0.154496,0.104224 -0.564413,0.12587 -0.752815,0.119988l-0.0071063 -0.000228346 -0.0057126 -0.00424016c-0.0788504,-0.0585 -0.018248,-0.147976 0.0232913,-0.207654l0.000822835 -0.0011811 0.000964567 -0.00105906z"
   id="path5570" />
  <path
   class="fil15"
   d="M3.02471 6.39021c-0.174673,0.190453 -0.319272,0.337732 -0.483272,0.519378 -0.0403268,0.057937 -0.0903268,0.130504 -0.0283937,0.176453 0.210319,0.00656693 0.598311,-0.0209213 0.739409,-0.11611 0.0393465,-0.0265472 0.11626,-0.0276181 0.116835,-0.0704213 0.00234646,-0.170386 -0.00303543,-0.313244 -0.0158543,-0.500201 -0.0469488,-0.00199606 -0.0509803,-0.00464173 -0.091878,-0.0254882 -0.112244,-0.0572165 -0.157898,-0.0696811 -0.236846,0.0163898z"
   id="path5572" />
  <path
   class="fil16"
   d="M3.05281 6.40641c-0.110024,0.242933 -0.28274,0.341713 -0.44674,0.523358 -0.0403228,0.057937 -0.154957,0.110323 -0.0930236,0.156272 0.210319,0.00656693 0.598311,-0.0209213 0.739409,-0.11611 0.0393465,-0.0265472 0.11626,-0.0276181 0.116835,-0.0704213 0.00234646,-0.170386 -0.00303543,-0.313244 -0.0158543,-0.500201 -0.0469488,-0.00199606 -0.051,-0.00466142 -0.091878,-0.0254882 -0.112228,-0.0571969 -0.160579,-0.0737717 -0.208748,0.0325906z"
   id="path5574" />
  <path
   class="fil4"
   d="M3.29625 7.015c-0.0309724,0.0224606 -0.085626,0.0432913 -0.123768,0.0329882l-0.0205 -0.0055315 0.00414961 -0.0208228c0.0188583,-0.0947913 0.0218937,-0.220996 0.00448425,-0.314992 -0.0235276,-0.127043 -0.0859252,-0.229157 -0.225024,-0.242886l-0.0254094 -0.00250787 0.0054685 -0.024937c0.00800394,-0.0365827 0.0280236,-0.0641969 0.0573583,-0.0865236 0.0605827,-0.0461654 0.133315,-0.0705157 0.208886,-0.0761535 0.0800433,-0.006 0.15515,0.0137165 0.205193,0.0800315 0.0673661,0.0892677 0.0651732,0.232764 0.0493189,0.338106l-0.00102362 0.00681102 -0.00463386 0.00508661c-0.058126,0.0638858 -0.107433,0.212843 -0.125626,0.297709l-0.00182677 0.00851575 -0.00704724 0.0051063z"
   id="path5576" />
  <path
   class="fil19"
   d="M2.93783 6.44117c0.350366,0.0345709 0.240579,0.584898 0.240579,0.584898 0.0321339,0.00867717 0.0812795,-0.0125945 0.104516,-0.0294488 0.0180354,-0.084126 0.0690315,-0.240083 0.131035,-0.308228 0.0128386,-0.085311 0.0497953,-0.41311 -0.23037,-0.392114 -0.071126,0.00530709 -0.139697,0.0280433 -0.196815,0.0715669 -0.0233071,0.0177402 -0.0417126,0.0403071 -0.0489449,0.0733268z"
   id="path5578" />
  <path
   class="fil17"
   d="M3.16457 6.58497c0.0578228,0.163835 0.0138346,0.441098 0.0138346,0.441098 0.0321339,0.00867717 0.0812795,-0.0125945 0.104516,-0.0294488 0.0180354,-0.084126 0.0690315,-0.240083 0.131035,-0.308228 0.0128386,-0.085311 0.0114528,-0.363756 -0.187402,-0.356949 -0.322953,0.0240827 -0.111984,0.111854 -0.0619843,0.253528z"
   id="path5580" />
  <path
   class="fil14"
   d="M3.10372 6.72052c-0.00333465,0.223882 -0.0514528,0.289898 -0.171933,0.309543 -0.0525079,0.00854331 -0.108461,0.00951181 -0.161587,0.0098937 -0.0424252,0.00030315 -0.0813071,-0.00247244 -0.100953,-0.0144803 0.219528,-0.00714567 0.389343,-0.00527953 0.434472,-0.304957z"
   id="path5582" />
  <path
   class="fil4"
   d="M3.32562 5.81882c-0.0922756,-0.0159961 -0.191921,-0.0871929 -0.22085,-0.181059 -0.0154961,-0.0502913 -0.00883858,-0.085685 0.0156181,-0.129882 0.0418898,-0.0756654 0.108587,-0.130146 0.195374,-0.153315 0.161386,-0.0430827 0.352236,0.0352126 0.424441,0.185547 0.0307047,0.0639685 0.0322008,0.0766929 -0.00117323,0.133382 -0.0852598,0.144705 -0.249299,0.182894 -0.413409,0.145327z"
   id="path5584" />
  <path
   class="fil19"
   d="M3.71694 5.54401c-0.0986732,-0.194803 -0.41261,-0.25285 -0.554957,-0.0591969 -0.0457598,0.0622598 -0.0570551,0.117878 -0.016185,0.187157 0.0353346,0.0598937 0.102827,0.110677 0.18428,0.124559 0.118508,0.0272913 0.282843,0.021252 0.376382,-0.113878 0.0368543,-0.0532323 0.0397874,-0.080748 0.0104803,-0.138642z"
   id="path5586" />
  <path
   class="fil17"
   d="M3.71694 5.54401c-0.0986614,-0.194803 -0.324571,-0.25076 -0.466913,-0.0571063 -0.0491811,0.0669134 -0.048878,0.287661 0.0800512,0.309626 0.118508,0.0272913 0.282843,0.021252 0.376382,-0.113878 0.0368543,-0.0532323 0.0397913,-0.080752 0.0104803,-0.138642z"
   id="path5588" />
  <path
   class="fil4"
   d="M5.34336 3.58969c-0.0526457,0.157323 -0.289496,0.149776 -0.388441,0.0446339l-0.00975197 -0.010378 0.00507874 -0.0132913c0.0550984,-0.144028 0.0835827,-0.299433 0.138736,-0.443606l0.00353937 -0.00924409 0.00919291 -0.00369685c0.0305748,-0.0123189 0.0723819,-0.00268898 0.0901575,0.0263819l0.00162598 0.00266142 0.00084252 0.00298031c0.00611417,0.0207244 0.0164449,0.0446496 0.0241929,0.0650472 0.0162323,0.0426969 0.032626,0.0853346 0.0490512,0.127961 0.0250591,0.0650669 0.0501969,0.130118 0.0754173,0.19513l0.00296063 0.00764173 -0.00260236 0.00777953z"
   id="path5590" />
  <path
   class="fil19"
   d="M5.1725 3.19233c0.0053937,0.0190591 0.149335,0.390146 0.149335,0.390146 -0.0229961,0.0687087 -0.0881457,0.101614 -0.158776,0.105441 -0.0706142,0.00382677 -0.14672,-0.0214685 -0.191602,-0.0691614 0.0475039,-0.124173 0.0912323,-0.319421 0.138736,-0.443594 0.0219685,-0.00884646 0.0512205,-0.00096063 0.0623071,0.0171693z"
   id="path5592" />
  <path
   class="fil17"
   d="M5.1725 3.19233c0.0053937,0.0190591 0.119276,0.312512 0.119276,0.312512 -0.122913,0.130264 -0.202185,0.0985276 -0.300516,0.0578268 0.0370157,-0.121862 0.0714291,-0.263335 0.118933,-0.387508 0.0219685,-0.00884646 0.0512205,-0.00096063 0.0623071,0.0171693z"
   id="path5594" />
  <path
   class="fil4"
   d="M4.28722 2.76047c0.179602,-0.00766142 0.347012,0.0450906 0.476413,0.172803 0.145724,0.143815 0.21563,0.353638 0.229685,0.554264 0.0161299,0.230311 -0.0401496,0.51363 -0.208705,0.682213 -0.137921,0.142094 -0.364646,0.202331 -0.556268,0.218287 -0.141177,0.0117598 -0.294094,0.00293307 -0.431327,-0.0334685 -0.100024,-0.0265354 -0.224823,-0.0776024 -0.282728,-0.168736l-0.0052126 -0.00820866 0.00234252 -0.00945276c-0.0927835,-0.0684724 -0.272815,-0.342587 -0.29939,-0.410315 -0.0321929,-0.260083 0.102654,-0.256063 -0.0167087,-0.288587 -0.0909803,-0.176795 -0.165772,-0.306449 -0.108535,-0.504169l0.00159843 -0.00554724 0.00405906 -0.00410236c0.0581339,-0.058815 0.123728,-0.0988543 0.200575,-0.128453 0.0726024,-0.0279646 0.149193,-0.0448346 0.224193,-0.0649961 0.082626,-0.0222008 0.160618,-0.0480866 0.236252,-0.0888701l0.00690945 -0.00371654 0.00773622 0.00133465c0.173031,0.0299134 0.346071,0.0598268 0.51911,0.0897205z"
   id="path5596" />
  <path
   class="fil15"
   d="M4.28576 2.78326c0.751165,-0.0343504 0.845602,1.00758 0.482618,1.37061 -0.295488,0.304433 -1.05224,0.273571 -1.20843,0.0277874 -0.203445,-0.164681 -0.593311,-0.719843 -0.45137,-1.21026 0.182437,-0.184579 0.408843,-0.145232 0.655654,-0.278287 0.173843,0.0300512 0.347685,0.0601024 0.521528,0.0901417z"
   id="path5598" />
  <path
   class="fil14"
   d="M4.28576 2.78326c0.751165,-0.0343504 0.845602,1.00758 0.482618,1.37061 -0.295488,0.304433 -0.918728,0.387118 -1.07491,0.141335 0.149008,-0.458051 -0.302142,-0.90713 -0.0963583,-1.50862 0.182433,-0.184579 -0.079685,0.0395866 0.167126,-0.0934685 0.173843,0.0300512 0.347685,0.0601024 0.521528,0.0901417z"
   id="path5600" />
  <path
   class="fil16"
   d="M4.18345 2.76558c0.751161,-0.0343465 0.901272,1.07465 0.473575,1.43336 -0.295484,0.304429 -0.80737,0.342059 -0.963555,0.0962756 0.149008,-0.458051 -0.302142,-0.90713 -0.0963583,-1.50862 0.182433,-0.184579 -0.079685,0.0395866 0.167126,-0.0934685 0.173843,0.0300512 0.245366,0.0424173 0.419213,0.0724567z"
   id="path5602" />
  <path
   class="fil4"
   d="M4.20404 6.41978c0.114138,-0.00570472 0.227398,-0.0255512 0.341587,-0.0312559l0.0109173 -0.000551181 0.00722441 0.00819291c0.132004,0.14935 0.280378,0.26611 0.456378,0.360591l0.0025748 0.0013937 0.00214567 0.00198425c0.0417008,0.0387402 0.0307008,0.0905354 -0.0279449,0.0897992 -0.259346,0.00292126 -0.518634,-0.00690551 -0.778012,-0.00683071 -0.0135551,0 -0.0271024,2.75591e-005 -0.0406575,9.44882e-005 -0.0679567,0.000338583 -0.0747953,-0.00229134 -0.0828346,-0.0719173 -0.0139173,-0.120327 0.00620472,-0.254429 0.093437,-0.344614l0.00623622 -0.00644094 0.00894882 -0.000444882z"
   id="path5604" />
  <path
   class="fil14"
   d="M4.54676 6.4112c0.128343,0.145228 0.27437,0.264492 0.462654,0.365567 0.0326535,0.0303386 0.0173898,0.0508425 -0.0126142,0.0504646 -0.248118,0.00279921 -0.523772,-0.00690551 -0.77789,-0.00682677 -0.0136535,0 -0.0272598,2.3622e-005 -0.0407717,8.66142e-005 -0.0552126,0.000279528 -0.0535787,0.00516929 -0.0601654,-0.051815 -0.0133898,-0.115783 0.00607874,-0.242354 0.0872047,-0.326217 0.108197,-0.00540945 0.233398,-0.0258504 0.341583,-0.0312598z"
   id="path5606" />
  <path
   class="fil15"
   d="M4.50616 6.44081c0.128346,0.145228 0.289142,0.288543 0.503252,0.335953 0.0326535,0.0303386 0.0173898,0.0508425 -0.0126142,0.0504646 -0.248118,0.00279921 -0.523772,-0.00690551 -0.77789,-0.00682677 -0.0136535,0 -0.0272598,2.3622e-005 -0.0407717,8.66142e-005 -0.0552126,0.000279528 -0.0535787,0.00516929 -0.0601654,-0.051815 -0.0133898,-0.115783 0.00607874,-0.242354 0.0872047,-0.326217 0.108197,-0.00540945 0.192803,0.00375984 0.300984,-0.00164567z"
   id="path5608" />
  <path
   class="fil16"
   d="M4.50616 6.44081c0.128346,0.145228 0.289142,0.288543 0.503252,0.335953 0.0326535,0.0303386 0.0173898,0.0508425 -0.0126142,0.0504646 -0.248118,0.00279921 -0.400201,-0.0421929 -0.654319,-0.0421299 -0.0136417,0 -0.0272717,2.75591e-005 -0.0407717,9.05512e-005 -0.0552126,0.00026378 -0.0535787,0.00515354 -0.0601654,-0.0518189 -0.013378,-0.11578 -0.117492,-0.207051 -0.0363661,-0.290913 0.108197,-0.00540945 0.192803,0.00375984 0.300984,-0.00164567z"
   id="path5610" />
  <path
   class="fil4"
   d="M4.54779 6.25878c0.0370827,0.0351654 0.0620787,0.120839 0.0734213,0.170571l0.00248031 0.010878 -0.00709843 0.00861024c-0.0718976,0.0872913 -0.190756,0.157882 -0.228106,0.267169 -0.0106535,0.0312283 -0.0160276,0.119465 -0.0345118,0.142311 -0.0177283,0.0210118 -0.0821732,0.0140118 -0.106213,0.00629134l-0.00781102 -0.00250787 -0.00440945 -0.0069252c-0.0502559,-0.0790118 -0.0881063,-0.172406 -0.131366,-0.256071l-0.000795276 -0.00154331 -0.000559055 -0.00165354c-0.0384843,-0.114528 -0.00319685,-0.23089 0.0458465,-0.336232l0.011126 -0.0238858 0.0219764 0.0145315c0.0746969,0.0493622 0.261228,0.0464685 0.339776,0.00487008l0.0144094 -0.00763386 0.0118346 0.0112205z"
   id="path5612" />
  <path
   class="fil14"
   d="M4.16925 6.26927c0.0738465,0.0488031 0.267638,0.0564528 0.362921,0.00599213 0.0321457,0.0304882 0.0562795,0.112563 0.0669016,0.15915 -0.077122,0.0936299 -0.192185,0.157555 -0.232075,0.274272 -0.0155866,0.0457008 -0.0179134,0.12452 -0.0302756,0.134996 -0.00692913,0.00816929 -0.0584646,0.00687795 -0.0820197,-0.000685039 -0.0413701,-0.0650394 -0.0917165,-0.179567 -0.130362,-0.254307 -0.0321457,-0.0956693 -0.0115787,-0.198098 0.0449094,-0.319417z"
   id="path5614" />
  <path
   class="fil19"
   d="M4.16925 6.26927c0.0738465,0.0488031 0.202906,0.0520984 0.31263,0.0252559 0.0321457,0.0304882 0.0776102,0.125626 0.0882323,0.172209 -0.077126,0.0936299 -0.163224,0.125232 -0.203114,0.241949 -0.0155866,0.0457008 -0.0179134,0.12452 -0.0302756,0.134996 -0.00692913,0.00816929 -0.0584646,0.00687795 -0.0820197,-0.000685039 -0.0413701,-0.0650394 -0.0917165,-0.179567 -0.130362,-0.254307 -0.0321457,-0.0956693 -0.0115787,-0.198098 0.0449094,-0.319417z"
   id="path5616" />
  <path
   class="fil17"
   d="M4.23253 6.29519c0.09,0.0156535 0.139626,0.0261811 0.24935,-0.000661417 0.0321457,0.0304882 0.0776102,0.125626 0.0882323,0.172209 -0.077126,0.0936299 -0.163224,0.125232 -0.203114,0.241949 -0.0155866,0.0457008 -0.0179134,0.12452 -0.0302756,0.134996 -0.00692913,0.00816929 -0.0371811,0.00711811 -0.0607362,-0.000444882 -0.0413701,-0.0650394 -0.068063,-0.205811 -0.106709,-0.280551 -0.0321417,-0.0956693 0.00676378,-0.146181 0.063252,-0.267496z"
   id="path5618" />
  <path
   class="fil4"
   d="M4.0988 4.67245c-0.0125079,-0.138583 0.0551732,-0.320886 0.210323,-0.342803 0.0217874,-0.00308661 0.0437835,-0.00235827 0.065315,0.00215354 0.124079,0.026 0.192764,0.15848 0.203303,0.27528 0.0125039,0.138602 -0.0551732,0.320913 -0.210343,0.342823 -0.0217598,0.0030748 -0.0437244,0.00235827 -0.0652283,-0.0021378 -0.12413,-0.0259764 -0.192831,-0.1585 -0.20337,-0.275315z"
   id="path5620" />
  <ellipse
   class="fil19"
   transform="matrix(-0.306305 -3.39399 4.04197 -0.571144 4.33826 4.63977)"
   rx="0.084752"
   ry="0.0536496"
   id="ellipse5622" />
  <path
   class="fil17"
   d="M4.35867 4.8887c0.13952,-0.0197047 0.210795,-0.120732 0.196465,-0.279571 -0.0143346,-0.158839 -0.0478898,-0.267283 -0.167622,-0.250378 -0.155118,0.0219016 -0.168362,0.549657 -0.0288425,0.529949z"
   id="path5624" />
  <path
   class="fil20"
   d="M4.11447 2.85842c0.00394488,0.00185433 0.00782283,0.00374803 0.0116181,0.00564961 0.453953,0.228031 0.38237,0.997138 0.203992,1.37594l-1.9685e-005 -1.1811e-005c-0.00340551,0.00725591 -0.00686614,0.0143543 -0.0103189,0.0212402l-0.014874 -0.00743701c0.00344488,-0.00684646 0.00684252,-0.0138307 0.0101535,-0.0208701l0 -3.54331e-005c0.174165,-0.369882 0.24839,-1.13054 -0.19637,-1.35396 -0.00374409,-0.00187402 -0.0075,-0.00370866 -0.0112205,-0.00545669l0.00703937 -0.015063z"
   id="path5626" />
  <path
   class="fil4"
   d="M5.49437 3.56318c-0.112256,-0.11674 -0.188583,-0.263331 -0.300406,-0.379626l-0.022563 -0.0234606 0.0298189 -0.0130669c0.157902,-0.0692008 0.335201,-0.0922087 0.501512,-0.13426l0.0184291 -0.00465354 0.00782283 0.0173189c0.0343622,0.0760433 0.0845669,0.143921 0.119031,0.220201l0.00579921 0.0128268 -0.00892126 0.0109016c-0.087122,0.106437 -0.205744,0.22263 -0.321898,0.297185l-0.0156929 0.0100748 -0.0129331 -0.0134409z"
   id="path5628" />
  <path
   class="fil19"
   d="M5.21032 3.16783c0.109815,0.114193 0.190591,0.265409 0.300406,0.379606 0.117185,-0.0752126 0.238661,-0.197232 0.316598,-0.292449 -0.0341575,-0.0755984 -0.084878,-0.144602 -0.119035,-0.220201 -0.161878,0.0409252 -0.345079,0.0660394 -0.497969,0.133043z"
   id="path5630" />
  <path
   class="fil17"
   d="M5.21032 3.16783c0.194008,0.201752 0.357496,0.404197 0.617004,0.0871575 -0.0341575,-0.0755984 -0.084878,-0.144602 -0.119035,-0.220201 -0.161878,0.0409252 -0.345079,0.0660394 -0.497969,0.133043z"
   id="path5632" />
  <path
   class="fil4"
   d="M3.51993 4.15243c0.301654,0.0474685 1.00339,0.173142 1.26173,-0.0116772l0.0237441 -0.0169882 0.0106142 0.0272047c0.0980276,0.251315 0.193209,0.514228 0.180638,0.78835l-0.000929134 0.0202756 -0.0202441 0.00134252c-0.128917,0.0085315 -0.257835,0.0170748 -0.386748,0.0256181l-0.0179961 0.00119291 -0.00524016 -0.0172559c-0.0213622,-0.0704055 -0.0591378,-0.144157 -0.119437,-0.188961 -0.0394094,-0.0292913 -0.0891811,-0.0454764 -0.137638,-0.0310394 -0.0872795,0.0259961 -0.11322,0.127299 -0.111472,0.207795l0.000551181 0.0247953 -0.024748 -0.00164567c-0.334311,-0.0222205 -0.668622,-0.0444173 -1.00293,-0.0666181l-0.0321378 -0.0021378 0.0128071 -0.0295472c0.0987205,-0.227776 0.181307,-0.540004 0.349154,-0.723591l0.00823228 -0.00900787 0.0120512 0.0018937z"
   id="path5634" />
  <path
   class="fil14"
   d="M4.79487 4.15922c0.0939528,0.240858 0.191657,0.505508 0.179114,0.779059 -0.128925,0.0085315 -0.257846,0.0170748 -0.386752,0.025622 -0.102024,-0.336134 -0.419524,-0.305772 -0.412969,-0.00512598 -0.334311,-0.0222165 -0.668622,-0.0444173 -1.00293,-0.0666181 0.0895906,-0.206705 0.184512,-0.541677 0.345075,-0.717303 0.433843,0.0682795 1.03054,0.161724 1.27846,-0.0156339z"
   id="path5636" />
  <path
   class="fil16"
   d="M4.69786 4.20952c0.0939528,0.240858 0.218921,0.459811 0.206378,0.733366 -0.128925,0.0085315 -0.188102,0.0124646 -0.317008,0.0210118 -0.102024,-0.336134 -0.419524,-0.305772 -0.412969,-0.00512598 -0.334311,-0.0222165 -0.668622,-0.0444173 -1.00293,-0.0666181 0.0895906,-0.206705 0.184512,-0.541677 0.345075,-0.717303 0.433843,0.0682795 0.868933,0.129575 1.18145,0.0346693z"
   id="path5638" />
  <path
   class="fil21"
   d="M3.48912 1.54535c-0.0941614,0.00603543 -0.180252,0.0315315 -0.260752,0.0902756 -0.062252,0.0454488 -0.110512,0.105681 -0.170583,0.151291 -0.0164567,0.0125 -0.0338071,0.0235157 -0.052437,0.0322795 -0.0283386,0.013878 -0.113126,0.0564882 -0.144169,0.0339488 -0.0256772,-0.0186417 -0.0457008,-0.115803 -0.0547126,-0.147563l-0.0193189 -0.0681024 -0.0231496 0.0667087c-0.0549213,0.158291 -0.0492008,0.260461 0.0878858,0.317213 -0.0908268,0.0851732 -0.0766063,0.203886 -0.0102402,0.315331l0.0190591 0.0320079 0.0188228 -0.0321693c0.016878,-0.0288425 0.0322992,-0.0595512 0.0507087,-0.0872087 0.0182913,-0.0274961 0.0407047,-0.0499173 0.0655984,-0.0688465l-0.00101969 0.00166142 0.025 0.0112441c0.163366,0.0734921 0.33985,0.149677 0.487776,-0.00198425 0.158028,-0.162012 0.0610591,-0.502378 0.249146,-0.592382 0.0835748,-0.00791339 0.125567,0.12539 0.109083,0.197063l-0.0156063 0.0678386 0.0512126 -0.0431142c0.0264331,-0.0222559 0.10402,-0.0502913 0.137248,-0.0635394 0.0398228,-0.0158622 0.116988,-0.043563 0.149315,-0.0707756l0.00777559 -0.00655118 0.000751969 -0.0105709c0.00549213,-0.0773425 -0.0346181,-0.375606 -0.0687047,-0.439031 -0.0105157,-0.0195669 -0.0253858,-0.0352362 -0.0458583,-0.0419449 -0.0705551,-0.0231063 -0.172012,0.0847008 -0.219461,0.131087 -0.0281496,0.0275276 -0.130382,0.134386 -0.169516,0.12848 -0.0773425,-0.0116929 -0.0949016,-0.12974 -0.101311,-0.195701l-0.00513386 -0.0529134 -0.0336417 0.0390669c-0.0459252,0.0533504 -0.079811,0.11989 -0.0841929,0.193449 -0.00229921,0.0386575 0.00404331,0.0788071 0.0204252,0.113453z"
   id="path5640" />
  <path
   class="fil22"
   d="M4.17415 1.66757c0.00482677,-0.068 -0.0339331,-0.365929 -0.0657638,-0.425165 -0.0794567,-0.14787 -0.3145,0.245138 -0.418535,0.229425 -0.0550906,-0.00832677 -0.105106,-0.0586535 -0.120492,-0.217043 -0.104126,0.120941 -0.0917008,0.251031 -0.0387913,0.313193 -0.315043,0.00232677 -0.363177,0.201264 -0.515992,0.273157 -0.190965,0.0935079 -0.185701,0.026063 -0.229563,-0.128543 -0.0628622,0.181173 -0.0325039,0.256638 0.115421,0.30052 -0.125744,0.0827283 -0.101311,0.207516 -0.0398976,0.310646 0.0601496,-0.102795 0.0715039,-0.160843 0.274598,-0.242437 -0.0374409,0.0293819 -0.091122,0.0647087 -0.106657,0.0898858 0.169724,0.0763504 0.328622,0.141224 0.46363,0.00280709 0.154697,-0.158594 0.0500906,-0.503063 0.258819,-0.598512 0.102185,-0.0136929 0.157378,0.136311 0.136661,0.226378 0.045374,-0.0381969 0.241189,-0.0961142 0.286563,-0.134311z"
   id="path5642" />
  <path
   class="fil23"
   d="M4.17415 1.66757c0.00482677,-0.068 -0.0519803,-0.314295 -0.0838071,-0.373531 -0.0794488,-0.147866 -0.320512,0.231083 -0.424551,0.215366 -0.0550906,-0.00832677 -0.11437,-0.0914567 -0.0964331,-0.254618 -0.104126,0.120941 -0.0450433,0.270118 0.00787008,0.332283 -0.315043,0.00232283 -0.397122,0.234917 -0.549937,0.306811 -0.190965,0.0935079 -0.25174,-0.0219094 -0.24228,-0.181287 -0.0628622,0.181173 -0.0325039,0.256638 0.115421,0.30052 -0.125744,0.0827283 -0.101311,0.207516 -0.0398976,0.310646 0.0601496,-0.102795 0.0715039,-0.160843 0.274598,-0.242437 -0.0374409,0.0293819 -0.091122,0.0647087 -0.106657,0.0898858 0.169724,0.0763504 0.328622,0.141224 0.46363,0.00280709 0.154697,-0.158594 0.0500906,-0.503063 0.258819,-0.598512 0.102185,-0.0136929 0.157378,0.136311 0.136661,0.226378 0.045374,-0.0381969 0.241189,-0.0961142 0.286563,-0.134311z"
   id="path5644" />
  <path
   class="fil24"
   d="M3.49211 2.17402c-0.135012,0.138421 -0.293906,0.0735472 -0.46363,-0.00280709 0.0155315,-0.0251772 0.0692165,-0.0605039 0.106657,-0.0898858 -0.203094,0.0815945 -0.214449,0.139642 -0.274598,0.242433 -0.0155276,-0.0260709 -0.028685,-0.0535197 -0.0376535,-0.0813346 0.0350984,-0.124098 0.143839,-0.234677 0.312988,-0.190669 -0.0470591,-0.0251378 -0.107248,-0.101744 -0.108579,-0.15787 0.134571,0.158413 0.387264,0.276732 0.467437,0.00498031 0.0382717,-0.129744 0.107303,-0.309043 0.307508,-0.425295 -0.0229567,0.0330354 -0.0426969,0.0685551 -0.0594724,0.105874 -0.197839,0.10063 -0.0980157,0.438083 -0.250657,0.594575z"
   id="path5646" />
  <path
   class="fil4"
   d="M4.12589 1.46106c0.0748701,0.0125906 0.124386,0.0846693 0.113535,0.15902 -0.0109252,0.0747913 -0.0793425,0.127563 -0.154524,0.114906 -0.0748622,-0.0126024 -0.124386,-0.0846811 -0.113528,-0.159031 0.0109173,-0.0747835 0.0793465,-0.127571 0.154516,-0.114894z"
   id="path5648" />
  <ellipse
   class="fil17"
   transform="matrix(2.28143 0.384063 -0.357688 2.44965 4.1054 1.59802)"
   rx="0.0488976"
   ry="0.0467717"
   id="ellipse5650" />
  <path
   class="fil4"
   d="M4.01274 1.52146c0.141083,0.0116457 0.247665,0.0464409 0.348756,0.150157 0.191878,0.196831 0.220874,0.634874 0.0849173,0.867098 -0.0382559,0.0653701 -0.0644803,0.0931457 0.0111181,0.139319 0.0189961,0.0115984 0.0532992,0.025874 0.0576772,0.0496693 0.00503543,0.027378 -0.0290433,0.0522402 -0.047378,0.0675472 -0.164929,0.137693 -0.48574,0.114063 -0.678929,0.0620512 -0.12937,-0.0348346 -0.261012,-0.0935945 -0.363713,-0.180866 -0.0239528,-0.0203583 -0.0840354,-0.0621417 -0.0832992,-0.0967126 0.000594488,-0.028 0.0424882,-0.0632992 0.060622,-0.0837402 0.0359016,-0.0404724 0.0307638,-0.0989173 0.0305472,-0.149673 -0.00147638,-0.348311 0.168555,-0.808114 0.576882,-0.824906l0.00140945 -5.51181e-005 0.00138976 0.000110236z"
   id="path5652" />
  <path
   class="fil15"
   d="M4.34524 1.68746c0.194232,0.199248 0.204551,0.62974 0.0815866,0.839787 -0.0434882,0.0742874 -0.0709646,0.115295 0.0188858,0.170173 0.0538661,0.032874 0.068752,0.0293228 0.0075748,0.0804055 -0.198925,0.166067 -0.735256,0.117665 -1.0134,-0.118693 -0.103701,-0.0881378 -0.0902402,-0.0693386 -0.0203976,-0.148087 0.0367244,-0.041374 0.0366142,-0.086126 0.0362795,-0.164831 -0.0013622,-0.320984 0.152012,-0.785547 0.55511,-0.802126 0.132142,0.0109094 0.235425,0.041874 0.334358,0.14337z"
   id="path5654" />
  <path
   class="fil14"
   d="M4.34524 1.68746c0.194232,0.199248 0.204551,0.62974 0.0815866,0.839787 -0.0434882,0.0742874 -0.0709646,0.115295 0.0188858,0.170173 0.0538661,0.032874 0.068748,0.0293425 0.0075748,0.0804055 -0.325406,0.271669 -1.0178,-0.115441 -0.904346,-0.243335 0.168697,-0.190169 -0.0821181,-0.910232 0.556461,-0.936488 0.132142,0.0109134 0.140906,-0.0120394 0.239839,0.0894567z"
   id="path5656" />
  <path
   class="fil16"
   d="M4.37211 2.52269c-0.0434803,0.0742795 -0.0162559,0.119882 0.0735984,0.17474 0.0538543,0.0328819 0.068748,0.0293425 0.0075748,0.0804055 -0.325406,0.271669 -1.0178,-0.115449 -0.904346,-0.243335 0.168689,-0.190169 -0.0821181,-0.910232 0.556461,-0.936488 0.397256,-0.0678071 0.405067,0.688327 0.266713,0.924677z"
   id="path5658" />
  <path
   class="fil4"
   d="M4.45954 1.95189c0.107469,0.104945 0.111547,0.111083 0.0972717,0.263394 -0.0130748,0.139531 -0.0230945,0.149425 -0.147921,0.206559 -0.052374,0.0239606 -0.104728,0.0479449 -0.157091,0.0719055 -0.159433,0.0729961 -0.173283,0.0554961 -0.32413,-0.0204606 -0.0949331,-0.0478228 -0.189858,-0.0956654 -0.284795,-0.143484 -0.140024,-0.0705472 -0.156047,-0.0556575 -0.135197,-0.224165 0.00293307,-0.023689 0.00586614,-0.047378 0.0087874,-0.0710669 0.0154016,-0.124551 0.0262244,-0.115764 0.137024,-0.15248 0.130461,-0.0432323 0.260917,-0.0864685 0.391374,-0.129701 0.170591,-0.0565433 0.153213,-0.0593622 0.281835,0.0684094 0.0441339,0.0438386 0.0883307,0.0876299 0.132843,0.131091z"
   id="path5660" />
  <path
   class="fil25"
   d="M4.44367 1.96813c-0.0404843,-0.0395197 -0.0894764,-0.0880157 -0.132972,-0.131217 -0.123882,-0.123067 -0.0993898,-0.115772 -0.258697,-0.0629764 -0.130449,0.0432362 -0.260925,0.0864685 -0.391378,0.129705 -0.102791,0.0340709 -0.10752,0.0196378 -0.121626,0.133713 -0.0029252,0.023689 -0.00585433,0.0474055 -0.0087874,0.0710709 -0.019311,0.156028 -0.00992913,0.134189 0.122878,0.201098 0.0949291,0.0478189 0.189862,0.0956693 0.284795,0.143476 0.148886,0.0749843 0.154205,0.0889055 0.304465,0.0201102 0.0523661,-0.0239606 0.104736,-0.0479606 0.157091,-0.0719134 0.114528,-0.0524213 0.122232,-0.0543268 0.13476,-0.188035 0.0139213,-0.148398 0.00940157,-0.147449 -0.0905276,-0.245031z"
   id="path5662" />
  <path
   class="fil17"
   d="M4.4073 1.93247c-0.0404764,-0.0395236 -0.0531063,-0.0523504 -0.0966024,-0.0955512 -0.123882,-0.123067 -0.0993898,-0.115772 -0.258697,-0.0629764 -0.130449,0.0432362 -0.260925,0.0864685 -0.391378,0.129705 -0.102791,0.0340709 -0.10752,0.0196378 -0.121626,0.133713 -0.0029252,0.023689 -0.00585433,0.0474055 -0.0087874,0.0710709 -0.019311,0.156028 -0.00992913,0.134189 0.122878,0.201098 0.0949291,0.0478189 0.189862,0.0956693 0.284795,0.143476 0.148886,0.0749843 0.154205,0.0889055 0.304465,0.0201102 0.0523661,-0.0239606 0.0936614,-0.0428898 0.145996,-0.0668346 0.116398,-0.0532598 0.10915,-0.385752 0.0189567,-0.473811z"
   id="path5664" />
  <ellipse
   class="fil26"
   transform="matrix(2.32988 0.392219 -0.365284 2.50167 4.24738 2.14474)"
   rx="0.0145512"
   ry="0.0885197"
   id="ellipse5666" />
  <ellipse
   class="fil26"
   transform="matrix(-2.32988 -0.392219 -0.365284 2.50167 4.0689 2.11298)"
   rx="0.0145512"
   ry="0.0885197"
   id="ellipse5668" />
  <ellipse
   class="fil26"
   transform="matrix(-2.13349 -0.359158 -0.334494 2.2908 3.92624 2.10392)"
   rx="0.0145512"
   ry="0.0885197"
   id="ellipse5670" />
  <ellipse
   class="fil26"
   transform="matrix(-1.8094 -0.304601 -0.283683 1.94282 3.76061 2.10119)"
   rx="0.0145512"
   ry="0.0885197"
   id="ellipse5672" />
  <ellipse
   class="fil26"
   transform="matrix(1.80849 0.304448 -0.283541 1.94185 4.38963 2.1695)"
   rx="0.0145512"
   ry="0.0885197"
   id="ellipse5674" />
  <path
   class="fil4"
   d="M3.45541 2.03407c-0.00276378,-0.00416535 -0.0040315,-0.00879134 -0.00212205,-0.0175591 0.00643307,-0.0293661 0.0580315,-0.0242087 0.0806614,-0.0230827l0.0114173 0.000566929 0.00633858 0.00949606c0.028685,0.0429724 0.016252,0.127886 -0.0199331,0.163638l-0.00540945 0.00535433 -0.00755118 0.00100394c-0.0270276,0.00360236 -0.0532992,-0.00685039 -0.0728819,-0.025252l-0.00721654 -0.00679134 6.29921e-005 -0.00991339c0.00023622,-0.0328583 0.0216575,-0.0674449 0.0166339,-0.0974606z"
   id="path5676" />
  <path
   class="fil16"
   d="M3.46147 2.13169c0.00026378,-0.0354567 0.0254488,-0.0669449 0.0150354,-0.107437 -0.00783858,-0.00935827 0.028185,-0.00954724 0.0563071,-0.00814567 0.0207165,0.0310236 0.0138504,0.104386 -0.017,0.134878 -0.0225,0.003 -0.0419331,-0.00763386 -0.0543425,-0.0192953z"
   id="path5678" />
  <path
   class="fil4"
   d="M3.48666 2.00393c0.0301417,0.0150827 0.0316181,0.0621575 0.0255157,0.0905551 -0.0063189,0.0296024 -0.0315118,0.074689 -0.0685984,0.0561772 -0.0301299,-0.015063 -0.031626,-0.0621457 -0.0255315,-0.0905551 0.00634646,-0.0295906 0.0315197,-0.0746693 0.0686142,-0.0561772z"
   id="path5680" />
  <ellipse
   class="fil17"
   transform="matrix(0.508592 0.254102 -0.243483 1.13443 3.46512 2.0773)"
   rx="0.0488976"
   ry="0.0467717"
   id="ellipse5682" />
  <path
   class="fil6"
   d="M3.05501 4.43901c0.000216535,-0.00345669 0.000433071,-0.00690157 0.000669291,-0.0103622l0.00148031 -0.022185 0.0406654 0.000598425 0.00065748 0.0155079 0.000807087 0.000125984 -0.000476378 0.00768898c0.000161417,0.00527165 -0.000102362,0.0105748 -0.000984252,0.0157598 -0.0011063,0.0166063 -0.00568898,0.0760709 0.00298425,0.0872559 0.00425197,0.00548031 0.0180118,0.0130591 0.0238307,0.0167559 0.0209646,0.0132992 0.0394094,0.0280512 0.0575079,0.0457598 0.0708071,0.069311 0.11587,0.194547 0.0266417,0.270547 -0.00683071,0.051189 -0.0173937,0.102689 -0.0334213,0.143157 -0.0234764,0.0543346 -0.0820551,0.119969 -0.142232,0.0924331 -0.0239724,-0.0109724 -0.0378071,-0.0338425 -0.0472953,-0.060374 -0.013315,0.0187756 -0.0337598,0.0324921 -0.0537008,0.0392283 -0.0470669,0.0158898 -0.0916417,-0.00425984 -0.109791,-0.0561339 -0.00348425,-0.00998031 -0.00633071,-0.020122 -0.00888189,-0.0303583 -0.00190551,0.0010315 -0.00390945,0.00193701 -0.00600394,0.00270472 -0.0162126,0.00591732 -0.0358701,0.0056811 -0.052311,0.000645669 -0.0348976,-0.0106732 -0.0468898,-0.0431811 -0.0581142,-0.076811 -0.0234252,-0.0700276 -0.0302559,-0.156929 -0.0267441,-0.231063 0.0012874,-0.0271417 0.0040315,-0.0544094 0.00874409,-0.0811142 0.00650787,-0.0368071 0.0209016,-0.0743071 0.0194961,-0.112051l-0.00023622 -0.00634252 0.00270079 -0.00561417c0.0161614,-0.033563 0.0398031,-0.0590472 0.0721969,-0.0732441 0.041437,-0.0181732 0.0888386,-0.0142598 0.13176,-0.00531102 0.0197087,0.00411024 0.137472,0.0412677 0.150051,0.0327953z"
   id="path5684" />
  <path
   class="fil7"
   d="M3.16775 4.6135c0.0645433,0.0631732 0.102984,0.1705 0.0276024,0.234496 0.00502756,-0.0276929 0.0102717,-0.0586378 0.00198031,-0.0989803 -0.00496457,0.10976 -0.0219094,0.201094 -0.0415472,0.250689 -0.0273386,0.0632598 -0.0776457,0.0973465 -0.114315,0.0805748 -0.0410394,-0.0187756 -0.0468701,-0.100724 -0.0608819,-0.144508 -0.00130709,0.0253701 -0.00261417,0.0507402 -0.00391339,0.0761142 -0.0155512,0.0470748 -0.106535,0.0834055 -0.134161,0.00445669 -0.0100906,-0.0288819 -0.0152402,-0.062689 -0.0233661,-0.0926654 0.00500394,0.0184685 -0.000559055,0.0445 -0.0185118,0.0510472 -0.0112835,0.00412598 -0.0264921,0.00433465 -0.0396614,0.000311024 -0.0263661,-0.00806299 -0.0350827,-0.0364961 -0.0436693,-0.0621772 -0.0207717,-0.062122 -0.0290709,-0.145303 -0.0254528,-0.22174 0.0012874,-0.0272244 0.00409449,-0.0535984 0.00838189,-0.0778622 0.00709055,-0.0401024 0.021437,-0.0752677 0.0198701,-0.117492 0.0884764,-0.183768 0.361929,0.0495354 0.357098,-0.0654016 -0.0106614,0.161252 0.00320472,0.0976339 0.0905472,0.183138z"
   id="path5686" />
  <path
   class="fil8"
   d="M3.16775 4.6135c0.0645433,0.0631732 0.102984,0.1705 0.0276024,0.234496 0.00502756,-0.0276929 0.0102717,-0.0586378 0.00198031,-0.0989803 -0.00496457,0.10976 -0.0219094,0.201094 -0.0415472,0.250689 -0.0273386,0.0632598 -0.0776457,0.0973465 -0.114315,0.0805748 -0.0410394,-0.0187756 -0.0468701,-0.100724 -0.0608819,-0.144508 -0.00130709,0.0253701 -0.00261417,0.0507402 -0.00391339,0.0761142 -0.0696063,0.0875039 -0.1415,-0.0290669 -0.157528,-0.0882087 0.00500394,0.0184685 -0.000559055,0.0445 -0.0185118,0.0510472 -0.129681,-0.19889 0.0745669,-0.51898 0.0725197,-0.573878 0.0884764,-0.183768 0.208878,0.144453 0.204047,0.0295157 -0.0106614,0.161252 0.00320472,0.0976339 0.0905472,0.183138z"
   id="path5688" />
  <path
   class="fil4"
   d="M3.46266 3.37798c-0.0609646,0.159185 -0.140583,0.328437 -0.236646,0.465937 -0.0167992,0.193933 -0.0834488,0.372768 -0.13465,0.557236l-0.00283071 0.0101772 -0.00883858 0.00442913c-0.107122,0.0536102 -0.232472,0.00573228 -0.331646,0.055374l-0.0284803 0.014248 -0.00204331 -0.0341693c-0.0278425,-0.464846 -0.0858465,-0.692016 0.128307,-1.1274 0.0776102,-0.157795 0.155232,-0.315583 0.232854,-0.47337l0.0106063 -0.0215551 0.019315 0.012374c0.166465,0.106606 0.343929,0.19352 0.510409,0.300154l0.0244488 0.0156575 -0.0203031 0.021622c-0.0580709,0.0618386 -0.102709,0.136768 -0.160504,0.199287z"
   id="path5690" />
  <path
   class="fil15"
   d="M3.60811 3.16178c-0.0600079,0.0638937 -0.103665,0.138791 -0.163685,0.202697 -0.0588858,0.154449 -0.142205,0.332941 -0.239339,0.47048 -0.0158268,0.197004 -0.0920866,0.407004 -0.13437,0.559335 -0.102028,0.051063 -0.22961,0.00430315 -0.33165,0.055378 -0.0275551,-0.460063 -0.0867441,-0.682591 0.12578,-1.11468 0.0775827,-0.157744 0.155236,-0.315591 0.232854,-0.473374 0.144528,0.0925591 0.365894,0.207598 0.510409,0.300161z"
   id="path5692" />
  <path
   class="fil14"
   d="M3.60811 3.16178c-0.0600079,0.0638937 -0.103665,0.138791 -0.163685,0.202697 -0.0588858,0.154449 -0.142205,0.332941 -0.239339,0.47048 -0.0158268,0.197004 -0.0920866,0.407004 -0.13437,0.559335 -0.102028,0.051063 -0.134661,0.00287795 -0.236701,0.0539567 -0.0275551,-0.460063 -0.103965,-0.646677 0.108539,-1.07875 0.0775748,-0.15772 0.180283,-0.313984 0.257898,-0.471768 0.144528,0.092563 0.263142,0.171488 0.407657,0.264051z"
   id="path5694" />
  <path
   class="fil16"
   d="M3.52405 3.08307c-0.135685,0.144472 -0.249886,0.52828 -0.384622,0.719059 -0.0158268,0.197008 -0.0264331,0.439835 -0.0687165,0.592165 -0.102028,0.051063 -0.134661,0.00287795 -0.236701,0.0539567 -0.0275551,-0.460063 -0.103965,-0.646677 0.108539,-1.07875 0.0775748,-0.15772 0.180283,-0.313984 0.257898,-0.471768 0.144528,0.092563 0.179087,0.0927756 0.323602,0.185339z"
   id="path5696" />
  <path
   class="fil4"
   d="M2.65179 3.86942c0.17798,0.072185 0.352504,0.111236 0.540366,0.13915l0.0213268 0.00316929 -0.00283858 0.0233228c-0.0192165,0.158232 -0.0574843,0.32213 -0.116768,0.468433l-0.00561811 0.0138543 -0.0138543 0.000177165c-0.126858,0.0016378 -0.253705,0.00326378 -0.380555,0.00492126l-0.0177874 0.00023622 -0.00360236 -0.0190472c-0.0382402,-0.201909 -0.0532598,-0.406496 -0.0497559,-0.612524l0.000562992 -0.0332559 0.0285236 0.011563z"
   id="path5698" />
  <path
   class="fil19"
   d="M2.64428 3.89156c0.178394,0.0723465 0.343878,0.110531 0.544976,0.140402 -0.0179134,0.147421 -0.0550827,0.313846 -0.11511,0.461969 -0.12685,0.0016378 -0.253705,0.00327165 -0.380555,0.0049252 -0.0366969,-0.193799 -0.0529291,-0.394165 -0.049311,-0.607295z"
   id="path5700" />
  <path
   class="fil17"
   d="M2.74109 3.92796c0.190445,0.0624685 0.247063,0.074126 0.448161,0.103996 -0.0179134,0.147421 -0.0550827,0.313846 -0.11511,0.461969 -0.12685,0.0016378 -0.160646,0.00206299 -0.287496,0.0037126 -0.0366969,-0.193799 -0.0491732,-0.356547 -0.0455551,-0.569677z"
   id="path5702" />
  <path
   class="fil4"
   d="M3.6847 3.18055c-0.0515079,0.10548 -0.161748,0.175307 -0.259949,0.218677 -0.0729331,0.0322047 -0.151843,0.0558661 -0.229429,0.0700394 -0.0422362,0.0077126 -0.11572,0.0185118 -0.157689,0.00785827l-0.00482283 -0.00122047 -0.00385827 -0.00340945c-0.126657,-0.111921 -0.166409,-0.269713 -0.169819,-0.440969l-9.05512e-005 -0.00493307 0.00171654 -0.00457087c0.0363465,-0.0964331 0.0888858,-0.186925 0.157559,-0.259717 0.185642,-0.196736 0.374063,-0.222941 0.539929,0.0152913 0.0794921,0.114102 0.119972,0.247921 0.128941,0.390213l0.000433071 0.00675197 -0.00292126 0.00598819z"
   id="path5704" />
  <path
   class="fil15"
   d="M3.66566 3.16943c-0.00831496,-0.131906 -0.044752,-0.262941 -0.124579,-0.377543 -0.153575,-0.220559 -0.323327,-0.208075 -0.50774,-0.0126378 -0.0663701,0.0703465 -0.117323,0.158126 -0.152614,0.251772 0.00314173,0.158421 0.0374213,0.313213 0.161799,0.423118 0.0878937,0.0223071 0.51224,-0.0575748 0.623134,-0.284709z"
   id="path5706" />
  <path
   class="fil14"
   d="M3.66566 3.16943c-0.00831496,-0.131906 -0.044752,-0.262941 -0.124579,-0.377543 -0.153575,-0.220559 -0.248071,-0.146047 -0.432465,0.049374 -0.125969,0.133504 -0.217504,0.479087 -0.0660906,0.612878 0.0878937,0.0223071 0.51224,-0.0575748 0.623134,-0.284709z"
   id="path5708" />
  <path
   class="fil16"
   d="M3.5427 3.14523c0.00100394,-0.0504409 0.0782126,-0.23874 -0.00161417,-0.353343 -0.153575,-0.220559 -0.248071,-0.146047 -0.432465,0.049374 -0.125969,0.133504 -0.217504,0.479087 -0.0660906,0.612878 0.0878937,0.0223071 0.389276,-0.0817756 0.500169,-0.308909z"
   id="path5710" />
  <path
   class="fil4"
   d="M3.19806 3.89522c-0.0259764,-0.0045 -0.0573425,-0.00592126 -0.0837953,-0.00840945 -0.0558465,-0.00523228 -0.111705,-0.0102795 -0.167559,-0.0153031 -0.0846339,-0.00761811 -0.169256,-0.0151378 -0.253898,-0.0225748l-0.00756299 -0.000665354 -0.00551969 -0.00570079c-0.137791,-0.142114 -0.0513898,-0.428709 0.132898,-0.466555l0.0113661 -0.00233858 0.00807874 0.00905906c0.0616063,0.0691772 0.138606,0.131957 0.208528,0.191094 0.0716535,0.060622 0.149886,0.124583 0.213031,0.19548l0.00657874 0.00738583 -0.000476378 0.0102795c-0.00173228,0.0372087 -0.0147717,0.103157 -0.0557835,0.108386l-0.00294882 0.000370079 -0.00293701 -0.000507874z"
   id="path5712" />
  <path
   class="fil19"
   d="M3.20144 3.87191c-0.0228268,-0.00396063 -0.506913,-0.0465039 -0.506913,-0.0465039 -0.123016,-0.126874 -0.0475906,-0.391354 0.122063,-0.426197 0.10824,0.121524 0.313327,0.265047 0.421567,0.386571 -0.0013937,0.0301811 -0.0120866,0.083 -0.0367165,0.0861299z"
   id="path5714" />
  <path
   class="fil17"
   d="M3.20144 3.87191c-0.0228268,-0.00396063 -0.399874,-0.0370472 -0.399874,-0.0370472 -0.12302,-0.126874 -0.0459882,-0.295701 0.0731339,-0.37628 0.10824,0.12152 0.255217,0.205673 0.363457,0.327197 -0.0013937,0.0301811 -0.0120866,0.083 -0.0367165,0.0861299z"
   id="path5716" />
  <path
   class="fil19"
   d="M4.30189 5.46679c0.00541732,-0.0324685 0.0172559,-0.0640276 0.0371024,-0.0945472 0.00944882,-0.0145394 0.0207283,-0.0288425 0.034,-0.0428937 -0.0140472,0.00802362 -0.0274843,0.0168307 -0.040311,0.0260748 -0.0224291,0.0161575 -0.0429961,0.0336772 -0.0617677,0.0507992 -0.0107756,0.00982283 -0.0204409,0.0183661 -0.0289488,0.0259606 -0.0066378,0.00593307 -0.0125709,0.0112874 -0.0177638,0.0162244 -0.0284685,0.0270748 -0.0350039,0.0418425 -0.0154961,0.0710472 0.0039252,0.00588583 0.00890945,0.0123543 0.0149921,0.0196299 0.00737008,0.00882677 0.0163386,0.0188268 0.0269843,0.0304055 0.0133661,0.0145394 0.0264488,0.0280394 0.0392598,0.0404803 0.0108386,0.0105197 0.0214843,0.0202953 0.031937,0.0293189 -0.000531496,-0.00159055 -0.00105118,-0.00317717 -0.00157087,-0.00476772 -0.00505906,-0.0155827 -0.00938583,-0.0310315 -0.0128189,-0.0463386 -0.00709449,-0.0316142 -0.0104252,-0.0626063 -0.00874016,-0.0928622 9.44882e-005,-0.0017874 0.000208661,-0.00356693 0.000350394,-0.00534252 0.000444882,-0.00600787 0.0011063,-0.0119882 0.0019685,-0.017937 0.000251969,-0.00175984 0.000527559,-0.00351181 0.000822835,-0.00525197z"
   id="path5718" />
  <path
   class="fil15"
   d="M4.11672 4.82685c-0.0809055,-0.0498268 -0.157409,-0.110252 -0.227882,-0.185906 -0.00787795,-0.00845669 -0.015685,-0.0171142 -0.0234134,-0.0259606 -0.0722008,-0.0826811 -0.13761,-0.182575 -0.194354,-0.30498 -0.00493701,-0.0106457 -0.0098189,-0.0214685 -0.0146142,-0.0324685 -0.0120827,-0.0276339 -0.0237362,-0.0563661 -0.0349488,-0.086252 -0.0289488,-0.00446457 -0.0573937,-0.00892126 -0.0852283,-0.0132913 -0.00665748,-0.00105118 -0.0132913,-0.00209055 -0.019874,-0.00312992 -0.0017874,0.00194882 -0.00355906,0.0039252 -0.00532677,0.00591339 -0.11363,0.127921 -0.194118,0.335472 -0.263441,0.517913 0.0199134,0.0584764 0.0148504,0.122051 -0.0388346,0.16778 -0.00125197,0.0093189 -0.00261417,0.0186496 -0.00411811,0.0279094l0.0796496 0.0052874 0.0221535 0.00147638 0.780224 0.0518228 0.024626 0.0016378 0.0137087 0.000909449 0.0230157 0.0015315 0.0261969 0.00174016c-0.000673228,-0.0306614 0.0020315,-0.0585118 0.00752756,-0.0834488 0.000740157,-0.00333071 0.00152362,-0.00661417 0.00235827,-0.00983858 -0.00612205,-0.00326378 -0.0122126,-0.0065748 -0.0182874,-0.00994488 -0.00457874,-0.00253543 -0.00914961,-0.00509843 -0.0137008,-0.00770079 -0.00391339,-0.00223228 -0.00781102,-0.00448425 -0.0117008,-0.00676378 -0.0028937,-0.00169291 -0.00579134,-0.0033937 -0.00866535,-0.0051063 -0.00504331,-0.00300787 -0.0100669,-0.00604724 -0.0150709,-0.00912992z"
   id="path5720" />
  <circle
   class="fil1"
   transform="matrix(-0.583427 0.0998603 0.0998603 0.583427 6.13742 3.38775)"
   r="0.139256"
   id="circle5722" />
  <circle
   class="fil2"
   transform="matrix(-0.583427 0.0998603 0.0998603 0.583427 6.13743 3.38775)"
   r="0.118587"
   id="circle5724" />
  <path
   class="fil3"
   d="M6.11215 3.33212c-0.0382047,0.00653937 -0.0504488,0.0292756 -0.0439134,0.0674764 0.00653937,0.0382047 0.0428307,0.0638858 0.0810315,0.0573465 0.0382047,-0.00653937 0.0415157,-0.0288701 0.0349764,-0.0670748 -0.00653937,-0.0382008 -0.0338937,-0.0642874 -0.0720945,-0.057748z"
   id="path5726" />
  <circle
   class="fil2"
   transform="matrix(-0.748512 0.0988469 0.0988469 0.748512 6.13318 3.38542)"
   r="0.0483819"
   id="circle5728" />
  <rect
   class="fil12"
   x="1.02821"
   y="0.492791"
   width="5.81267"
   height="6.92918"
   id="rect5730" />
 </g>
</svg>